<?xml version="1.0" encoding="UTF-8"?>
<svg width="1058px" height="1024px" viewBox="0 0 1058 1024" version="1.1" xmlns="http://www.w3.org/2000/svg" xmlns:xlink="http://www.w3.org/1999/xlink">
    <title>AppIcon_FG</title>
    <defs>
        <filter x="-7.8%" y="-9.1%" width="115.6%" height="118.2%" filterUnits="objectBoundingBox" id="filter-1">
            <feOffset dx="0" dy="10" in="SourceAlpha" result="shadowOffsetOuter1"></feOffset>
            <feGaussianBlur stdDeviation="12.5" in="shadowOffsetOuter1" result="shadowBlurOuter1"></feGaussianBlur>
            <feColorMatrix values="0 0 0 0 0   0 0 0 0 0   0 0 0 0 0  0 0 0 0.5 0" type="matrix" in="shadowBlurOuter1" result="shadowMatrixOuter1"></feColorMatrix>
            <feMerge>
                <feMergeNode in="shadowMatrixOuter1"></feMergeNode>
                <feMergeNode in="SourceGraphic"></feMergeNode>
            </feMerge>
        </filter>
    </defs>
    <g id="Symbols" stroke="none" stroke-width="1" fill="none" fill-rule="evenodd">
        <g id="AppIcon_FG" transform="translate(-81.000000, -52.000000)" fill-rule="nonzero">
            <g id="server" transform="translate(81.000000, 52.000000)" stroke="#FFFFFF" stroke-opacity="0.75" stroke-width="4">
                <path d="M810,73 L810,104 L779,104 L779,73 L810,73 Z" id="Path"></path>
                <path d="M810,213 L810,244 L779,244 L779,213 L810,213 Z" id="Path"></path>
                <circle id="Oval" cx="140.5" cy="157.5" r="15.5"></circle>
                <circle id="Oval" cx="212.5" cy="157.5" r="15.5"></circle>
                <path d="M527,142 L527,173 L301,173 L301,142 L527,142 Z" id="Path"></path>
                <path d="M810,425 L810,456 L779,456 L779,425 L810,425 Z" id="Path"></path>
                <path d="M810,566 L810,597 L779,597 L779,566 L810,566 Z" id="Path"></path>
                <circle id="Oval" cx="140.5" cy="510.5" r="15.5"></circle>
                <circle id="Oval" cx="212.5" cy="510.5" r="15.5"></circle>
                <path d="M527,495 L527,526 L301,526 L301,495 L527,495 Z" id="Path"></path>
                <path d="M1040.36667,2 C1044.51265,2 1048.48876,3.64902186 1051.42038,6.58426968 C1054.35292,9.52044655 1056,13.5028537 1056,17.6551724 L1056,300.137931 C1056,304.29025 1054.35292,308.272657 1051.42038,311.208834 C1048.48877,314.144066 1044.51269,315.793223 1040.36667,315.793103 L932.566667,315.793103 L932.566667,355.103448 L1040.36672,355.103448 C1044.51269,355.103329 1048.48877,356.752485 1051.42038,359.687718 C1054.35292,362.623895 1056,366.606302 1056,370.758621 L1056,653.241379 C1056,657.393698 1054.35292,661.376105 1051.42038,664.312282 C1048.48877,667.247515 1044.51269,668.896671 1040.36667,668.896552 L932.566667,668.896552 L932.566667,708.206897 L1040.36672,708.206897 C1044.51269,708.206777 1048.48877,709.855934 1051.42038,712.791166 C1054.35292,715.727343 1056,719.70975 1056,723.862069 L1056,1006.34483 C1056,1010.49715 1054.35292,1014.47955 1051.42038,1017.41573 C1048.48876,1020.35098 1044.51265,1022 1040.36667,1022 L17.6333333,1022 C13.4873507,1022 9.51124075,1020.35098 6.57962378,1017.41573 C3.64707889,1014.47955 2,1010.49715 2,1006.34483 L2,723.862069 C2,719.70975 3.64707889,715.727343 6.57962378,712.791166 C9.51122548,709.855934 13.4873084,708.206777 17.6333333,708.206897 L107.8,708.206897 L107.8,668.896552 L17.6332758,668.896552 C13.4873084,668.896671 9.51122548,667.247515 6.57962378,664.312282 C3.64707889,661.376105 2,657.393698 2,653.241379 L2,370.758621 C2,366.606302 3.64707889,362.623895 6.57962378,359.687718 C9.51122548,356.752485 13.4873084,355.103329 17.6333333,355.103448 L107.8,355.103448 L107.8,315.793103 L17.6332758,315.793103 C13.4873084,315.793223 9.51122548,314.144066 6.57962378,311.208834 C3.64707889,308.272657 2,304.29025 2,300.137931 L2,17.6551724 C2,13.5028537 3.64707889,9.52044655 6.57962378,6.58426968 C9.51124075,3.64902186 13.4873507,2 17.6333333,2 L1040.36667,2 Z M1023.51724,739.407752 L32.8965517,739.407752 L32.8965517,778.788483 L737.625616,778.788483 L737.625616,810.169214 L32.8965517,810.169214 L32.8965517,920.311406 L737.625616,920.311406 L737.625616,951.692137 L32.8965517,951.692137 L32.8965517,991.072868 L1023.51724,991.072868 L1023.51724,951.692137 L847.334975,951.692137 L847.334975,920.311406 L1023.51724,920.311406 L1023.51724,810.169214 L847.334975,810.169214 L847.334975,778.788483 L1023.51724,778.788483 L1023.51724,739.407752 Z M901.37931,669.553488 L862.482759,669.553488 L862.482759,708.48062 L901.37931,708.48062 L901.37931,669.553488 Z M830,669.553488 L208.965517,669.553488 L208.965517,708.48062 L830,708.48062 L830,669.553488 Z M178.068966,669.553488 L139.172414,669.553488 L139.172414,708.48062 L178.068966,708.48062 L178.068966,669.553488 Z M1023.51724,385.373643 L32.8965517,385.373643 L32.8965517,424.754374 L737.625616,424.754374 L737.625616,456.135105 L32.8965517,456.135105 L32.8965517,566.277298 L737.625616,566.277298 L737.625616,597.658029 L32.8965517,597.658029 L32.8965517,637.03876 L1023.51724,637.03876 L1023.51724,597.658029 L847.334975,597.658029 L847.334975,566.277298 L1023.51724,566.277298 L1023.51724,456.135105 L847.334975,456.135105 L847.334975,424.754374 L1023.51724,424.754374 L1023.51724,385.373643 Z M901.37931,315.51938 L862.482759,315.51938 L862.482759,354.446512 L901.37931,354.446512 L901.37931,315.51938 Z M830,315.51938 L208.965517,315.51938 L208.965517,354.446512 L830,354.446512 L830,315.51938 Z M178.068966,315.51938 L139.172414,315.51938 L139.172414,354.446512 L178.068966,354.446512 L178.068966,315.51938 Z M1023.51724,32.9271318 L32.8965517,32.9271318 L32.8965517,72.3078627 L737.625616,72.3078627 L737.625616,103.688594 L32.8965517,103.688594 L32.8965517,213.830786 L737.625616,213.830786 L737.625616,245.211517 L32.8965517,245.211517 L32.8965517,284.592248 L1023.51724,284.592248 L1023.51724,245.211517 L847.334975,245.211517 L847.334975,213.830786 L1023.51724,213.830786 L1023.51724,103.688594 L847.334975,103.688594 L847.334975,72.3078627 L1023.51724,72.3078627 L1023.51724,32.9271318 Z" id="Shape"></path>
                <path d="M810,777 L810,808 L779,808 L779,777 L810,777 Z" id="Path"></path>
                <path d="M810,919 L810,950 L779,950 L779,919 L810,919 Z" id="Path"></path>
                <circle id="Oval" cx="140.5" cy="864.5" r="15.5"></circle>
                <circle id="Oval" cx="212.5" cy="864.5" r="15.5"></circle>
                <path d="M527,849 L527,880 L301,880 L301,849 L527,849 Z" id="Path"></path>
            </g>
            <g id="apples" filter="url(#filter-1)" transform="translate(176.000000, 191.582524)">
                <path d="M341.681703,53.9079255 C375.756103,47.4108956 426.090357,44.4933684 460.911306,72.9248472 C549.743268,145.401875 485.344015,381.572816 376.603437,381.572816 C363.529483,381.572816 346.627596,378.603223 325.778326,368.766563 C315.905205,364.108561 304.524053,364.108561 294.650932,368.766563 C271.970749,379.467882 246.754163,385.425662 222.774983,378.772436 C128.763833,352.551881 75.7196027,141.296138 159.519818,72.9248472 C194.340768,44.4933684 244.656358,47.4127551 278.749421,53.9079255 C298.993986,57.7737884 320.384504,58.0025047 341.681703,53.9079255 Z" id="Path" fill="#FE4F60"></path>
                <path d="M595.681703,53.9079255 C629.756103,47.4108956 680.090357,44.4933684 714.911306,72.9248472 C803.743268,145.401875 739.344015,381.572816 630.603437,381.572816 C617.529483,381.572816 600.627596,378.603223 579.778326,368.766563 C569.905205,364.108561 558.524053,364.108561 548.650932,368.766563 C525.970749,379.467882 500.754163,385.425662 476.774983,378.772436 C382.763833,352.551881 329.719603,141.296138 413.519818,72.9248472 C448.340768,44.4933684 498.656358,47.4127551 532.749421,53.9079255 C552.992119,57.7737884 574.382637,58.0025047 595.681703,53.9079255 Z" id="Path" fill="#FE4F60"></path>
                <path d="M405.564482,49.8632377 C436.690497,53.6575357 438.179717,97.943613 407.363879,103.740405 C386.154166,107.730478 365.435877,108.030666 343.676816,103.869057 C309.546201,97.3544247 259.170563,94.4271284 224.309352,122.937503 C191.301725,149.907783 179.501942,199.0528 183.059628,250.349472 C185.303735,282.708215 138.923021,291.309245 129.707418,260.20346 C98.7794676,155.82577 120.587111,22.8332923 279.246077,53.1112314 C333.725012,63.5320332 353.015741,43.4567472 405.564482,49.8632377 Z" id="Path" fill="#FF6D7A"></path>
                <path d="M867.708738,300.422618 L867.708738,361.987835 C867.708738,378.479851 854.330031,391.837638 837.812186,391.837638 L804.365419,391.837638 C745.394471,668.452025 791.977035,450.063408 739.69544,695.298191 C733.809557,722.871946 709.443867,742.572816 681.210311,742.572816 L187.562186,742.572816 C159.347315,742.572816 134.96294,722.871946 129.095742,695.298191 C94.4531129,532.840642 97.8164749,548.605068 64.4257637,391.837638 L30.6052896,391.837638 C14.0874448,391.837638 0.708737864,378.479851 0.708737864,361.987835 L0.708737864,300.422618 C0.708737864,283.930602 14.0874448,270.572816 30.6052896,270.572816 L837.812186,270.572816 C854.330031,270.572816 867.708738,283.930602 867.708738,300.422618 Z" id="Path" fill="#FFAA64"></path>
                <path d="M867.708738,300.603585 L867.708738,362.542046 C867.708738,379.134046 854.330031,392.572816 837.812186,392.572816 L30.6052896,392.572816 C14.0874448,392.572816 0.708737864,379.134046 0.708737864,362.542046 L0.708737864,300.603585 C0.708737864,284.011585 14.0874448,270.572816 30.6052896,270.572816 L837.812186,270.572816 C854.330031,270.572816 867.708738,284.011585 867.708738,300.603585 Z" id="Path" fill="#CBE3FA"></path>
                <path d="M313.33218,135.572816 C306.436431,135.572816 300.237544,130.799801 298.733594,123.825142 C296.870939,115.191355 291.589367,84.5058296 301.836774,52.127733 C307.499471,34.1132712 317.238712,17.9270098 331.538375,4.59452452 C337.55791,-1.02013135 347.016911,-0.719147155 352.664662,5.26709416 C358.310544,11.2551934 358.007886,20.6600207 351.988352,26.2765345 C341.823148,35.7686843 334.641555,47.4011663 330.359503,61.0253462 C322.096188,87.1385124 326.912563,112.724027 327.960657,117.586223 C329.950354,126.810831 322.890199,135.572816 313.33218,135.572816 L313.33218,135.572816 Z" id="Path" fill="#FFAA64"></path>
                <path d="M567.331969,135.572816 C560.436303,135.572816 554.23749,130.799801 552.733558,123.825142 C550.870925,115.191355 545.589416,84.5058296 555.836701,52.127733 C561.49933,34.1132712 571.238454,17.9270098 585.537947,4.59452452 C591.55741,-1.02013135 601.016298,-0.719147155 606.663981,5.26709416 C612.311664,11.2533355 612.007142,20.6600207 605.987679,26.2765345 C595.822597,35.7686843 588.64109,47.4011663 584.359089,61.0253462 C576.095873,87.1385124 580.91219,112.724027 581.960272,117.586223 C583.949945,126.810831 576.889874,135.572816 567.331969,135.572816 L567.331969,135.572816 Z" id="Path" fill="#FFAA64"></path>
                <g id="Group" transform="translate(265.708738, 48.572816)" fill="#E84857">
                    <path d="M3.95749255,69.0276292 C-1.64053645,62.9539736 -1.25336906,53.4911099 4.82534603,47.8960187 C10.9021907,42.302797 20.3700233,42.6878918 25.9680523,48.7634168 C27.1632212,50.0589056 33.6328444,56.551305 43.6225113,57.003698 C54.8185693,57.5402136 62.3580464,50.1486365 63.7496045,48.6662084 C69.4018744,42.6392876 78.8715773,42.3383155 84.8997923,47.9838802 C90.9298777,53.6331837 91.2347486,63.0979168 85.5824788,69.1248376 C62.9546956,93.2418675 25.5827553,92.4922411 3.95749255,69.0276292 Z" id="Path"></path>
                    <path d="M300.35377,86.9364073 C292.309292,86.9364073 285.663853,80.5486938 285.407612,72.4542252 C285.14576,64.1989889 291.630346,57.2953232 299.891788,57.0336082 C310.102159,56.7102034 316.852338,50.0252566 318.101748,48.6867717 C323.744666,42.650504 333.212498,42.3289685 339.250065,47.9651863 C345.289502,53.6032734 345.613077,63.0661372 339.972029,69.1042742 C330.206807,79.5466996 314.71263,86.9364073 300.35377,86.9364073 L300.35377,86.9364073 Z" id="Path"></path>
                    <path d="M249.273859,222 L223.079273,222 C248.87547,145.212842 246.058687,39.5174025 171.980659,9.30054559 C187.9948,2.72776231 205.585666,0.110613106 223.026903,0 C227.059429,-0.0258525314 230.961029,1.55939213 233.775941,4.44573382 C278.14121,49.956089 283.769165,134.862017 263.729979,210.936936 C262.009235,217.476071 256.039002,222 249.273859,222 Z" id="Path"></path>
                </g>
                <path d="M837.482434,270.637741 C865.837569,272.485322 863.711447,315.092846 835.29482,315.092846 L75.2441525,315.092846 C58.7774161,315.092846 45.4299867,328.38022 45.4299867,344.772866 L45.4299867,361.258262 C45.4299867,390.151762 0.708737864,391.786018 0.708737864,361.467877 L0.708737864,300.252836 C0.708737864,283.86019 14.0561672,270.572816 30.5229037,270.572816 C30.5229037,270.572816 836.828386,270.595076 837.482434,270.637741 Z" id="Path" fill="#EEF7FF"></path>
                <polygon id="Path" fill="#FFBD7B" points="777.708738 510.572816 756.8371 608.572816 110.599011 608.572816 89.7087379 510.572816"></polygon>
                <path d="M63.7087379,392.572816 C66.9551924,407.823836 69.8456924,421.444948 72.456647,433.753181 C73.9196015,440.645792 80.000647,445.572816 87.0396015,445.572816 L778.361102,445.572816 C785.398192,445.572816 791.477374,440.649522 792.944056,433.760641 C795.56992,421.416975 798.486511,407.738051 801.708738,392.572816 L63.7087379,392.572816 Z" id="Path" fill="#FAA157"></path>
                <polygon id="Path" fill="#FFD3A6" points="624.708738 742.572816 502.708738 742.572816 502.708738 392.572816 624.708738 392.572816"></polygon>
                <polygon id="Path" fill="#FFD3A6" points="361.708738 742.572816 239.708738 742.572816 239.708738 392.572816 361.708738 392.572816"></polygon>
                <path d="M624.708738,392.572816 L624.708738,430.653744 C624.708738,438.892801 617.985599,445.572816 609.693353,445.572816 L517.724122,445.572816 C509.431876,445.572816 502.708738,438.892801 502.708738,430.653744 L502.708738,392.572816 L624.708738,392.572816 Z" id="Path" fill="#FFBD7B"></path>
                <path d="M361.708738,392.572816 L361.708738,430.653744 C361.708738,438.892801 354.985599,445.572816 346.693353,445.572816 L254.724122,445.572816 C246.431876,445.572816 239.708738,438.892801 239.708738,430.653744 L239.708738,392.572816 L361.708738,392.572816 Z" id="Path" fill="#FFBD7B"></path>
            </g>
        </g>
        <g id="AppIcon_FG-2" transform="translate(-81.000000, -52.000000)"></g>
    </g>
</svg>