<svg width="1418" height="1418" viewBox="0 0 1418 1418" xmlns="http://www.w3.org/2000/svg" xmlns:xlink="http://www.w3.org/1999/xlink">
    <g id="Group">
        <path id="Path" fill="#f9e231" stroke="none" d="M 245.733337 2.666626 C 242.266663 5.06665 234.133331 18 226.933334 32 C 214.800003 56.400024 206.53334 79.06665 195.46666 118.666626 C 150 281.866699 133.066666 404.799988 143.333328 497.333313 C 155.066666 602.666687 203.333328 695.599976 284.666656 769.06665 C 345.066681 823.599976 417.600006 857.06665 495.200012 866.133362 C 516.133362 868.533325 554.533325 866.93335 573.466675 862.93335 C 631.466675 850.400024 679.599976 818 720.799988 763.866638 C 748.533325 727.599976 765.333313 688.133362 772.93335 641.333313 C 776.266663 620.93335 776.133362 576.666687 772.799988 555.333313 C 762.93335 492.266663 735.866638 439.733337 689.06665 392.800049 C 647.733337 351.333374 602.93335 324.93335 552.133362 312 C 501.733337 299.199951 447.733337 300.800049 399.333344 316.266724 C 346.133331 333.333374 309.333344 356.93335 277.600006 394.266663 C 264.933319 409.333313 259.866669 417.200012 254.800003 429.466675 C 247.46666 447.466675 242.800003 456.666687 241.333328 456.666687 C 238.933334 456.666687 227.066666 437.06665 222.666672 425.866638 C 203.866669 377.199951 203.46666 290.400024 221.333328 178.133301 C 227.866669 137.06665 231.733337 120.133301 245.600006 73.333374 C 254.399994 43.199951 258.666656 24.533325 258.799988 14.133301 C 258.933319 6.666626 258.533325 5.06665 256 3.06665 C 252.399994 0.133301 249.46666 0 245.733337 2.666626 Z M 452.666656 376.666626 C 471.866669 380.666626 487.466675 386.266724 508.799988 396.799988 C 547.200012 415.599976 586.666687 445.599976 626 486.133362 C 679.733337 541.599976 710.266663 601.06665 715.466675 660.799988 C 719.866638 711.06665 689.200012 766 641.06665 794.133362 C 598.533325 818.93335 543.333313 816.400024 480.399994 786.666687 C 438.533325 766.799988 407.066681 743.733337 365.866669 702.666687 C 312.933319 649.733337 281.466675 605.200012 266.266663 561.333313 C 260 543.06665 258.266663 531.06665 258.933319 510.400024 C 259.466675 495.866638 260.266663 491.466675 263.733337 480.666687 C 269.200012 464.266663 278 448.799988 290.799988 433.466675 C 310.133331 410.400024 334.399994 392.533325 360.799988 382.266724 C 367.200012 379.733276 388.933319 374.666626 398.666656 373.466675 C 409.333344 372.133301 439.733337 374 452.666656 376.666626 Z"/>
        <path id="path1" fill="#f9e231" stroke="none" d="M 1163.06665 544.133362 C 1159.866699 547.333313 1159.733276 548 1160.666626 556.266663 C 1161.866699 567.866638 1166.133301 584.93335 1178.133301 627.06665 C 1188.93335 664.799988 1191.333374 675.599976 1196.533325 706.666687 C 1216.533325 827.06665 1216.533325 917.599976 1196.666626 966.93335 C 1192.400024 977.733337 1180.93335 996.666626 1178.666626 996.666626 C 1176.666626 996.666626 1174.533325 992.799988 1167.599976 975.733337 C 1159.599976 956.266663 1153.866699 947.466675 1136.266724 928 C 1112.133301 901.200012 1087.466675 883.466675 1053.333374 868.533325 C 1013.466675 851.200012 981.200012 844.266663 938.666687 844.133362 C 901.333313 844 875.333313 848.133362 843.333313 859.333313 C 772.666687 884 704.799988 945.733337 671.599976 1015.333374 C 653.466675 1053.199951 645.866638 1085.466675 644.400024 1130 C 641.866638 1208.400024 668 1275.06665 724 1333.199951 C 759.866638 1370.400024 800.666687 1393.466675 848.666687 1403.599976 C 861.733337 1406.266724 866.93335 1406.666626 895.333313 1406.666626 C 924.93335 1406.666626 928.799988 1406.400024 947.333313 1402.800049 C 985.466675 1395.599976 1011.200012 1387.06665 1044.666626 1370.666626 C 1084 1351.466675 1118.133301 1326.800049 1152 1292.800049 C 1196.266724 1248.400024 1228.400024 1200.266602 1249.199951 1147.333374 C 1286.400024 1052.93335 1288.93335 953.200012 1258.533325 800 C 1246 736.93335 1219.599976 636.400024 1207.199951 604.666687 C 1195.466675 574.666687 1179.199951 545.200012 1172.666626 542.266663 C 1167.866699 540 1166.93335 540.266663 1163.06665 544.133362 Z M 1027.866699 914.799988 C 1073.599976 921.466675 1114.133301 948.533325 1141.599976 990.666626 C 1168.400024 1031.733398 1168.266724 1076.93335 1141.199951 1130.133301 C 1117.866699 1175.866699 1063.599976 1239.866699 1014.666687 1279.199951 C 973.333313 1312.533325 923.06665 1338 879.866638 1347.466675 C 862.133362 1351.466675 828.666687 1351.866699 814.400024 1348.266724 C 788.799988 1341.866699 766.93335 1329.199951 747.333313 1309.466675 C 727.06665 1289.06665 714.133362 1266.533325 707.599976 1240.666626 C 703.599976 1224.666626 703.733337 1194.93335 707.866638 1175.733398 C 720.133362 1118 752.133362 1066 809.06665 1011.06665 C 885.599976 937.466675 960 904.799988 1027.866699 914.799988 Z"/>
    </g>
</svg>
