<?xml version="1.0" standalone="no"?>
<!DOCTYPE svg PUBLIC "-//W3C//DTD SVG 20010904//EN"
 "http://www.w3.org/TR/2001/REC-SVG-20010904/DTD/svg10.dtd">
<svg version="1.0" xmlns="http://www.w3.org/2000/svg"
 width="1064.000000pt" height="1064.000000pt" viewBox="0 0 1064.000000 1064.000000"
 preserveAspectRatio="xMidYMid meet">
<metadata>
Created by potrace 1.14, written by Peter Selinger 2001-2017
</metadata>
<g transform="translate(0.000000,1064.000000) scale(0.100000,-0.100000)"
fill="#000000" stroke="none">
<path d="M1843 10615 c-26 -18 -87 -115 -141 -220 -91 -183 -153 -353 -236
-650 -341 -1224 -468 -2146 -391 -2840 88 -790 450 -1487 1060 -2038 453 -409
997 -660 1579 -728 157 -18 445 -6 587 24 435 94 796 337 1105 743 208 272
334 568 391 919 25 153 24 485 -1 645 -74 473 -277 867 -628 1219 -310 311
-646 509 -1027 606 -378 96 -783 84 -1146 -32 -399 -128 -675 -305 -913 -585
-95 -113 -133 -172 -171 -264 -55 -135 -90 -204 -101 -204 -18 0 -107 147
-140 231 -141 365 -144 1016 -10 1858 49 308 78 435 182 786 66 226 98 366 99
444 1 56 -2 68 -21 83 -27 22 -49 23 -77 3z m1552 -2805 c144 -30 261 -72 421
-151 288 -141 584 -366 879 -670 403 -416 632 -862 671 -1310 33 -377 -197
-789 -558 -1000 -319 -186 -733 -167 -1205 56 -314 149 -550 322 -859 630
-397 397 -633 731 -747 1060 -47 137 -60 227 -55 382 4 109 10 142 36 223 41
123 107 239 203 354 145 173 327 307 525 384 48 19 211 57 284 66 80 10 308
-4 405 -24z"/>
<path d="M8723 6554 c-24 -24 -25 -29 -18 -91 9 -87 41 -215 131 -531 81 -283
99 -364 138 -597 150 -903 150 -1582 1 -1952 -32 -81 -118 -223 -135 -223 -15
0 -31 29 -83 157 -60 146 -103 212 -235 358 -181 201 -366 334 -622 446 -299
130 -541 182 -860 183 -280 1 -475 -30 -715 -114 -530 -185 -1039 -648 -1288
-1170 -136 -284 -193 -526 -204 -860 -19 -588 177 -1088 597 -1524 269 -279
575 -452 935 -528 98 -20 137 -23 350 -23 222 0 251 2 390 29 286 54 479 118
730 241 295 144 551 329 805 584 332 333 573 694 729 1091 279 708 298 1456
70 2605 -94 473 -292 1227 -385 1465 -88 225 -210 446 -259 468 -36 17 -43 15
-72 -14z m-1014 -2780 c343 -50 647 -253 853 -569 201 -308 200 -647 -3 -1046
-175 -343 -582 -823 -949 -1118 -310 -250 -687 -441 -1011 -512 -133 -30 -384
-33 -491 -6 -192 48 -356 143 -503 291 -152 153 -249 322 -298 516 -30 120
-29 343 2 487 92 433 332 823 759 1235 574 552 1132 797 1641 722z"/>
</g>
</svg>
