<svg xmlns="http://www.w3.org/2000/svg" xmlns:xlink="http://www.w3.org/1999/xlink" viewBox="0 0 4680 3120"><defs><style>.cls-1{fill:#ffb831;}.cls-2{fill:#180031;}.cls-3{fill:#fc89b3;}.cls-4{fill:#602f9c;}.cls-5{fill:#ddd1ff;}.cls-6{fill:#ffb8ac;}.cls-7{fill:#fccdc3;}.cls-8{fill:#ffbf40;}.cls-38,.cls-9{fill:#fff;}.cls-9{opacity:0;}.cls-10{opacity:0.72;}.cls-11{fill:#e0d8ff;}.cls-12{fill:#baa9ff;}.cls-13{fill:#a992fc;}.cls-14{opacity:0.53;}.cls-15{fill:#936ff7;}.cls-16{fill:#7e59ce;}.cls-17{fill:#f42583;}.cls-18{opacity:0.4;}.cls-19{fill:#56098d;}.cls-20{opacity:0.65;}.cls-21{clip-path:url(#clip-path);}.cls-22{fill:#ffef2c;}.cls-23{clip-path:url(#clip-path-2);}.cls-24{opacity:0.29;}.cls-25{fill:#88098d;}.cls-26{opacity:0.54;}.cls-27{clip-path:url(#clip-path-3);}.cls-28{clip-path:url(#clip-path-4);}.cls-29{fill:#ff73ac;}.cls-30{fill:#4d1886;}.cls-31{opacity:0.74;}.cls-32{fill:#13094c;}.cls-33{clip-path:url(#clip-path-5);}.cls-34{clip-path:url(#clip-path-6);}.cls-35{opacity:0.42;}.cls-36{opacity:0.47;}.cls-37{fill:#fca71f;}.cls-39{opacity:0.71;}.cls-40{fill:#fc7124;}.cls-41{clip-path:url(#clip-path-7);}.cls-42{fill:#ff9289;}.cls-43{clip-path:url(#clip-path-8);}.cls-44{fill:#180130;}.cls-45{clip-path:url(#clip-path-9);}.cls-46{fill:#ff8b99;}.cls-47{clip-path:url(#clip-path-10);}.cls-48{fill:#ff8436;}.cls-49{fill:#07000f;}.cls-50{fill:#c91060;}.cls-51{clip-path:url(#clip-path-11);}.cls-52{fill:#e92976;}.cls-53{opacity:0.49;}.cls-54{fill:#fcb6d2;}.cls-55{clip-path:url(#clip-path-12);}</style><clipPath id="clip-path"><path class="cls-1" d="M3010.52,791S3468,773.12,3273.38,536.55C3088.52,311.79,3010.52,791,3010.52,791Zm11.9-6c225.26-322.63,219-175.47,219-175.47s-1,3.33-1.62,4.91C3213.25,682.3,3065.66,762.6,3022.42,785Z"/></clipPath><clipPath id="clip-path-2"><path class="cls-1" d="M2901.07,448.94c-280.31,91.58,107.79,344.43,107.79,344.43S3167.39,361.94,2901.07,448.94Zm-7.63,81c.21-1.61.92-4.85.92-4.85s64-123.26,107,257.2C2974.46,741.51,2884.41,599.14,2893.44,529.91Z"/></clipPath><clipPath id="clip-path-3"><path class="cls-4" d="M1912.55,1051.11c-242.66,362.26,470.26,284.15,470.26,284.15S2143.1,706.94,1912.55,1051.11Zm71.31,97.4c-1.35-2-3.72-6.26-3.72-6.26s-46.2-196.9,382.74,187.54C2290.38,1309.34,2041.85,1234.1,1983.86,1148.51Z"/></clipPath><clipPath id="clip-path-4"><path class="cls-4" d="M2332.88,1332.7s712,85.71,473.27-279.12C2579.29,707,2332.88,1332.7,2332.88,1332.7Zm20-5.26c433-379.84,384.73-183.45,384.73-183.45s-2.42,4.25-3.79,6.22C2674.9,1235.18,2425.59,1307.76,2352.86,1327.44Z"/></clipPath><clipPath id="clip-path-5"><path class="cls-5" d="M2963.78,1617.47s357.06,51,235.52-185.55C3083.84,1207.19,2963.78,1617.47,2963.78,1617.47Zm10-3.57c214.82-251,191.68-122.47,191.68-122.47s-1.19,2.79-1.86,4.09C3134.55,1551.41,3010.08,1600.54,2973.77,1613.9Z"/></clipPath><clipPath id="clip-path-6"><path class="cls-5" d="M2751.77,1433.54c-119.59,238.22,237,182.25,237,182.25S2865.38,1207.2,2751.77,1433.54Zm36.23,63.09c-.68-1.29-1.9-4.06-1.9-4.06s-24.18-128.24,192.68,119.79C2942.36,1599.51,2817.5,1552.12,2788,1496.63Z"/></clipPath><clipPath id="clip-path-7"><path class="cls-6" d="M2381,2130.54l30.13,416.05s-29.23,49.29-69,83.36a171.27,171.27,0,0,1-21.87,15.73c-4.26,2.62-9.67,7-7,11.14,4.23,6.5,29.6,9.21,58.15,0s53.92-37.38,53.92-37.38,15.86-18.42,24.32,29.25c0,0,6.87-47.67,5.81-64.46s-6.34-24.38-7.93-36.84,22.74-178.24,22.74-178.24l-19-234Z"/></clipPath><clipPath id="clip-path-8"><path class="cls-7" d="M2421.09,2138.9,2482,2558.22s-18.64,82.89-17.58,106.73,21.68,49.3,34.36,50.92,32.78-32,34.37-56.88-19-102.39-19-102.39l6.38-272.48s-.79-67.45-15.86-104Z"/></clipPath><clipPath id="clip-path-9"><path class="cls-7" d="M2408.65,1038.88s-16.22-4.05-27.16,14.19-32,65.68-34.47,96.9,12.57,49.06,54.74,36.9c0,0,3.24,17-1.22,47.43h62s-20.83-46.77-12.57-89.23a1.74,1.74,0,0,1,2.25-1.32c5.38,1.76,23.16,4.87,25.59-10.59,1-6.63-1.62-15.89-19-15.83C2444.46,1117.39,2379.05,1093.62,2408.65,1038.88Z"/></clipPath><clipPath id="clip-path-10"><path class="cls-8" d="M2391.62,1215.11l3,28.11s-5.2.54-4.66,2.7a55.21,55.21,0,0,0,2.31,6.22l-83.2,33.25s-12.16,7.29-16.41,19.46-48.61,160-48.61,160-1.94-5.9-3.83-5.9-3.78,5.9-3.78,5.9l-75.41-129.15-24.33,43,77.21,168.5s6.91,14.44,19.35,16.58c11.76,2,24.53-15.2,24.53-15.2l53.92-75.41,36.14,111.84,163.47,13.19L2560.69,1285s-61.22-21.89-66.49-24.73c-4.1-2.21-18.23-14.44-24.33-19.8a7.77,7.77,0,0,1-2.63-6.26l1.53-27.2Z"/></clipPath><clipPath id="clip-path-11"><path class="cls-2" d="M2365.56,1136.4l29.1,2s-8.72,34.46-25.34,30.4C2369.32,1168.82,2355.51,1166.21,2365.56,1136.4Z"/></clipPath><clipPath id="clip-path-12"><path class="cls-3" d="M3422.57,2502.22h-77a14.75,14.75,0,0,1-14.66-13.12l-10.19-91.57h126.68l-10.19,91.57A14.75,14.75,0,0,1,3422.57,2502.22Z"/></clipPath></defs><title>04</title><g id="_04" data-name="04"><rect id="_04-2" data-name="04" class="cls-9" width="4680" height="3120"/><g class="cls-10"><path class="cls-11" d="M1319,1831.27l-71.23,70.19a27.27,27.27,0,0,0-8.12,19.41v483.86h80.88a2.18,2.18,0,0,0,2.18-2.19V1832.83A2.18,2.18,0,0,0,1319,1831.27Z"/><path class="cls-11" d="M1397.62,1917.53l-53.13-19.42a2.82,2.82,0,0,0-3.79,2.65v504h59.74V1921.56A4.29,4.29,0,0,0,1397.62,1917.53Z"/><rect class="cls-11" x="1410.21" y="1874.9" width="52.29" height="529.82"/><path class="cls-11" d="M1855.06,1828.47,1745,1784.32a6,6,0,0,0-8.21,5.56v614.85h123.68V1836.48A8.62,8.62,0,0,0,1855.06,1828.47Z"/><path class="cls-11" d="M1928,1911.44l-44.77-12.92a1.56,1.56,0,0,0-2,1.5v504.71h52.53V1919.1A8,8,0,0,0,1928,1911.44Z"/><path class="cls-11" d="M2026.35,1843.52l-75.07,22.62a6.92,6.92,0,0,0-4.93,6.63v532h84.49V1846.85A3.48,3.48,0,0,0,2026.35,1843.52Z"/><path class="cls-11" d="M1545.6,1982.15l-51.55-17.83a4.61,4.61,0,0,0-6.12,4.36v436.05H1551V1989.79A8.09,8.09,0,0,0,1545.6,1982.15Z"/><rect class="cls-12" x="1285.09" y="2091.35" width="234.64" height="313.38"/><rect class="cls-13" x="1354.21" y="2111.36" width="165.52" height="10.91"/><rect class="cls-13" x="1302.36" y="2126.62" width="27.01" height="10.91"/><rect class="cls-13" x="1318.12" y="2111.36" width="27.01" height="10.91"/><rect class="cls-13" x="1354.1" y="2237.13" width="165.52" height="10.91"/><rect class="cls-13" x="1318.02" y="2237.13" width="27.01" height="10.91"/><rect class="cls-13" x="1354.64" y="2347.3" width="165.52" height="10.91"/><rect class="cls-13" x="1318.55" y="2347.3" width="27.01" height="10.91"/><rect class="cls-13" x="1340.7" y="2126.62" width="16.86" height="10.91"/><rect class="cls-13" x="1364.17" y="2126.62" width="135.32" height="10.91"/><rect class="cls-13" x="1302.36" y="2254.03" width="27.01" height="10.91"/><rect class="cls-13" x="1340.7" y="2254.03" width="16.86" height="10.91"/><rect class="cls-13" x="1364.17" y="2254.03" width="135.32" height="10.91"/><rect class="cls-13" x="1322.68" y="2289.88" width="27.01" height="10.91"/><rect class="cls-13" x="1361.03" y="2289.88" width="16.86" height="10.91"/><rect class="cls-13" x="1384.49" y="2289.88" width="135.32" height="10.91"/><rect class="cls-13" x="1384.86" y="2141.88" width="31.16" height="10.91"/><rect class="cls-13" x="1315.86" y="2141.88" width="63.89" height="10.91"/><rect class="cls-13" x="1285.57" y="2172.4" width="63.89" height="10.91"/><rect class="cls-13" x="1421.25" y="2141.88" width="20.01" height="10.91"/><rect class="cls-13" x="1458.55" y="2157.14" width="20.01" height="10.91"/><rect class="cls-13" x="1448.54" y="2141.88" width="71.19" height="10.91"/><rect class="cls-13" x="1373.82" y="2327.24" width="31.16" height="10.91"/><rect class="cls-13" x="1304.83" y="2327.24" width="63.89" height="10.91"/><rect class="cls-13" x="1410.21" y="2327.24" width="20.01" height="10.91"/><rect class="cls-13" x="1437.51" y="2327.24" width="71.19" height="10.91"/><rect class="cls-13" x="1285.09" y="2157.14" width="165.52" height="10.91"/><rect class="cls-13" x="1458.55" y="2273.3" width="20.01" height="10.91"/><rect class="cls-13" x="1285.09" y="2273.3" width="165.52" height="10.91"/><rect class="cls-13" x="1354.21" y="2172.4" width="165.52" height="10.91"/><rect class="cls-13" x="1285.33" y="2309.48" width="63.89" height="10.91"/><rect class="cls-13" x="1353.97" y="2309.48" width="165.52" height="10.91"/><rect class="cls-13" x="1285.33" y="2385.12" width="63.89" height="10.91"/><rect class="cls-13" x="1353.97" y="2385.12" width="165.52" height="10.91"/><rect class="cls-13" x="1293.03" y="2187.66" width="165.52" height="10.91"/><rect class="cls-13" x="1296.99" y="2367.37" width="165.52" height="10.91"/><rect class="cls-13" x="1354.21" y="2202.93" width="165.52" height="10.91"/><rect class="cls-13" x="1285.09" y="2218.19" width="165.52" height="10.91"/><rect class="cls-12" x="1817.01" y="1984.04" width="169.4" height="420.69"/><rect class="cls-13" x="1866.91" y="2010.9" width="119.5" height="14.65"/><rect class="cls-13" x="1829.48" y="2031.38" width="19.5" height="14.65"/><rect class="cls-13" x="1840.86" y="2010.9" width="19.5" height="14.65"/><rect class="cls-13" x="1866.84" y="2179.73" width="119.5" height="14.65"/><rect class="cls-13" x="1840.78" y="2179.73" width="19.5" height="14.65"/><rect class="cls-13" x="1867.22" y="2327.64" width="119.5" height="14.65"/><rect class="cls-13" x="1841.17" y="2327.64" width="19.5" height="14.65"/><rect class="cls-13" x="1857.16" y="2031.38" width="12.17" height="14.65"/><rect class="cls-13" x="1874.1" y="2031.38" width="97.69" height="14.65"/><rect class="cls-13" x="1829.48" y="2202.43" width="19.5" height="14.65"/><rect class="cls-13" x="1857.16" y="2202.43" width="12.17" height="14.65"/><rect class="cls-13" x="1874.1" y="2202.43" width="97.69" height="14.65"/><rect class="cls-13" x="1844.15" y="2250.55" width="19.5" height="14.65"/><rect class="cls-13" x="1871.84" y="2250.55" width="12.17" height="14.65"/><rect class="cls-13" x="1888.78" y="2250.55" width="97.69" height="14.65"/><rect class="cls-13" x="1889.04" y="2051.87" width="22.5" height="14.65"/><rect class="cls-13" x="1839.23" y="2051.87" width="46.12" height="14.65"/><rect class="cls-13" x="1817.36" y="2092.85" width="46.12" height="14.65"/><rect class="cls-13" x="1915.31" y="2051.87" width="14.45" height="14.65"/><rect class="cls-13" x="1942.24" y="2072.36" width="14.45" height="14.65"/><rect class="cls-13" x="1935.01" y="2051.87" width="51.4" height="14.65"/><rect class="cls-13" x="1881.07" y="2300.7" width="22.5" height="14.65"/><rect class="cls-13" x="1831.26" y="2300.7" width="46.12" height="14.65"/><rect class="cls-13" x="1907.35" y="2300.7" width="14.45" height="14.65"/><rect class="cls-13" x="1927.05" y="2300.7" width="51.4" height="14.65"/><rect class="cls-13" x="1817.01" y="2072.36" width="119.5" height="14.65"/><rect class="cls-13" x="1942.24" y="2228.3" width="14.45" height="14.65"/><rect class="cls-13" x="1817.01" y="2228.3" width="119.5" height="14.65"/><rect class="cls-13" x="1866.91" y="2092.85" width="119.5" height="14.65"/><rect class="cls-13" x="1817.19" y="2276.87" width="46.12" height="14.65"/><rect class="cls-13" x="1866.74" y="2276.87" width="119.5" height="14.65"/><rect class="cls-13" x="1817.19" y="2378.41" width="46.12" height="14.65"/><rect class="cls-13" x="1866.74" y="2378.41" width="119.5" height="14.65"/><rect class="cls-13" x="1822.74" y="2113.33" width="119.5" height="14.65"/><rect class="cls-13" x="1825.6" y="2354.57" width="119.5" height="14.65"/><rect class="cls-13" x="1866.91" y="2133.82" width="119.5" height="14.65"/><rect class="cls-13" x="1817.01" y="2154.31" width="119.5" height="14.65"/><path class="cls-11" d="M2195,1831.27l-71.23,70.19a27.27,27.27,0,0,0-8.12,19.41v483.86h80.88a2.19,2.19,0,0,0,2.19-2.19V1832.83A2.19,2.19,0,0,0,2195,1831.27Z"/><path class="cls-11" d="M2273.69,1917.53l-53.13-19.42a2.81,2.81,0,0,0-3.78,2.65v504h59.73V1921.56A4.28,4.28,0,0,0,2273.69,1917.53Z"/><rect class="cls-11" x="2286.29" y="1874.9" width="52.29" height="529.82"/><path class="cls-11" d="M2731.13,1828.47l-110.06-44.15a6,6,0,0,0-8.21,5.56v614.85h123.68V1836.48A8.62,8.62,0,0,0,2731.13,1828.47Z"/><path class="cls-11" d="M2804,1911.44l-44.77-12.92a1.56,1.56,0,0,0-2,1.5v504.71h52.53V1919.1A8,8,0,0,0,2804,1911.44Z"/><path class="cls-11" d="M2902.42,1843.52l-75.07,22.62a6.92,6.92,0,0,0-4.93,6.63v532h84.49V1846.85A3.48,3.48,0,0,0,2902.42,1843.52Z"/><path class="cls-11" d="M2421.67,1982.15l-51.55-17.83a4.61,4.61,0,0,0-6.11,4.36v436.05h63.11V1989.79A8.1,8.1,0,0,0,2421.67,1982.15Z"/><rect class="cls-12" x="2692.88" y="2137.53" width="200.06" height="267.19"/><rect class="cls-13" x="2751.81" y="2154.59" width="141.13" height="9.31"/><rect class="cls-13" x="2707.6" y="2167.61" width="23.03" height="9.3"/><rect class="cls-13" x="2721.04" y="2154.59" width="23.03" height="9.31"/><rect class="cls-13" x="2751.72" y="2261.83" width="141.13" height="9.31"/><rect class="cls-13" x="2720.95" y="2261.83" width="23.03" height="9.31"/><rect class="cls-13" x="2752.17" y="2355.77" width="141.13" height="9.3"/><rect class="cls-13" x="2721.41" y="2355.77" width="23.03" height="9.3"/><rect class="cls-13" x="2740.29" y="2167.61" width="14.38" height="9.3"/><rect class="cls-13" x="2760.3" y="2167.61" width="115.37" height="9.3"/><rect class="cls-13" x="2707.6" y="2276.24" width="23.03" height="9.31"/><rect class="cls-13" x="2740.29" y="2276.24" width="14.38" height="9.31"/><rect class="cls-13" x="2760.3" y="2276.24" width="115.37" height="9.31"/><rect class="cls-13" x="2724.93" y="2306.8" width="23.03" height="9.31"/><rect class="cls-13" x="2757.62" y="2306.8" width="14.38" height="9.31"/><rect class="cls-13" x="2777.63" y="2306.8" width="115.37" height="9.31"/><rect class="cls-13" x="2777.94" y="2180.62" width="26.57" height="9.31"/><rect class="cls-13" x="2719.11" y="2180.62" width="54.47" height="9.31"/><rect class="cls-13" x="2693.29" y="2206.64" width="54.47" height="9.3"/><rect class="cls-13" x="2808.97" y="2180.62" width="17.06" height="9.31"/><rect class="cls-13" x="2840.77" y="2193.63" width="17.06" height="9.31"/><rect class="cls-13" x="2832.23" y="2180.62" width="60.7" height="9.31"/><rect class="cls-13" x="2768.53" y="2338.66" width="26.57" height="9.31"/><rect class="cls-13" x="2709.7" y="2338.66" width="54.47" height="9.31"/><rect class="cls-13" x="2799.56" y="2338.66" width="17.06" height="9.31"/><rect class="cls-13" x="2822.83" y="2338.66" width="60.7" height="9.31"/><rect class="cls-13" x="2692.88" y="2193.63" width="141.13" height="9.31"/><rect class="cls-13" x="2840.77" y="2292.67" width="17.06" height="9.3"/><rect class="cls-13" x="2692.88" y="2292.67" width="141.13" height="9.3"/><rect class="cls-13" x="2751.81" y="2206.64" width="141.13" height="9.3"/><rect class="cls-13" x="2693.08" y="2323.52" width="54.47" height="9.3"/><rect class="cls-13" x="2751.6" y="2323.52" width="141.13" height="9.3"/><rect class="cls-13" x="2693.08" y="2388.01" width="54.47" height="9.31"/><rect class="cls-13" x="2751.6" y="2388.01" width="141.13" height="9.31"/><rect class="cls-13" x="2699.64" y="2219.65" width="141.13" height="9.31"/><rect class="cls-13" x="2703.02" y="2372.87" width="141.13" height="9.3"/><rect class="cls-13" x="2751.81" y="2232.67" width="141.13" height="9.3"/><rect class="cls-13" x="2692.88" y="2245.68" width="141.13" height="9.31"/><rect class="cls-12" x="2131.92" y="1984.04" width="169.4" height="420.69"/><rect class="cls-13" x="2181.82" y="2010.9" width="119.5" height="14.65"/><rect class="cls-13" x="2144.39" y="2031.38" width="19.5" height="14.65"/><rect class="cls-13" x="2155.77" y="2010.9" width="19.5" height="14.65"/><rect class="cls-13" x="2181.75" y="2179.73" width="119.5" height="14.65"/><rect class="cls-13" x="2155.69" y="2179.73" width="19.5" height="14.65"/><rect class="cls-13" x="2182.13" y="2327.64" width="119.5" height="14.65"/><rect class="cls-13" x="2156.08" y="2327.64" width="19.5" height="14.65"/><rect class="cls-13" x="2172.07" y="2031.38" width="12.17" height="14.65"/><rect class="cls-13" x="2189.01" y="2031.38" width="97.69" height="14.65"/><rect class="cls-13" x="2144.39" y="2202.43" width="19.5" height="14.65"/><rect class="cls-13" x="2172.07" y="2202.43" width="12.17" height="14.65"/><rect class="cls-13" x="2189.01" y="2202.43" width="97.69" height="14.65"/><rect class="cls-13" x="2159.06" y="2250.55" width="19.5" height="14.65"/><rect class="cls-13" x="2186.75" y="2250.55" width="12.17" height="14.65"/><rect class="cls-13" x="2203.69" y="2250.55" width="97.69" height="14.65"/><rect class="cls-13" x="2203.95" y="2051.87" width="22.5" height="14.65"/><rect class="cls-13" x="2154.14" y="2051.87" width="46.12" height="14.65"/><rect class="cls-13" x="2132.27" y="2092.85" width="46.12" height="14.65"/><rect class="cls-13" x="2230.22" y="2051.87" width="14.45" height="14.65"/><rect class="cls-13" x="2257.15" y="2072.36" width="14.45" height="14.65"/><rect class="cls-13" x="2249.92" y="2051.87" width="51.4" height="14.65"/><rect class="cls-13" x="2195.98" y="2300.7" width="22.5" height="14.65"/><rect class="cls-13" x="2146.17" y="2300.7" width="46.12" height="14.65"/><rect class="cls-13" x="2222.26" y="2300.7" width="14.45" height="14.65"/><rect class="cls-13" x="2241.96" y="2300.7" width="51.4" height="14.65"/><rect class="cls-13" x="2131.92" y="2072.36" width="119.5" height="14.65"/><rect class="cls-13" x="2257.15" y="2228.3" width="14.45" height="14.65"/><rect class="cls-13" x="2131.92" y="2228.3" width="119.5" height="14.65"/><rect class="cls-13" x="2181.82" y="2092.85" width="119.5" height="14.65"/><rect class="cls-13" x="2132.1" y="2276.87" width="46.12" height="14.65"/><rect class="cls-13" x="2181.65" y="2276.87" width="119.5" height="14.65"/><rect class="cls-13" x="2132.1" y="2378.41" width="46.12" height="14.65"/><rect class="cls-13" x="2181.65" y="2378.41" width="119.5" height="14.65"/><rect class="cls-13" x="2137.65" y="2113.33" width="119.5" height="14.65"/><rect class="cls-13" x="2140.51" y="2354.57" width="119.5" height="14.65"/><rect class="cls-13" x="2181.82" y="2133.82" width="119.5" height="14.65"/><rect class="cls-13" x="2131.92" y="2154.31" width="119.5" height="14.65"/><rect class="cls-11" x="3317.91" y="1874.9" width="52.29" height="529.82"/><path class="cls-11" d="M3255.61,1784.32l-110.06,44.15a8.62,8.62,0,0,0-5.41,8v568.25h123.68V1789.88A6,6,0,0,0,3255.61,1784.32Z"/><path class="cls-11" d="M3117.43,1898.52l-44.77,12.92a8,8,0,0,0-5.76,7.66v485.63h52.53V1900A1.56,1.56,0,0,0,3117.43,1898.52Z"/><path class="cls-11" d="M3049.33,1866.14l-75.07-22.62a3.48,3.48,0,0,0-4.49,3.33v557.88h84.49v-532A6.92,6.92,0,0,0,3049.33,1866.14Z"/><path class="cls-11" d="M3506.56,1964.32,3455,1982.15a8.09,8.09,0,0,0-5.44,7.64v414.94h63.11v-436A4.61,4.61,0,0,0,3506.56,1964.32Z"/><rect class="cls-12" x="2915.43" y="2091.35" width="234.64" height="313.38"/><rect class="cls-13" x="2915.43" y="2111.36" width="165.52" height="10.91"/><rect class="cls-13" x="3105.8" y="2126.62" width="27.01" height="10.91"/><rect class="cls-13" x="3090.03" y="2111.36" width="27.01" height="10.91"/><rect class="cls-13" x="2915.54" y="2237.13" width="165.52" height="10.91"/><rect class="cls-13" x="3090.13" y="2237.13" width="27.01" height="10.91"/><rect class="cls-13" x="2915" y="2347.3" width="165.52" height="10.91"/><rect class="cls-13" x="3089.6" y="2347.3" width="27.01" height="10.91"/><rect class="cls-13" x="3077.6" y="2126.62" width="16.86" height="10.91"/><rect class="cls-13" x="2935.68" y="2126.62" width="135.32" height="10.91"/><rect class="cls-13" x="3105.8" y="2254.03" width="27.01" height="10.91"/><rect class="cls-13" x="3077.6" y="2254.03" width="16.86" height="10.91"/><rect class="cls-13" x="2935.68" y="2254.03" width="135.32" height="10.91"/><rect class="cls-13" x="3085.47" y="2289.88" width="27.01" height="10.91"/><rect class="cls-13" x="3057.27" y="2289.88" width="16.86" height="10.91"/><rect class="cls-13" x="2915.35" y="2289.88" width="135.32" height="10.91"/><rect class="cls-13" x="3019.14" y="2141.88" width="31.16" height="10.91"/><rect class="cls-13" x="3055.41" y="2141.88" width="63.89" height="10.91"/><rect class="cls-13" x="3085.7" y="2172.4" width="63.89" height="10.91"/><rect class="cls-13" x="2993.9" y="2141.88" width="20.01" height="10.91"/><rect class="cls-13" x="2956.6" y="2157.14" width="20.01" height="10.91"/><rect class="cls-13" x="2915.43" y="2141.88" width="71.19" height="10.91"/><rect class="cls-13" x="3030.17" y="2327.24" width="31.16" height="10.91"/><rect class="cls-13" x="3066.45" y="2327.24" width="63.89" height="10.91"/><rect class="cls-13" x="3004.93" y="2327.24" width="20.01" height="10.91"/><rect class="cls-13" x="2926.47" y="2327.24" width="71.19" height="10.91"/><rect class="cls-13" x="2984.55" y="2157.14" width="165.52" height="10.91"/><rect class="cls-13" x="2956.6" y="2273.3" width="20.01" height="10.91"/><rect class="cls-13" x="2984.55" y="2273.3" width="165.52" height="10.91"/><rect class="cls-13" x="2915.43" y="2172.4" width="165.52" height="10.91"/><rect class="cls-13" x="3085.94" y="2309.48" width="63.89" height="10.91"/><rect class="cls-13" x="2915.67" y="2309.48" width="165.52" height="10.91"/><rect class="cls-13" x="3085.94" y="2385.12" width="63.89" height="10.91"/><rect class="cls-13" x="2915.67" y="2385.12" width="165.52" height="10.91"/><rect class="cls-13" x="2976.62" y="2187.66" width="165.52" height="10.91"/><rect class="cls-13" x="2972.65" y="2367.37" width="165.52" height="10.91"/><rect class="cls-13" x="2915.43" y="2202.93" width="165.52" height="10.91"/><rect class="cls-13" x="2984.55" y="2218.19" width="165.52" height="10.91"/><rect class="cls-12" x="3295.27" y="1984.04" width="169.4" height="420.69"/><rect class="cls-13" x="3295.27" y="2010.9" width="119.5" height="14.65"/><rect class="cls-13" x="3432.7" y="2031.38" width="19.5" height="14.65"/><rect class="cls-13" x="3421.32" y="2010.9" width="19.5" height="14.65"/><rect class="cls-13" x="3295.34" y="2179.73" width="119.5" height="14.65"/><rect class="cls-13" x="3421.4" y="2179.73" width="19.5" height="14.65"/><rect class="cls-13" x="3294.96" y="2327.64" width="119.5" height="14.65"/><rect class="cls-13" x="3421.01" y="2327.64" width="19.5" height="14.65"/><rect class="cls-13" x="3412.34" y="2031.38" width="12.17" height="14.65"/><rect class="cls-13" x="3309.89" y="2031.38" width="97.69" height="14.65"/><rect class="cls-13" x="3432.7" y="2202.43" width="19.5" height="14.65"/><rect class="cls-13" x="3412.34" y="2202.43" width="12.17" height="14.65"/><rect class="cls-13" x="3309.89" y="2202.43" width="97.69" height="14.65"/><rect class="cls-13" x="3418.03" y="2250.55" width="19.5" height="14.65"/><rect class="cls-13" x="3397.67" y="2250.55" width="12.17" height="14.65"/><rect class="cls-13" x="3295.21" y="2250.55" width="97.69" height="14.65"/><rect class="cls-13" x="3370.14" y="2051.87" width="22.5" height="14.65"/><rect class="cls-13" x="3396.33" y="2051.87" width="46.12" height="14.65"/><rect class="cls-13" x="3418.2" y="2092.85" width="46.12" height="14.65"/><rect class="cls-13" x="3351.92" y="2051.87" width="14.45" height="14.65"/><rect class="cls-13" x="3324.99" y="2072.36" width="14.45" height="14.65"/><rect class="cls-13" x="3295.27" y="2051.87" width="51.4" height="14.65"/><rect class="cls-13" x="3378.11" y="2300.7" width="22.5" height="14.65"/><rect class="cls-13" x="3404.29" y="2300.7" width="46.12" height="14.65"/><rect class="cls-13" x="3359.89" y="2300.7" width="14.45" height="14.65"/><rect class="cls-13" x="3303.23" y="2300.7" width="51.4" height="14.65"/><rect class="cls-13" x="3345.17" y="2072.36" width="119.5" height="14.65"/><rect class="cls-13" x="3324.99" y="2228.3" width="14.45" height="14.65"/><rect class="cls-13" x="3345.17" y="2228.3" width="119.5" height="14.65"/><rect class="cls-13" x="3295.27" y="2092.85" width="119.5" height="14.65"/><rect class="cls-13" x="3418.37" y="2276.87" width="46.12" height="14.65"/><rect class="cls-13" x="3295.44" y="2276.87" width="119.5" height="14.65"/><rect class="cls-13" x="3418.37" y="2378.41" width="46.12" height="14.65"/><rect class="cls-13" x="3295.44" y="2378.41" width="119.5" height="14.65"/><rect class="cls-13" x="3339.44" y="2113.33" width="119.5" height="14.65"/><rect class="cls-13" x="3336.58" y="2354.57" width="119.5" height="14.65"/><rect class="cls-13" x="3295.27" y="2133.82" width="119.5" height="14.65"/><rect class="cls-13" x="3345.17" y="2154.31" width="119.5" height="14.65"/></g><g class="cls-14"><ellipse class="cls-5" cx="3384.08" cy="2502.22" rx="83.47" ry="31.19"/></g><g class="cls-14"><ellipse class="cls-5" cx="2323.26" cy="2656.67" rx="266.16" ry="103.33"/></g><rect class="cls-15" x="1091.62" y="2405.94" width="2567.43" height="3"/><polygon class="cls-5" points="1314.05 1245.48 1582.94 2039.05 1903.53 2085.45 2079.79 2036.14 2087.86 1111.12 1806.75 1023.41 1314.05 1245.48"/><polygon class="cls-16" points="1903.53 2085.45 2079.79 2036.14 2087.86 1111.12 1806.75 1023.41 1903.53 2085.45"/><polygon class="cls-3" points="1617.98 1247.49 1595.7 1118.54 1510.82 1156.79 1541.5 1279.26 1557.6 1300.68 1721.17 2059.06 1786.97 2068.58 1639.19 1279.36 1617.98 1247.49"/><polygon class="cls-17" points="1964.34 1179.83 1944.51 1214.96 1983.84 2062.98 2027.48 2050.77 2013.67 1205.85 2028.93 1184.66 2031.3 1093.47 1959.38 1071.03 1964.34 1179.83"/><g class="cls-18"><polygon class="cls-19" points="1348.13 1346.07 1351.04 1354.66 1825.63 1230.64 1820.43 1173.54 1348.13 1346.07"/></g><g class="cls-20"><polygon class="cls-19" points="1825.63 1230.64 2086.91 1196.19 2087.01 1185.19 1820.43 1173.54 1825.63 1230.64"/></g><path class="cls-1" d="M3010.52,791S3468,773.12,3273.38,536.55C3088.52,311.79,3010.52,791,3010.52,791Zm11.9-6c225.26-322.63,219-175.47,219-175.47s-1,3.33-1.62,4.91C3213.25,682.3,3065.66,762.6,3022.42,785Z"/><g class="cls-21"><path class="cls-22" d="M3222,489.57s49,45.06,17.84,124.82S3010.52,791,3010.52,791l410.4,2.83-33.8-284.62Z"/></g><path class="cls-1" d="M2901.07,448.94c-280.31,91.58,107.79,344.43,107.79,344.43S3167.39,361.94,2901.07,448.94Zm-7.63,81c.21-1.61.92-4.85.92-4.85s64-123.26,107,257.2C2974.46,741.51,2884.41,599.14,2893.44,529.91Z"/><g class="cls-23"><path class="cls-22" d="M2893.44,529.91c10.6-81.29,74.37-92.5,74.37-92.5l-152.42-70L2651.77,581.9l357.09,211.47S2882.84,611.21,2893.44,529.91Z"/></g><polygon class="cls-3" points="2601.89 737.46 2609.96 1662.48 2786.22 1711.79 3106.8 1665.39 3375.7 871.82 2883 649.75 2601.89 737.46"/><polygon class="cls-17" points="2609.96 1662.48 2786.22 1711.79 2883 649.75 2601.89 737.46 2609.96 1662.48"/><polygon class="cls-22" points="3071.77 873.83 3050.55 905.7 2902.78 1694.92 2968.58 1685.39 3132.15 927.02 3148.25 905.6 3178.93 783.13 3094.05 744.88 3071.77 873.83"/><polygon class="cls-1" points="2730.37 697.37 2658.45 719.81 2660.82 811 2676.08 832.18 2662.26 1677.11 2705.91 1689.32 2745.24 841.3 2725.4 806.17 2730.37 697.37"/><g class="cls-24"><polygon class="cls-25" points="2864.11 856.98 3338.7 981 3341.61 972.41 2869.32 799.88 2864.11 856.98"/></g><g class="cls-26"><polygon class="cls-25" points="2602.84 822.53 2864.11 856.98 2869.32 799.88 2602.74 811.53 2602.84 822.53"/></g><path class="cls-4" d="M1912.55,1051.11c-242.66,362.26,470.26,284.15,470.26,284.15S2143.1,706.94,1912.55,1051.11Zm71.31,97.4c-1.35-2-3.72-6.26-3.72-6.26s-46.2-196.9,382.74,187.54C2290.38,1309.34,2041.85,1234.1,1983.86,1148.51Z"/><g class="cls-27"><path class="cls-3" d="M1983.86,1148.51c-68.09-100.51-3.33-172.19-3.33-172.19l-250.93,63.32,18.28,391.11,634.93-95.49S2052,1249,1983.86,1148.51Z"/></g><path class="cls-4" d="M2332.88,1332.7s712,85.71,473.27-279.12C2579.29,707,2332.88,1332.7,2332.88,1332.7Zm20-5.26c433-379.84,384.73-183.45,384.73-183.45s-2.42,4.25-3.79,6.22C2674.9,1235.18,2425.59,1307.76,2352.86,1327.44Z"/><g class="cls-28"><path class="cls-29" d="M2733.8,1150.21c-69.17,99.78-400.92,182.49-400.92,182.49L2966.76,1435l22.45-390.89-250.24-66S2803,1050.44,2733.8,1150.21Z"/></g><polygon class="cls-15" points="1755.9 1383.06 1861.02 2110.87 2424.35 2182.67 2752.62 2114.98 2893.72 1422.67 2439.5 1261.99 1755.9 1383.06"/><polygon class="cls-30" points="2424.35 2182.67 2752.62 2114.98 2893.72 1422.67 2439.5 1261.99 2424.35 2182.67"/><polygon class="cls-3" points="2158.98 1486.62 2154.96 1312.39 2000.33 1339.77 2011.85 1498.6 2046.07 1537.85 2075.53 2138.21 2198.43 2153.88 2185.57 1531.52 2158.98 1486.62"/><polygon class="cls-29" points="2659.04 1503.78 2629.39 1540.32 2564.01 2153.88 2659.04 2134.28 2738.95 1551.67 2764.95 1522.71 2790.64 1386.21 2675.11 1345.34 2659.04 1503.78"/><g class="cls-20"><polygon class="cls-19" points="1780 1549.92 2435.25 1520.19 2436.18 1463.94 1776.04 1522.48 1780 1549.92"/></g><g class="cls-31"><polygon class="cls-32" points="2435.25 1520.19 2864.77 1564.71 2869.52 1541.41 2436.18 1463.94 2435.25 1520.19"/></g><path class="cls-5" d="M2963.78,1617.47s357.06,51,235.52-185.55C3083.84,1207.19,2963.78,1617.47,2963.78,1617.47Zm10-3.57c214.82-251,191.68-122.47,191.68-122.47s-1.19,2.79-1.86,4.09C3134.55,1551.41,3010.08,1600.54,2973.77,1613.9Z"/><g class="cls-33"><path class="cls-16" d="M3163.59,1495.52c-34.11,65.63-199.81,122-199.81,122l318,62.35,9.15-255.39-125.67-41.35S3197.69,1429.89,3163.59,1495.52Z"/></g><path class="cls-5" d="M2751.77,1433.54c-119.59,238.22,237,182.25,237,182.25S2865.38,1207.2,2751.77,1433.54Zm36.23,63.09c-.68-1.29-1.9-4.06-1.9-4.06s-24.18-128.24,192.68,119.79C2942.36,1599.51,2817.5,1552.12,2788,1496.63Z"/><g class="cls-34"><path class="cls-16" d="M2788,1496.63c-34.64-65.15-2.59-112.4-2.59-112.4l-125.32,43.09,11.24,255.25,317.46-66.78S2822.64,1561.79,2788,1496.63Z"/></g><polygon class="cls-5" points="2601.25 1674.22 2694.44 2123.43 2911.26 2167.35 3283.34 2120.76 3352.76 1648.51 2901.26 1569.96 2601.25 1674.22"/><polygon class="cls-4" points="2601.25 1674.22 2694.44 2123.43 2911.26 2167.35 2901.26 1569.96 2601.25 1674.22"/><polygon class="cls-16" points="3086.54 1715.71 3068.97 1744.84 3060.48 2148.67 3141.65 2138.5 3161.11 1748.95 3183.71 1723.48 3191.32 1620.42 3089.19 1602.65 3086.54 1715.71"/><polygon class="cls-30" points="2756.25 1726.84 2745.64 1624.04 2669.33 1650.56 2686.3 1739.13 2703.47 1757.92 2756.25 2135.95 2819.02 2148.67 2775.83 1750.55 2756.25 1726.84"/><g class="cls-35"><polygon class="cls-4" points="2904.06 1737.49 3336.84 1756.78 3339.46 1738.98 2903.45 1700.99 2904.06 1737.49"/></g><g class="cls-36"><polygon class="cls-32" points="2617.23 1751.26 2620.37 1766.38 2904.06 1737.49 2903.45 1700.99 2617.23 1751.26"/></g><polygon class="cls-37" points="1526 2155.89 1348.13 2323.93 1848.17 2323.93 1848.17 1987.85 1348.13 1987.85 1526 2155.89"/><polygon class="cls-37" points="2968.46 1987.85 2968.46 2323.93 3468.5 2323.93 3290.63 2155.89 3468.5 1987.85 2968.46 1987.85"/><rect class="cls-37" x="1677.87" y="1786.34" width="1457.08" height="432.59"/><path class="cls-4" d="M1977.49,2013.82h19.3q-.69,29.72-21.49,29.71-13,0-19-12.94t-6-40.45q0-29.57,5.27-42.78t17.87-13.2q7.39,0,11.63,4t9.17,12.8l39.56-16.29q-17.52-41.75-56.67-41.75-34.9,0-53,24.3T1906,1988.5q0,46.55,18.21,71.66t51.6,25.12q29.85,0,47-20.33T2040,2009v-30.66h-62.55Z"/><path class="cls-4" d="M2087.13,1896a21.08,21.08,0,1,0,14.92,35.94,21.05,21.05,0,0,0-14.92-35.94Z"/><rect class="cls-4" x="2067.28" y="1954.82" width="39.83" height="125.93"/><polygon class="cls-4" points="2181.58 2022.99 2181.03 2022.99 2165.29 1954.83 2126.42 1954.83 2165.29 2080.76 2197.6 2080.76 2236.75 1954.83 2197.32 1954.83 2181.58 2022.99"/><path class="cls-4" d="M2339.27,1982.2a50.15,50.15,0,0,0-18.75-23.06q-12.87-8.7-26.83-8.7-23.13,0-37.09,18t-14,47.85q0,32,14,50.23t37.91,18.21q38.32,0,47.91-42.44h-33.54a15.55,15.55,0,0,1-4.79,9.59,12.9,12.9,0,0,1-9,3.69q-14.79,0-15.61-28.06h66.39Q2345.17,1996.58,2339.27,1982.2ZM2280,2005.88q0-13.68,3.42-19.85t11.37-6.16a11,11,0,0,1,10.4,6.37q3.29,6.36,3.69,19.64Z"/><path class="cls-38" d="M2431.53,1970.57H2431q-7.12-10.41-13.69-15.13t-16-4.72q-17.66,0-28.47,17.93T2362,2016.83q0,31.49,10.67,49.83t28.61,18.34a26,26,0,0,0,15.95-5.06q6.78-5.07,14-15.74h.55v16.56h39.56V1954.82h-39.84ZM2417,2049.69q-16,0-16-32.58,0-31.35,15.47-31.35t15.33,31.35Q2431.81,2049.69,2417,2049.69Z"/><path class="cls-38" d="M2609.89,2003.15q-1.23,5.32-4.51,21.21h-.55l-13.42-69.54h-33.67l-13.41,70.77h-.55q-1.79-11.08-15.47-70.77H2489l38.73,125.94h29.71q15.33-58.32,16.56-67.9h.55q1.77,11.51,17.11,67.9h30l39-125.94h-39.29Z"/><path class="cls-38" d="M2740.48,1970.57h-.55q-7.11-10.41-13.68-15.13t-16-4.72q-17.66,0-28.47,17.93t-10.82,48.18q0,31.49,10.68,49.83t28.61,18.34a26,26,0,0,0,15.95-5.06q6.77-5.07,14-15.74h.55v16.56h39.56V1954.82h-39.84ZM2726,2049.69q-16,0-16-32.58,0-31.35,15.46-31.35t15.34,31.35Q2740.76,2049.69,2726,2049.69Z"/><path class="cls-38" d="M2862.45,1998.76q-2.05,6.85-5.21,22.59h-.68q-3.84-16.56-9-33.81l-10-32.72h-39.28l40.1,124.3-16.15,53.52h39.7l53.66-177.82h-39.84Z"/><polygon class="cls-2" points="1848.17 2323.93 1848.17 2218.92 1677.88 2218.92 1848.17 2323.93"/><polygon class="cls-2" points="2964.66 2323.93 3134.95 2218.92 2964.66 2218.92 2964.66 2323.93"/><g class="cls-39"><polygon class="cls-40" points="3134.95 2218.92 3134.95 2105.39 1677.88 2218.92 3134.95 2218.92"/><polygon class="cls-40" points="1677.88 1858.32 2290.67 1786.34 1677.88 1786.34 1677.88 1858.32"/><polygon class="cls-40" points="1677.88 1987.85 1669.55 2243.56 1848.17 2323.93 1677.88 2218.92 1677.88 1987.85"/><polygon class="cls-40" points="3134.95 2218.92 2964.66 2323.93 3143.28 2243.56 3134.95 1987.85 3134.95 2218.92"/></g><path class="cls-6" d="M2381,2130.54l30.13,416.05s-29.23,49.29-69,83.36a171.27,171.27,0,0,1-21.87,15.73c-4.26,2.62-9.67,7-7,11.14,4.23,6.5,29.6,9.21,58.15,0s53.92-37.38,53.92-37.38,15.86-18.42,24.32,29.25c0,0,6.87-47.67,5.81-64.46s-6.34-24.38-7.93-36.84,22.74-178.24,22.74-178.24l-19-234Z"/><g class="cls-41"><path class="cls-2" d="M2432.19,2578.81c-12.16,15.71-32.77,37.38-51.8,43.54s-29.87,0-29.87,0L2278.36,2659l56,29.79,111-21.67,14.8-29.25,4.76-79.1C2452.28,2555.51,2444.35,2563.1,2432.19,2578.81Z"/></g><path class="cls-42" d="M2381,2130.54l1.23,17.09s25.73,5.66,32.86,24.35,47.41,251.61,47.41,251.61l-18.86-280.86Z"/><path class="cls-2" d="M2514.21,2553.33v21.14l19,72.6s.44-35.21,0-56.34S2514.21,2553.33,2514.21,2553.33Z"/><path class="cls-7" d="M2421.09,2138.9,2482,2558.22s-18.64,82.89-17.58,106.73,21.68,49.3,34.36,50.92,32.78-32,34.37-56.88-19-102.39-19-102.39l6.38-272.48s-.79-67.45-15.86-104Z"/><g class="cls-43"><path class="cls-2" d="M2498.8,2672.53c-25.37,1.63-31-41.32-31-41.32l-19.22,46.2,37,58.51,47.86-35.76,14-67.72-18.69-12.09S2524.18,2670.91,2498.8,2672.53Z"/></g><path class="cls-44" d="M2503.39,1585.65l-153.51-6.36S2310,1692,2308.33,1704.67s69.54,430.68,69.54,430.68l130.61,58.15s61.91-486.1,57.67-501.55S2503.39,1585.65,2503.39,1585.65Z"/><path class="cls-2" d="M2553,1091.59c-4.58-.81-26.49-10.95-26.49-10.95l-7.85,10.95s31.08,8.11,34.34,8.11,15.66-6.49,20.55-12,15.87-56,15.87-56-17.79,47.11-19.68,51.16S2557.58,1092.4,2553,1091.59Z"/><path class="cls-2" d="M2568.66,987c-5.95-5.68-25.41-7-33.79-4.6s-21.89,13.25-25.4,18.92-7.84,40.82-7.84,40.82l12.16,31.85s25.41,1.93,45.41,1.7,27.3-32.74,28.92-39,4.59-15.68,1.62-20.54C2587.9,1013.17,2574.61,992.66,2568.66,987Z"/><path class="cls-2" d="M2517.57,1052.94c-3.78-3.79-27.83-25.14-33.24-29.73s-17.84-23.25-29.19-31.9-15.95-6.21-21.08-1.35c-4.42,4.19-15.34,18-18.3,21.75a1.91,1.91,0,0,1-1.93.68c-4.19-1-18.27-4.17-21.94-4.86-4.32-.81-19.19.81-29.11,20.81s6.14,49.47,6.14,49.47l76.76,84.59s34.33-9.73,45.68-12.7,29.46-24.87,32.16-33.79,3.52-46.48,3-50.07S2521.36,1056.72,2517.57,1052.94Z"/><path class="cls-7" d="M2408.65,1038.88s-16.22-4.05-27.16,14.19-32,65.68-34.47,96.9,12.57,49.06,54.74,36.9c0,0,3.24,17-1.22,47.43h62s-20.83-46.77-12.57-89.23a1.74,1.74,0,0,1,2.25-1.32c5.38,1.76,23.16,4.87,25.59-10.59,1-6.63-1.62-15.89-19-15.83C2444.46,1117.39,2379.05,1093.62,2408.65,1038.88Z"/><g class="cls-45"><path class="cls-42" d="M2393,1199.7l9.9,7.29,17.4-28.1c-5.94,3.79-18.51,8-18.51,8Z"/></g><path class="cls-46" d="M2422.64,1123.21c-6.94,1-12.07,5.25-11.45,9.45s6.74,6.78,13.68,5.76,12.07-5.24,11.45-9.44S2429.58,1122.2,2422.64,1123.21Z"/><path class="cls-8" d="M2391.62,1215.11l3,28.11s-5.2.54-4.66,2.7a55.21,55.21,0,0,0,2.31,6.22l-83.2,33.25s-12.16,7.29-16.41,19.46-48.61,160-48.61,160-1.94-5.9-3.83-5.9-3.78,5.9-3.78,5.9l-75.41-129.15-24.33,43,77.21,168.5s6.91,14.44,19.35,16.58c11.76,2,24.53-15.2,24.53-15.2l53.92-75.41,36.14,111.84,163.47,13.19L2560.69,1285s-61.22-21.89-66.49-24.73c-4.1-2.21-18.23-14.44-24.33-19.8a7.77,7.77,0,0,1-2.63-6.26l1.53-27.2Z"/><g class="cls-47"><path class="cls-48" d="M2287,1426.48c-3.24,11.35-3.7,49.23-12.39,70s-28.7,55.66-38.16,53.23-99.73-171.1-99.73-171.1l24.33,160.56,100,67.3,50.68-133.39s-14.19-46.22-15-52.3,30.41-62.44,30.41-62.44S2290.26,1415.12,2287,1426.48Z"/></g><path class="cls-2" d="M2408.65,1117.27c-33.52-26,0-78.39,0-78.39s-13.52,13-18.11,44.33,16.92,43.89,32.16,46.22c16,2.43,34.33-7,39.47-16C2462.17,1113.48,2435.64,1138.16,2408.65,1117.27Z"/><path class="cls-48" d="M2499.47,1317.82c-11.36,17.84-25.14,161-34.06,174.18s-144.37,9.86-144.37,9.86l140.24,37.33s61.7-54.49,61.7-56S2546.5,1285,2546.5,1285,2510.82,1300,2499.47,1317.82Z"/><path class="cls-42" d="M2461.31,1129.54c-5.31.78-9.24,4-8.77,7.24s5.16,5.19,10.48,4.42,9.24-4,8.77-7.24S2466.63,1128.77,2461.31,1129.54Z"/><path class="cls-2" d="M2453.79,1172.68l14.59-2.17s3.8-32.68-12.42-52.42C2456,1118.09,2464.06,1155.92,2453.79,1172.68Z"/><path class="cls-46" d="M2362.22,1094.74c-4.79-2.77-10-2.66-11.69.24s.85,7.48,5.64,10.24,10,2.66,11.69-.24S2367,1097.5,2362.22,1094.74Z"/><path class="cls-2" d="M2387.45,1089.5a.76.76,0,0,0-.89.59,35.64,35.64,0,0,1-20.18,23.15,2.6,2.6,0,0,0-1.45,3.17l3.54,11.08a.76.76,0,0,0,.72.53.57.57,0,0,0,.22,0,.74.74,0,0,0,.49-.94l-3.54-11.09a1.11,1.11,0,0,1,.62-1.34,37.18,37.18,0,0,0,21.05-24.22A.76.76,0,0,0,2387.45,1089.5Z"/><path class="cls-49" d="M2407,1090.24l-1.22,3.17s18.25-2.63,30.41,5.07l2.23-8.24S2422.64,1084.63,2407,1090.24Z"/><path class="cls-49" d="M2369.12,1065.84l-2,5.88c10.54,4.06,15.61,13.79,15.61,13.79l1.22-3.45C2380.07,1070.71,2369.12,1065.84,2369.12,1065.84Z"/><path class="cls-49" d="M2404,1105.58c13.17-3.86,22.05,1.42,22.05,1.42C2415,1093.52,2404,1105.58,2404,1105.58Z"/><path class="cls-49" d="M2365.56,1080.64s9.44,6.82,12.07,13.95C2377.63,1094.59,2380.06,1081.59,2365.56,1080.64Z"/><path class="cls-50" d="M2535.92,1005.69a37.5,37.5,0,0,0-5.89,5.72,47.48,47.48,0,0,0-4.53,6.82,57.89,57.89,0,0,0-5.49,15.23,59.18,59.18,0,0,0-1.35,16,128.82,128.82,0,0,1,3.61-15.38c.79-2.49,1.59-5,2.59-7.37a59.69,59.69,0,0,1,3.27-7,45.24,45.24,0,0,1,9.28-12.16,38,38,0,0,1,6.24-4.54,45.26,45.26,0,0,1,7.17-3.26,29.8,29.8,0,0,0-7.81,1.94A31.22,31.22,0,0,0,2535.92,1005.69Z"/><path class="cls-50" d="M2573.54,1005.63a47.65,47.65,0,0,0-3-9.45,74.76,74.76,0,0,1,1.53,9.67,68.21,68.21,0,0,1,.29,9.68,56.76,56.76,0,0,1-1.22,9.5c-.17.77-.4,1.54-.59,2.3l-.3,1.15-.39,1.12c-.27.74-.51,1.51-.8,2.22a22.09,22.09,0,0,1-1,2.08,22.71,22.71,0,0,1-2.54,3.88,31.33,31.33,0,0,1-3.19,3.44,47.4,47.4,0,0,1-7.6,5.75,89.74,89.74,0,0,1-17.7,8.13,56.72,56.72,0,0,0,9.65-2.24,58.17,58.17,0,0,0,9.2-3.86,43,43,0,0,0,8.36-5.69,29.68,29.68,0,0,0,3.56-3.7,26,26,0,0,0,2.91-4.3,25.47,25.47,0,0,0,1.1-2.37c.31-.81.55-1.61.83-2.42l.4-1.21.31-1.23c.19-.83.43-1.64.57-2.48a49.25,49.25,0,0,0,.78-10A54,54,0,0,0,2573.54,1005.63Z"/><path class="cls-50" d="M2554.46,1059.39a68.41,68.41,0,0,1-10.85,1.28c-3.68.13-7.39.06-11.17-.16a37.41,37.41,0,0,0,11.12,2.49,40.25,40.25,0,0,0,11.52-.68,30.35,30.35,0,0,0,10.75-4.43,23,23,0,0,0,7.72-8.47,37.83,37.83,0,0,1-8.91,6.45A41.63,41.63,0,0,1,2554.46,1059.39Z"/><path class="cls-50" d="M2456,1095.65a50.38,50.38,0,0,1-5.58-9.68,60.51,60.51,0,0,1-3.62-10.6,77.93,77.93,0,0,1-1.86-11.1,96.88,96.88,0,0,1-.48-11.31c.06-3.79.27-7.59.68-11.38s.92-7.57,1.66-11.35a74.63,74.63,0,0,0-3.11,11.13,88.78,88.78,0,0,0-1.56,11.5,76.75,76.75,0,0,0,1.76,23.23,52.72,52.72,0,0,0,10.26,21,47.17,47.17,0,0,0,18.6,13.69A58.29,58.29,0,0,1,2456,1095.65Z"/><path class="cls-50" d="M2470.13,1105.16c-.33-.67-.7-1.33-1-2-.59-1.37-1.24-2.72-1.73-4.13s-1-2.81-1.45-4.23-.77-2.87-1-4.33a55.68,55.68,0,0,1-.7-17.81,63.24,63.24,0,0,1,1.67-8.89,60.85,60.85,0,0,1,2.9-8.67,39.66,39.66,0,0,0-4.29,8.22,50.47,50.47,0,0,0-3.48,18.35,51.13,51.13,0,0,0,1,9.39c.29,1.55.75,3.07,1.16,4.59s1,3,1.63,4.43a48.53,48.53,0,0,0,4.44,8.29,55.52,55.52,0,0,0,12.71,13.49,89.71,89.71,0,0,1-10.71-14.72C2470.8,1106.5,2470.46,1105.83,2470.13,1105.16Z"/><path class="cls-8" d="M2575.69,1295.52c-5.68-7.3-15-10.54-15-10.54a24.31,24.31,0,0,0-14.19,0c-7.57,2.38-28.38,17.84-33.25,22.7s-7.7,9.33-8.92,17S2484.06,1508,2484.06,1508s-4.87-1.22-6.89.4.81,8.92.81,8.92l-135-13,14.19,48.65s152.47,33,156.9,32.43,13-8.92,15.41-13,61.62-211.23,61.62-211.23,6.08-27.16,4.87-32.84S2581.36,1302.82,2575.69,1295.52Z"/><path class="cls-48" d="M2325.31,1314.33c-.44-1.95-.87-3.91-1.44-5.83s-1.18-3.82-1.84-5.71-1.41-3.74-2.26-5.56a56.12,56.12,0,0,0-5.89-10.43l3.72,11.27c1.18,3.74,2.36,7.48,3.39,11.25.57,1.87,1,3.77,1.56,5.66s1,3.79,1.42,5.7c1,3.8,1.71,7.66,2.68,11.55a58.56,58.56,0,0,0-.37-12C2326.1,1318.25,2325.64,1316.31,2325.31,1314.33Z"/><path class="cls-7" d="M2127.28,1228.08c1.08-5.94-.54-20.54-7-47.3,0,0-2.16-7.56-5.94-5.94,0,0-2.71.27-1.9,10.81s2.17,16.49,1.9,18.38-1.9,13-3.25,12.7-11.89-20.54-16.76-33.51-10-26-10-26-3.64-10.14-10.13-3.92c0,0-2.57-10.54-8.25-8.24,0,0-3.37,1.75-2.16,8.65,0,0-2.7-4.19-5.4-1.9s-.41,16.36,2,26.76c0,0-3.65.14-3.24,6.35s5.54,51.49,5.54,51.49a19.71,19.71,0,0,0,4.33,10.27c3.91,4.6,22.43,18.52,24.59,20.14s4.6,7.16,5.54,9.87l39.6,101.89,24.33-43S2124.58,1267,2123,1261.6,2126.2,1234,2127.28,1228.08Z"/><path class="cls-42" d="M2111.52,1215.85a1,1,0,0,0-1.34.42c-.22.4-5.15,10-3.89,16.86a1,1,0,0,0,1,.82l.18,0a1,1,0,0,0,.8-1.16c-1.14-6.2,3.64-15.48,3.69-15.58A1,1,0,0,0,2111.52,1215.85Z"/><path class="cls-42" d="M2078.55,1222.4l-.63-.24c-2.64-1.06-3.63-1.65-4.66-3.26-.71-1.22-3-13.62-4.59-21.83-1.09-5.79-2-10.78-2.58-13.14-.68-2.87-1.8-4.81-3.34-5.75a3.61,3.61,0,0,0-2.61-.53,1,1,0,0,0-.72,1.18,1,1,0,0,0,1.18.77c.09,0,2.33-.38,3.54,4.79.54,2.31,1.52,7.53,2.56,13,2.41,12.79,4.06,21.27,4.87,22.54,1.4,2.17,2.85,2.93,5.6,4l.68.26c3.53,1.33,12.92,4.88,15.2,16.31a1,1,0,0,0,1,.8.68.68,0,0,0,.2,0,1,1,0,0,0,.78-1.17C2092.51,1227.67,2082,1223.7,2078.55,1222.4Z"/><path class="cls-42" d="M2075.12,1153.05a1,1,0,0,0-1.91.6l13.92,44.59a1,1,0,0,0,1,.71,1,1,0,0,0,.3,0,1,1,0,0,0,.65-1.25Z"/><path class="cls-42" d="M2064.72,1153.48a1,1,0,0,0-1.23-.69,1,1,0,0,0-.69,1.24l12.57,44.19a1,1,0,0,0,1,.73,1.26,1.26,0,0,0,.27,0,1,1,0,0,0,.69-1.24Z"/><path class="cls-7" d="M2247.56,1493a29.19,29.19,0,0,1-17.57-12.71c-4.6-7.57-8.92-19.19-10.81-20.81s-17.57-10.81-21.63-11.89-28.38-1.35-34.05-1.08-8.38,7-2.16,8.92,20,2.16,23,3.24,9.73,5.95,9.19,7.3-29.73-.54-32.7-1.35-37.57-31.09-37.57-31.09-3.79-3.51-6.49-2.16,1.08,7.57,2.43,9.19,6.76,8.92,6.76,8.92-.81,6.22,1.62,10.27,11.62,14.6,11.62,14.6a14,14,0,0,0,4.06,12.43c5.67,5.68,35.67,28.38,39.46,30s53.52,4.6,61.62,6.22,112.85,30,112.85,30L2343,1504.32S2253,1494.32,2247.56,1493Z"/><path class="cls-42" d="M2162.73,1476.88l-7.86-2.62a11.65,11.65,0,0,1-4.34-2.62l-23.91-22.91a1,1,0,1,0-1.38,1.44l23.9,22.91a13.69,13.69,0,0,0,5.1,3.08l7.86,2.62a1.19,1.19,0,0,0,.32,0,1,1,0,0,0,.95-.68A1,1,0,0,0,2162.73,1476.88Z"/><path class="cls-42" d="M2166.34,1491c-1.21-.17-4.69-.88-6.3-2.09-2.13-1.6-20.08-15.26-20.26-15.4a1,1,0,1,0-1.21,1.59c.18.14,18.13,13.81,20.27,15.41,2.34,1.76,7,2.44,7.22,2.47h.14a1,1,0,0,0,.14-2Z"/><path class="cls-48" d="M2508,1536.16a43.21,43.21,0,0,0-2.38-4.18c-.44-.67-.86-1.36-1.34-2l-1.45-1.93a42.49,42.49,0,0,0-6.8-6.87,25.49,25.49,0,0,0-8.42-4.69,72.14,72.14,0,0,1,6.85,6.41c2.11,2.25,4.1,4.6,6,7s3.71,4.92,5.51,7.46c.48.62.88,1.29,1.33,1.93l1.34,1.94c.89,1.3,1.74,2.63,2.74,3.9-.39-1.55-.9-3.07-1.43-4.59S2508.72,1537.57,2508,1536.16Z"/><path class="cls-2" d="M2365.56,1136.4l29.1,2s-8.72,34.46-25.34,30.4C2369.32,1168.82,2355.51,1166.21,2365.56,1136.4Z"/><g class="cls-51"><path class="cls-38" d="M2374.29,1144.9a12.16,12.16,0,0,0,14.4-9.12l-20-1S2366.48,1143.28,2374.29,1144.9Z"/><path class="cls-52" d="M2361.9,1162.94l5.19,11.76,14.4-6.69C2373.58,1154.63,2361.9,1162.94,2361.9,1162.94Z"/></g><path class="cls-48" d="M2420,1363.32c21.69-6.58,54-44.26,54-44.26-44.23,27.76-134.24,41.74-134.24,41.74S2389.4,1372.59,2420,1363.32Z"/><polygon class="cls-42" points="2133.04 1369.12 2136.74 1378.63 2161.07 1335.66 2159.77 1333.23 2133.04 1369.12"/><polygon class="cls-42" points="2339.72 1503.96 2345.66 1549.86 2357.16 1552.97 2342.97 1504.32 2339.72 1503.96"/><g class="cls-53"><path class="cls-4" d="M2383,1863.82c57.83-44.31,75.1-83.84,75.1-83.84,53.3-94.84,29.51-154,29.51-154C2471,1751,2383,1863.82,2383,1863.82Z"/></g><polygon class="cls-48" points="2511.36 1598.13 2514.06 1585.4 2357.16 1552.97 2511.36 1598.13"/><path class="cls-49" d="M2417.12,1101.41a5.59,5.59,0,1,0,5.59,5.59A5.59,5.59,0,0,0,2417.12,1101.41Z"/><path class="cls-49" d="M2372.44,1086.78a5.09,5.09,0,1,0,5.08,5.08A5.09,5.09,0,0,0,2372.44,1086.78Z"/><polygon class="cls-5" points="1185.13 950.13 1263.91 1014.76 1284.06 997.17 1230.43 910.58 1185.13 950.13"/><polygon class="cls-5" points="1458.61 908.86 1485.26 906.62 1493.35 805.09 1433.43 810.12 1458.61 908.86"/><polygon class="cls-5" points="1013.18 1215.05 1145.18 1227.05 1154 1193.41 1033.03 1139.4 1013.18 1215.05"/><polygon class="cls-5" points="1059.61 1476.09 1089.98 1543.26 1193.74 1473.69 1180.24 1443.82 1059.61 1476.09"/><polygon class="cls-5" points="1217.16 1727.36 1263.41 1758.68 1302.8 1672.61 1282.24 1658.68 1217.16 1727.36"/><polygon class="cls-5" points="3535.87 584.17 3552.81 604.86 3641.23 554.21 3603.13 507.69 3535.87 584.17"/><polygon class="cls-5" points="3352.5 461.46 3378.4 468.09 3419.63 374.91 3361.38 360 3352.5 461.46"/><polygon class="cls-5" points="3631.52 799.28 3634.64 833.92 3766.8 844.01 3759.79 766.11 3631.52 799.28"/><polygon class="cls-5" points="3545.79 1069.07 3636.56 1154.9 3677.66 1093.71 3564.07 1041.86 3545.79 1069.07"/><polygon class="cls-5" points="3405.21 1247.12 3429.76 1338.53 3480.57 1315.33 3427.8 1236.8 3405.21 1247.12"/><path class="cls-54" d="M3121.37,2056.65s-2.77,10.7-7.25,16.17-4.95-15.11-4.95-15.11c-60.6,4.51-86.24,52.67-86.24,52.67,5.52,1.54,14.82,14.62,14.82,14.62-2.41,8-22.84,3.51-22.84,3.51-33.81,27.47-34.16,102.12-34.16,102.12,18.83,15.4,59.2-25.57,59.2-25.57l5-17.79,29.86-44.83,58.8-27.26,62.65-11.69C3161.43,2031.52,3121.37,2056.65,3121.37,2056.65Z"/><path class="cls-15" d="M3185.46,2078.13s-5,9.55-6.88,15.39-11.4,13.09-9,1.23,6.5-18.49,5.17-22.56c0,0-36.66-14.3-78,18.42,0,0-.35,4.66,2.68,12s4.77,18.41-.29,20.19-12.25-12.53-10.24-25.56c0,0-50.73,35.67-48.93,107.8,0,0,49.3-101.63,175.49-70.92,0,0,26.66-18.47-6.23-54.84C3209.21,2079.3,3194.23,2064.68,3185.46,2078.13Z"/><path class="cls-17" d="M3274,2172.35c-31.89-34.77-57.38-39-58.44-39.2l-.31,2c.26,0,26,4.4,57.45,38.76,52.67,57.57,80.47,153.5,94.53,223.83l2-.39c-11.3-56.52-26.37-105.57-44.81-145.78C3309.65,2219.35,3292.7,2192.7,3274,2172.35Z"/><path class="cls-54" d="M3695.93,2262.76s9.85-8.4,14.49-8.49c0,0-10.82-43.08-57.61-58.94,0,0-4.36,16.08-6.82,10.87s-2.57-14.18-2.57-14.18-26.63-27.91-68,21.61l47,21.92,41,33.39,14.79,41.33.48,15s23.8,40.43,41.6,32.14c0,0,14.2-58.78-7.06-87.25C3713.21,2270.17,3696.27,2269.53,3695.93,2262.76Z"/><path class="cls-15" d="M3648.09,2248.58c-3.64-2.43-.13-10.78,3.68-15.94s4.44-8.91,4.44-8.91c-26.17-34.13-57.78-30.34-57.78-30.34-1.83,2.93.11,9-.31,18.79s-6.52,2.17-6.85-2.79a103.53,103.53,0,0,0-2.42-13.5c-4.29-12.37-18.91-3.91-18.91-3.91-32.92,21.92-15.54,41.86-15.54,41.86,105.21,1.49,124.27,91.44,124.27,91.44,15.4-56.36-17.57-94.72-17.57-94.72C3660.15,2241.21,3651.72,2251,3648.09,2248.58Z"/><path class="cls-17" d="M3536.39,2235.75c-10.19,2.65-26.16,8.32-44.42,20.3-20.5,13.45-39.67,31.95-57,55-21.6,28.76-40.34,64.72-55.7,106.87l1.88.68c19.08-52.37,54-122.78,111.74-160.76,34.52-22.69,61.22-23,61.48-23v-2C3554.12,2232.84,3547.46,2232.87,3536.39,2235.75Z"/><path class="cls-54" d="M3597.87,2142.52c-1-16.88-7.29-34.17-7.29-34.17l-10.16-11.92-19.78-9.88-34.49-7.78-25.22,4.22-28.58,40.29c20.45,1.4,22.5,14.57,22.5,14.57-4.08,12.28-22.71,11.61-22.71,11.61-14,47.22,27.48,92.41,27.48,92.41,25.33-7.62,41.67-29.73,41.67-29.73-12.48-6.9-11.06-15.27-11.06-15.27,9.54-13,29.61,2.89,29.61,2.89,27.08-17.89,26.65-33.84,26.65-33.84-16.47.38-18.92-7.58-18.92-7.58C3564.62,2146.56,3597.87,2142.52,3597.87,2142.52Z"/><path class="cls-54" d="M3460.38,2015.43l-7-1.4-11.11-.61-4.86,1.1s-49.09,28.4,5.37,89.66c0,0,23.1-26.07,38.64-12.48l8.83-39.55-13.83-31.57Z"/><path class="cls-15" d="M3556.37,2077.46C3540.45,2073.24,3534,2063,3534,2063c-41.49-73-96.65-48.51-96.65-48.51,47.58-9.28,33.33,110.19,35,108.76,70.13-61.72,118.23-14.93,118.23-14.93C3587.11,2097.45,3572.29,2081.69,3556.37,2077.46Z"/><path class="cls-17" d="M3423.6,2224.9c-21.59,53.54-46.8,130.55-44.36,193.38l2-.08c-2.43-62.47,22.7-139.18,44.2-192.53a1009.32,1009.32,0,0,1,47.78-101.91l-1.75-1A1012.09,1012.09,0,0,0,3423.6,2224.9Z"/><path class="cls-54" d="M3406.3,2009.83c-3.66,4.72-8.68,22.24-15.49,26.38s-1.24-32.62-.41-47.31-35-53.24-46.56-60.54-9.51,3.41-9.51,3.41,11.3,22.33,2.62,32.2-14.71.88-14.71.88c4.36-7.52-2.59-37.36-2.59-37.36-18.24-27.43-61.09-27.27-61.09-27.27,7.11,4,15.81,27.68,8.26,39.78s-26.62-34.15-26.62-34.15c-80.3,23-72.29,87.54-72.29,87.54,5-6.15,27.58-2.23,32.54,3s-20.86,16.17-20.86,16.17-14.49,7,10,21.18,65-1.27,72.5-4.6,9.87,8.33,1.89,15.41-47.74,5.8-47.74,5.8-14.93-1.63-3.83,21.28,63.39,14.69,63.39,14.69,27.76-5.91,27,3.78-27.06,10.15-39.78,9.25-10,10.37-10,10.37c8.65,20,53.32,12.13,53.32,12.13,38.56-5.62,48.72,13.75,51.4,24a3.5,3.5,0,0,0,5.76,1.67c55.61-51.38,49.73-124,48.62-131.32C3410.93,2008.57,3410,2005.11,3406.3,2009.83Z"/><path class="cls-17" d="M3325.71,2047.14a294.3,294.3,0,0,0-55.82-68.94c-38.07-34.88-73.82-50-74.18-50.16l-.77,1.84c.35.15,35.84,15.18,73.65,49.85a292.25,292.25,0,0,1,55.42,68.46,282.19,282.19,0,0,1,35.3,103c11.83,84,13,149.09,12,188.9-1.16,43.12-5.17,66.69-5.21,66.92l2,.34c.16-.93,15.94-95.32-6.75-256.44A284.17,284.17,0,0,0,3325.71,2047.14Z"/><path class="cls-3" d="M3422.57,2502.22h-77a14.75,14.75,0,0,1-14.66-13.12l-10.19-91.57h126.68l-10.19,91.57A14.75,14.75,0,0,1,3422.57,2502.22Z"/><g class="cls-55"><g class="cls-26"><path class="cls-17" d="M3300.18,2424.32l22.86-6.08s99.53-20.13,99.53,84h38.69V2358.54l-140.52,39Z"/></g></g><path class="cls-3" d="M3452.4,2382.09H3314.89a14.71,14.71,0,0,0,0,29.42H3452.4a14.71,14.71,0,1,0,0-29.42Z"/><path class="cls-15" d="M1746.18,561.34a11.71,11.71,0,1,0,11.71,11.71A11.72,11.72,0,0,0,1746.18,561.34Z"/><path class="cls-15" d="M1799.15,561.34a11.71,11.71,0,1,0,11.71,11.71A11.71,11.71,0,0,0,1799.15,561.34Z"/><circle class="cls-15" cx="1852.12" cy="573.05" r="11.71"/><path class="cls-15" d="M1905.08,561.34a11.71,11.71,0,1,0,11.71,11.71A11.71,11.71,0,0,0,1905.08,561.34Z"/><path class="cls-15" d="M1746.18,609a11.71,11.71,0,1,0,11.71,11.71A11.71,11.71,0,0,0,1746.18,609Z"/><path class="cls-15" d="M1799.15,609a11.71,11.71,0,1,0,11.71,11.71A11.71,11.71,0,0,0,1799.15,609Z"/><circle class="cls-15" cx="1852.12" cy="620.68" r="11.71"/><path class="cls-15" d="M1905.08,609a11.71,11.71,0,1,0,11.71,11.71A11.71,11.71,0,0,0,1905.08,609Z"/><path class="cls-15" d="M1746.18,656.6a11.71,11.71,0,1,0,11.71,11.71A11.71,11.71,0,0,0,1746.18,656.6Z"/><path class="cls-15" d="M1799.15,656.6a11.71,11.71,0,1,0,11.71,11.71A11.71,11.71,0,0,0,1799.15,656.6Z"/><circle class="cls-15" cx="1852.12" cy="668.31" r="11.71"/><path class="cls-15" d="M1905.08,656.6a11.71,11.71,0,1,0,11.71,11.71A11.71,11.71,0,0,0,1905.08,656.6Z"/><path class="cls-15" d="M1746.18,704.23a11.71,11.71,0,1,0,11.71,11.71A11.71,11.71,0,0,0,1746.18,704.23Z"/><path class="cls-15" d="M1799.15,704.23a11.71,11.71,0,1,0,11.71,11.71A11.71,11.71,0,0,0,1799.15,704.23Z"/><circle class="cls-15" cx="1852.12" cy="715.94" r="11.71"/><path class="cls-15" d="M1905.08,704.23a11.71,11.71,0,1,0,11.71,11.71A11.71,11.71,0,0,0,1905.08,704.23Z"/><circle class="cls-5" cx="3518.42" cy="1622.77" r="11.71"/><circle class="cls-5" cx="3571.38" cy="1622.77" r="11.71"/><circle class="cls-5" cx="3624.35" cy="1622.77" r="11.71"/><circle class="cls-5" cx="3677.31" cy="1622.77" r="11.71"/><circle class="cls-5" cx="3518.42" cy="1670.39" r="11.71"/><circle class="cls-5" cx="3571.38" cy="1670.39" r="11.71"/><circle class="cls-5" cx="3624.35" cy="1670.39" r="11.71"/><circle class="cls-5" cx="3677.31" cy="1670.39" r="11.71"/><circle class="cls-5" cx="3518.42" cy="1718.02" r="11.71"/><circle class="cls-5" cx="3571.38" cy="1718.02" r="11.71"/><circle class="cls-5" cx="3624.35" cy="1718.02" r="11.71"/><circle class="cls-5" cx="3677.31" cy="1718.02" r="11.71"/><circle class="cls-5" cx="3518.42" cy="1765.65" r="11.71"/><circle class="cls-5" cx="3571.38" cy="1765.65" r="11.71"/><circle class="cls-5" cx="3624.35" cy="1765.65" r="11.71"/><circle class="cls-5" cx="3677.31" cy="1765.65" r="11.71"/><polygon class="cls-54" points="2504.09 483.73 2486.52 501.21 2468.94 518.68 2492.86 525.16 2516.78 531.65 2510.44 507.69 2504.09 483.73"/><polygon class="cls-54" points="3886.05 1030.92 3904.26 1047.73 3922.47 1064.54 3927.92 1040.36 3933.38 1016.18 3909.71 1023.55 3886.05 1030.92"/><polygon class="cls-54" points="881.19 1455.8 901.33 1470.45 921.47 1485.1 924.09 1460.33 926.7 1435.56 903.95 1445.68 881.19 1455.8"/><polygon class="cls-54" points="3649.59 1439.36 3631.07 1455.83 3612.54 1472.29 3636.06 1480.1 3659.58 1487.92 3654.59 1463.64 3649.59 1439.36"/><polygon class="cls-54" points="1269.24 639.63 1287.18 656.73 1305.12 673.84 1310.96 649.75 1316.81 625.67 1293.03 632.65 1269.24 639.63"/><circle class="cls-15" cx="761.34" cy="1129.82" r="14.72"/><circle class="cls-15" cx="1314.05" cy="1483.16" r="22.83" transform="translate(-467.55 615.77) rotate(-22.5)"/><circle class="cls-15" cx="3878.54" cy="1389.41" r="22.83" transform="translate(-88.74 278.44) rotate(-4.07)"/><circle class="cls-15" cx="2323.26" cy="793.37" r="22.83" transform="translate(-130.22 707.29) rotate(-16.85)"/><circle class="cls-15" cx="2168.81" cy="608.97" r="17.37"/><path class="cls-15" d="M881.19,1192.11a17.38,17.38,0,1,0,17.37,17.38A17.37,17.37,0,0,0,881.19,1192.11Z"/><circle class="cls-15" cx="3855.71" cy="1549.92" r="11.42"/></g></svg>