<svg xmlns="http://www.w3.org/2000/svg" xmlns:xlink="http://www.w3.org/1999/xlink" viewBox="0 0 444.18 433.26"><defs><style>.cls-1{fill:none;}.cls-2{fill:#aabfe2;}.cls-3{fill:#ff867f;}.cls-4{fill:#2549d6;}.cls-5{fill:#2945bd;}.cls-6{fill:#ffa89e;}.cls-7{fill:#fff;}.cls-8{fill:#e66e6e;}.cls-9{fill:#1a2241;}.cls-10{fill:#90a9ff;}.cls-11{fill:#7d92ec;}.cls-12{fill:#0b132b;}.cls-13{fill:#899cc4;}.cls-14{fill:#0c2d60;}.cls-15{clip-path:url(#clip-path);}.cls-16{opacity:0.25;}.cls-17{fill:#03264c;}.cls-18{fill:#37202c;}.cls-19{fill:#6f4f5a;}.cls-20{fill:#6680ff;}.cls-21{fill:#3580f7;}.cls-22{fill:#2847d4;}.cls-23{fill:#edb341;}.cls-24{fill:#f76559;}.cls-25{fill:#facf47;}.cls-26{fill:#23aa53;}.cls-27{fill:#1a2e35;}</style><clipPath id="clip-path"><path class="cls-1" d="M163.31,322.28h-.11c-1.74.21-48.64,5.84-64,12.58-15.63,6.86-19.44,16.39-6.48,37.35s22.48,19.43,51.83,19.81c27.78.36,81.15-1,86.79-1.13a.87.87,0,0,0,.74-.43c1.39-2.35,7.9-13.95,5.85-22.37a.89.89,0,0,1,.67-1.07.87.87,0,0,1,.48,0c7.52,2.47,39.43,9.63,57,10.12,22.86.64,41.66-16.26,34.8-33.54s-18-21.33-28.43-20.58h-.05Z"/></clipPath></defs><g id="Playing_mobile_games" data-name="Playing mobile games"><g id="Playing_mobile_games-2" data-name="Playing mobile games"><g id="Boy"><g id="Element"><ellipse id="Ellipse_19" data-name="Ellipse 19" class="cls-2" cx="249.32" cy="376.45" rx="194.85" ry="40.98"/></g><g id="Head"><path id="Skin" class="cls-3" d="M191.27,205.37c.29,2.13-.4,7.29-13.24,9.24H178l-5,.28a.77.77,0,0,0-.73.81.78.78,0,0,0,.25.53c4.62,4.16,20.94,17.33,41.18,15.72,18.64-1.48,30-8.59,34.22-11.69a.77.77,0,0,0-.48-1.38c-5.21.08-17.72-.23-19.82-5-1.71-3.9-1.86-6-1.74-7a.76.76,0,0,0-.68-.83h-.05l-33-1.51a.78.78,0,0,0-.81.75A.57.57,0,0,0,191.27,205.37Z"/><path id="Hair" class="cls-4" d="M189.86,179.17c4,1.51,22.16,7.58,36,.66a.67.67,0,0,1,.9.28.6.6,0,0,1,.07.27c.22,3.73.19,16.52-3.43,27.79a.68.68,0,0,0,.42.86.77.77,0,0,0,.45,0c1.63-.63,4.38-2.71,5.92-9.65,2.29-10.29,1.53-22.86,2.48-25.53s4.84-14.7-12.37-18.51a4.78,4.78,0,0,1-1.37-.54,26.6,26.6,0,0,0-21.51-2.48c-12.37,4-18.66,9.32-14.31,26.42a.5.5,0,0,1,0,.12c0,1.05.63,16.05,7.9,25.59a.66.66,0,0,0,.93.13.67.67,0,0,0,.24-.73c-1.55-4.76-4-14.19-3.24-24.09a.66.66,0,0,1,.71-.62Z"/><path id="Hair-2" class="cls-5" d="M191.89,202.83A64.52,64.52,0,0,1,189,179.74a.65.65,0,0,1,.51-.59.16.16,0,0,0,.11-.21l0-.06c-3.36-4.63-5.59-12.15-6.29-16.21a.18.18,0,0,0-.2-.15.19.19,0,0,0-.14.11c-1.59,3.8-1.64,8.91.19,16.1a.49.49,0,0,1,0,.12c0,1,.61,15.16,7.27,24.71a.84.84,0,0,0,1.49-.73Z"/><path id="Hair-3" class="cls-5" d="M224.58,208.89c1.66-.76,4.17-3,5.62-9.52,2.29-10.29,1.53-22.87,2.48-25.53a15.06,15.06,0,0,0,.6-8.83.12.12,0,0,0-.16-.1.12.12,0,0,0-.09.09c-1.26,3.72-3.59,10-6.15,14.05a1.31,1.31,0,0,0-.07,1.16l0,.17c.22,3.7.18,16.31-3.35,27.51a.82.82,0,0,0,.5,1A.85.85,0,0,0,224.58,208.89Z"/><path id="Skin-2" class="cls-6" d="M184.15,201.36c4.33,3.31,6.67,7.65,9.26,6.29s2.65-6.37.12-11.2-5.52-7.42-9.26-6.3C180,191.45,180.09,198.25,184.15,201.36Z"/><path id="Skin-3" class="cls-6" d="M231.57,203.39c-4.33,3.32-6.68,7.65-9.27,6.3s-2.64-6.37-.12-11.21,5.53-7.42,9.27-6.29C235.76,193.48,235.63,200.28,231.57,203.39Z"/><path id="Skin-4" class="cls-6" d="M205.24,159.36s-20.39,2.22-15.82,32.2c4.17,27.3,17.44,27.74,19.54,27.82,2.57.1,17.65-.53,18-34.3C227.28,154.46,205.24,159.36,205.24,159.36Z"/><g id="Glasses"><path id="Path_715" data-name="Path 715" class="cls-7" d="M198.76,205.74a8.08,8.08,0,1,1,8.08-8.08A8.08,8.08,0,0,1,198.76,205.74Zm0-15.25a7.16,7.16,0,1,0,7.16,7.16,7.17,7.17,0,0,0-7.16-7.16Z"/><path id="Path_716" data-name="Path 716" class="cls-7" d="M217.73,206.75a8.08,8.08,0,1,1,8.08-8.08h0A8.08,8.08,0,0,1,217.73,206.75Zm0-15.24a7.16,7.16,0,1,0,7.16,7.16,7.16,7.16,0,0,0-7.16-7.16Z"/><path id="Path_717" data-name="Path 717" class="cls-7" d="M210.13,198.12h-3.75a.46.46,0,0,1-.45-.47.45.45,0,0,1,.45-.45h3.75a.47.47,0,0,1,.46.46A.47.47,0,0,1,210.13,198.12Z"/><path id="Path_718" data-name="Path 718" class="cls-7" d="M191.33,195.7a.46.46,0,0,1-.39-.21l-3.18-5.08a.47.47,0,0,1,.1-.65.45.45,0,0,1,.64.1.21.21,0,0,1,0,.06l3.18,5.08a.46.46,0,0,1-.15.63A.4.4,0,0,1,191.33,195.7Z"/><path id="Path_719" data-name="Path 719" class="cls-7" d="M225,196.34a.47.47,0,0,1-.46-.46.51.51,0,0,1,.09-.27l2.67-3.81a.46.46,0,0,1,.64-.11.47.47,0,0,1,.11.64l-2.67,3.81A.44.44,0,0,1,225,196.34Z"/></g><path id="Skin-5" class="cls-3" d="M205.24,159.36c-4.32,1-8.8,3.14-11.39,7-2.47,3.66-3.07,9-3.61,13.32a.26.26,0,0,0,.13.27c1.24.7,9.49,5.24,17.22,6,8.38.78,13.72-1.7,16,1.3a5.72,5.72,0,0,0,2.93,2.26.28.28,0,0,0,.34-.2.13.13,0,0,0,0-.06c0-1.11.08-2.25.09-3.43C227.28,154.36,205.27,159.36,205.24,159.36Z"/><path id="Hair-4" class="cls-4" d="M190.22,179.31c4.85,1.77,23.62,7.82,36.07.35a3.43,3.43,0,0,0,.9-.8c1.38-1.79,5.62-8.05,2.5-14.49-3.68-7.62-22.86-9.4-31.5-8.25-8.4,1.11-16.68,8.46-9.78,21.6A3.4,3.4,0,0,0,190.22,179.31Z"/><g id="Face"><path id="Path_708" data-name="Path 708" class="cls-8" d="M189.42,201.94l-.14,0a5.88,5.88,0,0,1-3.46-3.36,5.75,5.75,0,0,1,.38-4.23.34.34,0,0,1,.6.32,5.18,5.18,0,0,0-.33,3.69,5.26,5.26,0,0,0,3.09,2.95.35.35,0,0,1,.17.46.33.33,0,0,1-.31.2Z"/><path id="Path_710" data-name="Path 710" class="cls-8" d="M227,204.35a.35.35,0,0,1-.35-.34.35.35,0,0,1,.18-.31,5.08,5.08,0,0,0,2.75-3,4.73,4.73,0,0,0-.46-3.34.33.33,0,0,1,.13-.47.35.35,0,0,1,.46.11,5.4,5.4,0,0,1,.54,3.88,5.75,5.75,0,0,1-3.09,3.46A.32.32,0,0,1,227,204.35Z"/><path id="Path_712" data-name="Path 712" class="cls-9" d="M201.24,196.67h-.11a7.54,7.54,0,0,1-6.2-4.11.92.92,0,0,1,1.69-.71,5.77,5.77,0,0,0,4.73,3,.92.92,0,0,1-.11,1.83Z"/><path id="Path_713" data-name="Path 713" class="cls-9" d="M215.21,196.8a.92.92,0,0,1-.92-.92.94.94,0,0,1,.33-.71c.14-.11,3.46-2.83,7.3-1.83a.92.92,0,0,1-.46,1.78c-2.92-.76-5.63,1.44-5.66,1.46A.9.9,0,0,1,215.21,196.8Z"/><circle id="Ellipse_20" data-name="Ellipse 20" class="cls-9" cx="199.9" cy="198.93" r="1.51"/><circle id="Ellipse_21" data-name="Ellipse 21" class="cls-9" cx="216.74" cy="198.67" r="1.51"/><path id="Path_714" data-name="Path 714" class="cls-8" d="M208,208.73a1.8,1.8,0,0,1-.93-.25c-1.37-.81-1.1-3.33-1.08-3.43a.34.34,0,0,1,.68.08c-.07.6-.07,2.28.75,2.76.63.38,1.74,0,3.19-1a.34.34,0,0,1,.48.09.35.35,0,0,1-.08.48h0A5.74,5.74,0,0,1,208,208.73Z"/><path id="Path_722" data-name="Path 722" class="cls-8" d="M209.48,215.79h0a.35.35,0,0,1,0-.69c.24,0,5.58,0,7.8-6.13a.35.35,0,0,1,.45-.2.33.33,0,0,1,.2.44h0A9.45,9.45,0,0,1,209.48,215.79Z"/><path id="Path_723" data-name="Path 723" class="cls-8" d="M213.53,210c-.83,1.07-.77,3.12-.05,3.68s1.64-.79,2.48-1.86,1.81-1.91,1.09-2.47A3,3,0,0,0,213.53,210Z"/></g></g><g id="Torso"><path id="Path_724" data-name="Path 724" class="cls-10" d="M185.64,212.52s7.86,12.76,22.33,13.34c15.88.64,21.09-10.42,21.09-10.42s35.25,1.66,43.64,10c0,0,12,10.54,18.35,38.49s19.31,70.63,5.09,69.87c0,0-19.57-.76-30-9.14H160.71L160,305.89s-5.84,12.45-17.53,14.48-19.31,1.53-18.81-14.22,5.92-69,24.4-82.83C165.29,210.36,185.64,212.52,185.64,212.52Z"/><path id="Path_725" data-name="Path 725" class="cls-7" d="M171.86,216.76l.73,2.24a.14.14,0,0,0,.12.09h2.36a.12.12,0,0,1,.13.12.11.11,0,0,1-.06.11l-1.9,1.38a.13.13,0,0,0-.05.14l.73,2.24a.14.14,0,0,1-.08.17.16.16,0,0,1-.12,0l-1.9-1.38a.12.12,0,0,0-.16,0l-1.9,1.38a.13.13,0,0,1-.18,0,.16.16,0,0,1,0-.12l.73-2.24a.11.11,0,0,0,0-.14l-1.9-1.38a.13.13,0,0,1,0-.18.09.09,0,0,1,.1,0h2.36a.14.14,0,0,0,.12-.09l.73-2.24a.12.12,0,0,1,.16-.08A.11.11,0,0,1,171.86,216.76Zm-19.39,7.39-1.11,3.41a.2.2,0,0,1-.19.14h-3.58a.2.2,0,0,0-.2.2.21.21,0,0,0,.08.16l2.9,2.1a.19.19,0,0,1,.07.22l-1.11,3.41a.19.19,0,0,0,.13.25.22.22,0,0,0,.18,0l2.9-2.11a.2.2,0,0,1,.23,0l2.9,2.11A.21.21,0,0,0,156,234a.19.19,0,0,0,0-.18l-1.11-3.41a.19.19,0,0,1,.07-.22l2.9-2.1a.2.2,0,0,0,0-.28.18.18,0,0,0-.16-.08h-3.58a.21.21,0,0,1-.19-.14l-1.11-3.41a.2.2,0,0,0-.24-.13.21.21,0,0,0-.13.13ZM176.61,232l.79,2.43a.14.14,0,0,0,.13.09h2.55a.14.14,0,0,1,.08.26l-2.06,1.49a.14.14,0,0,0,0,.16l.79,2.42a.15.15,0,0,1-.09.18.19.19,0,0,1-.13,0l-2.06-1.5a.15.15,0,0,0-.16,0l-2.06,1.5a.15.15,0,0,1-.2,0,.15.15,0,0,1,0-.13l.79-2.42a.17.17,0,0,0-.06-.16l-2.06-1.49a.14.14,0,0,1,0-.2.11.11,0,0,1,.11-.06h2.54a.16.16,0,0,0,.14-.09l.79-2.43a.13.13,0,0,1,.18-.08.15.15,0,0,1,.08.08ZM198,248.3l.79,2.42a.14.14,0,0,0,.13.1h2.55a.14.14,0,0,1,.14.14.13.13,0,0,1-.06.11l-2.06,1.5a.14.14,0,0,0,0,.16l.79,2.42a.16.16,0,0,1-.09.18.2.2,0,0,1-.13,0l-2.06-1.5a.12.12,0,0,0-.16,0l-2.06,1.5a.14.14,0,0,1-.22-.16l.79-2.42a.14.14,0,0,0,0-.16l-2.06-1.5a.12.12,0,0,1,0-.19.13.13,0,0,1,.11-.06h2.55a.14.14,0,0,0,.13-.1l.79-2.42a.14.14,0,0,1,.18-.08s.07,0,.08.08Zm28.8-22.74.79,2.42a.14.14,0,0,0,.13.1h2.55a.13.13,0,0,1,.15.13.14.14,0,0,1-.06.13l-2.06,1.49a.14.14,0,0,0,0,.16l.78,2.42a.13.13,0,0,1-.09.18.16.16,0,0,1-.12,0l-2.06-1.5a.17.17,0,0,0-.17,0l-2.06,1.5a.15.15,0,0,1-.2,0,.2.2,0,0,1,0-.13l.79-2.42a.14.14,0,0,0-.05-.16L223,228.34a.14.14,0,0,1,0-.2.12.12,0,0,1,.13-.06h2.54a.15.15,0,0,0,.14-.1l.78-2.42a.14.14,0,0,1,.18-.08.11.11,0,0,1,.08.08Zm-58.66,19.49,1.11,3.43a.2.2,0,0,0,.19.14h3.61a.2.2,0,0,1,.2.2.19.19,0,0,1-.09.16l-2.91,2.12a.21.21,0,0,0-.08.22l1.12,3.43a.21.21,0,0,1-.13.26.23.23,0,0,1-.18,0l-2.92-2.12a.2.2,0,0,0-.23,0L164.93,255a.21.21,0,0,1-.28,0,.22.22,0,0,1,0-.18l1.11-3.43a.19.19,0,0,0-.07-.22L162.75,249a.19.19,0,0,1,0-.28.18.18,0,0,1,.16-.08h3.6a.18.18,0,0,0,.19-.14l1.12-3.43a.2.2,0,0,1,.24-.13.2.2,0,0,1,.14.13Zm31.37-13.84,1.12,3.43a.19.19,0,0,0,.19.13h3.6a.2.2,0,0,1,.2.2.18.18,0,0,1-.08.16l-2.92,2.12a.2.2,0,0,0-.07.23l1.11,3.43a.19.19,0,0,1-.13.25.17.17,0,0,1-.17,0L199.46,239a.21.21,0,0,0-.24,0l-2.91,2.12a.2.2,0,0,1-.28,0,.17.17,0,0,1,0-.17l1.11-3.43a.2.2,0,0,0-.07-.23l-2.92-2.12a.2.2,0,0,1,.12-.36h3.61a.21.21,0,0,0,.19-.13l1.11-3.43a.2.2,0,0,1,.25-.14.21.21,0,0,1,.13.13ZM145,245.39l.78,2.41a.15.15,0,0,0,.14.1h2.53a.14.14,0,0,1,.14.14.14.14,0,0,1-.05.11l-2.05,1.49a.14.14,0,0,0,0,.16l.78,2.41a.14.14,0,0,1-.09.17.13.13,0,0,1-.13,0l-2.05-1.49a.15.15,0,0,0-.16,0l-2.05,1.49a.12.12,0,0,1-.19,0,.13.13,0,0,1,0-.12l.79-2.41a.14.14,0,0,0-.05-.16l-2.05-1.49a.13.13,0,0,1,0-.19.16.16,0,0,1,.12-.06h2.54a.14.14,0,0,0,.13-.1l.78-2.41a.14.14,0,0,1,.18-.07.11.11,0,0,1,.08.07Zm61.75,68.26.79,2.41a.13.13,0,0,0,.13.1h2.53a.14.14,0,0,1,.14.14.14.14,0,0,1-.06.11l-2.05,1.49a.16.16,0,0,0-.05.16l.79,2.4a.15.15,0,0,1-.09.18.12.12,0,0,1-.13,0l-2.05-1.49a.15.15,0,0,0-.16,0l-2.05,1.49a.14.14,0,0,1-.2,0,.15.15,0,0,1,0-.13l.78-2.4a.14.14,0,0,0,0-.16l-2.05-1.49a.15.15,0,0,1,0-.2.17.17,0,0,1,.12,0h2.53a.14.14,0,0,0,.13-.1l.78-2.41a.14.14,0,0,1,.18-.09.12.12,0,0,1,.09.09Zm8.2-18.95.79,2.41a.14.14,0,0,0,.13.09h2.53a.15.15,0,0,1,.15.14.16.16,0,0,1-.06.12l-2,1.48a.14.14,0,0,0-.05.16l.78,2.41a.14.14,0,0,1-.09.18.16.16,0,0,1-.12,0l-2-1.49a.14.14,0,0,0-.17,0l-2,1.49a.13.13,0,0,1-.19,0,.11.11,0,0,1,0-.12l.78-2.41a.14.14,0,0,0-.05-.16l-2-1.48a.14.14,0,0,1,0-.2.14.14,0,0,1,.12-.06h2.53a.14.14,0,0,0,.13-.09l.79-2.41a.13.13,0,0,1,.18-.08.12.12,0,0,1,.07.07Zm5.71-45.43.78,2.41a.14.14,0,0,0,.13.1h2.54a.14.14,0,0,1,.14.14.14.14,0,0,1-.06.11l-2.05,1.49a.13.13,0,0,0,0,.15l.78,2.41a.13.13,0,0,1-.09.18.13.13,0,0,1-.12,0l-2.05-1.49a.14.14,0,0,0-.17,0l-2.05,1.49a.13.13,0,0,1-.19,0,.12.12,0,0,1,0-.13l.78-2.41a.13.13,0,0,0,0-.15L216.85,252a.14.14,0,0,1,0-.2.13.13,0,0,1,.12-.05h2.53a.14.14,0,0,0,.13-.1l.78-2.41a.16.16,0,0,1,.18-.09.2.2,0,0,1,.09.09Zm48.07,56.22.79,2.41a.14.14,0,0,0,.13.1h2.53a.14.14,0,0,1,.14.14.16.16,0,0,1-.05.11l-2.05,1.49a.13.13,0,0,0,0,.15l.78,2.41a.15.15,0,0,1-.09.18.15.15,0,0,1-.13,0L268.67,311a.15.15,0,0,0-.16,0l-2.05,1.49a.14.14,0,0,1-.2,0,.19.19,0,0,1,0-.13l.79-2.41a.13.13,0,0,0,0-.15l-2.05-1.49a.13.13,0,0,1,0-.2A.14.14,0,0,1,265,308h2.54a.14.14,0,0,0,.13-.1l.78-2.41a.14.14,0,0,1,.18-.08.11.11,0,0,1,.08.08Zm20.2,19.06.79,2.41a.13.13,0,0,0,.13.09h2.53a.14.14,0,0,1,.08.26l-2.05,1.48a.18.18,0,0,0,0,.16l.79,2.41a.16.16,0,0,1-.09.18.19.19,0,0,1-.13,0L288.87,330a.12.12,0,0,0-.16,0l-2,1.49a.15.15,0,0,1-.2,0,.2.2,0,0,1,0-.13l.78-2.41a.14.14,0,0,0-.05-.16l-2.05-1.48a.15.15,0,0,1,0-.2.14.14,0,0,1,.12-.06h2.53a.14.14,0,0,0,.13-.09l.79-2.41a.14.14,0,0,1,.17-.1.16.16,0,0,1,.09.09Zm-5.33-23.82.78,2.41a.14.14,0,0,0,.13.09H287a.15.15,0,0,1,.14.14.17.17,0,0,1-.06.12L285.07,305a.12.12,0,0,0-.05.15l.78,2.41a.16.16,0,0,1-.09.18.16.16,0,0,1-.12,0l-2-1.49a.14.14,0,0,0-.17,0l-2.05,1.49a.14.14,0,0,1-.19,0,.13.13,0,0,1,0-.13l.78-2.41a.12.12,0,0,0-.05-.15l-2-1.49a.14.14,0,0,1,0-.2.13.13,0,0,1,.11-.06h2.53a.15.15,0,0,0,.14-.09l.78-2.41a.14.14,0,0,1,.17-.1.18.18,0,0,1,.1.09ZM131.66,266.4l.61,1.86a.1.1,0,0,0,.1.07h1.95a.11.11,0,0,1,.11.11.12.12,0,0,1-.05.09l-1.57,1.14a.1.1,0,0,0,0,.12l.6,1.85a.11.11,0,0,1-.07.14.1.1,0,0,1-.09,0l-1.58-1.14a.11.11,0,0,0-.13,0l-1.57,1.14a.11.11,0,0,1-.16,0,.12.12,0,0,1,0-.1l.6-1.85a.1.1,0,0,0,0-.12l-1.57-1.15a.1.1,0,0,1,0-.15.12.12,0,0,1,.08,0h1.95a.1.1,0,0,0,.1-.07l.61-1.86a.1.1,0,0,1,.14,0l0,0Zm116.08-44.82.6,1.85a.12.12,0,0,0,.1.07h1.95a.12.12,0,0,1,.11.11.11.11,0,0,1-.05.09l-1.57,1.14a.1.1,0,0,0,0,.12l.6,1.86a.1.1,0,0,1-.07.13.1.1,0,0,1-.09,0l-1.58-1.15a.13.13,0,0,0-.12,0L246,226.94a.11.11,0,0,1-.15,0,.08.08,0,0,1,0-.09l.6-1.86a.11.11,0,0,0,0-.12l-1.58-1.14a.11.11,0,0,1,0-.15.11.11,0,0,1,.09-.05h1.94a.12.12,0,0,0,.11-.07l.6-1.85a.11.11,0,0,1,.14-.06.09.09,0,0,1,.06.06Zm37.4,56,.6,1.85a.11.11,0,0,0,.1.08h2a.1.1,0,0,1,.11.1.11.11,0,0,1,0,.09l-1.57,1.15a.09.09,0,0,0,0,.12l.6,1.85a.1.1,0,0,1-.07.13.09.09,0,0,1-.09,0l-1.58-1.15a.13.13,0,0,0-.12,0l-1.58,1.15a.12.12,0,0,1-.15,0,.12.12,0,0,1,0-.1l.61-1.85a.1.1,0,0,0,0-.12l-1.58-1.15a.1.1,0,0,1,0-.15.1.1,0,0,1,.09,0h1.94a.12.12,0,0,0,.11-.08l.6-1.85a.11.11,0,0,1,.14-.06.09.09,0,0,1,.06.06Zm-47.6,42.11.6,1.85a.12.12,0,0,0,.11.07h1.95a.11.11,0,0,1,.06.2l-1.58,1.14a.11.11,0,0,0,0,.12l.61,1.85a.12.12,0,0,1-.07.14.12.12,0,0,1-.1,0l-1.57-1.15a.11.11,0,0,0-.13,0L235.8,325a.11.11,0,0,1-.15,0,.11.11,0,0,1,0-.1l.6-1.85a.1.1,0,0,0,0-.12l-1.57-1.14a.11.11,0,0,1,0-.15.12.12,0,0,1,.09-.05h1.95a.11.11,0,0,0,.1-.07l.6-1.85a.12.12,0,0,1,.15-.06.1.1,0,0,1,0,.06Zm8.66-12.84.61,1.86a.1.1,0,0,0,.1.07h2a.1.1,0,0,1,.1.11.09.09,0,0,1,0,.08l-1.58,1.15a.14.14,0,0,0,0,.12l.61,1.85a.11.11,0,0,1-.07.14.12.12,0,0,1-.1,0L246.17,311a.11.11,0,0,0-.13,0l-1.58,1.14a.1.1,0,0,1-.15,0,.11.11,0,0,1,0-.1l.6-1.85a.1.1,0,0,0,0-.12l-1.57-1.15a.1.1,0,0,1,0-.15.12.12,0,0,1,.08,0h2a.1.1,0,0,0,.1-.07l.61-1.86a.09.09,0,0,1,.13-.05.1.1,0,0,1,.06.05Zm44.58-16.32.6,1.85a.11.11,0,0,0,.1.08h1.95a.11.11,0,0,1,.11.1.13.13,0,0,1,0,.09l-1.58,1.15a.11.11,0,0,0,0,.12l.6,1.85a.11.11,0,0,1-.06.14.12.12,0,0,1-.1,0l-1.58-1.14a.09.09,0,0,0-.12,0L289,295.86a.12.12,0,0,1-.15,0,.12.12,0,0,1,0-.1l.6-1.85a.11.11,0,0,0,0-.12l-1.58-1.15a.12.12,0,0,1,0-.15.13.13,0,0,1,.09,0h1.95a.11.11,0,0,0,.1-.08l.6-1.85a.12.12,0,0,1,.15-.05.1.1,0,0,1,0,.05Zm-90.59,4.57.61,1.86a.1.1,0,0,0,.1.07h1.95a.1.1,0,0,1,.1.11.09.09,0,0,1,0,.08l-1.58,1.15a.11.11,0,0,0,0,.12l.61,1.85a.11.11,0,0,1-.07.14.12.12,0,0,1-.1,0l-1.57-1.14a.11.11,0,0,0-.13,0l-1.58,1.14a.1.1,0,0,1-.15,0,.12.12,0,0,1,0-.1l.6-1.85a.1.1,0,0,0,0-.12l-1.57-1.15a.11.11,0,0,1,0-.15.15.15,0,0,1,.09,0h1.95a.1.1,0,0,0,.1-.07l.6-1.86a.12.12,0,0,1,.15-.05.1.1,0,0,1,.05.06Zm38.15-54.38.6,1.86a.12.12,0,0,0,.1.07h2a.11.11,0,0,1,.11.11.1.1,0,0,1,0,.08L239.48,244a.1.1,0,0,0,0,.12l.6,1.85a.11.11,0,0,1-.06.14.11.11,0,0,1-.1,0l-1.58-1.14a.11.11,0,0,0-.13,0l-1.57,1.14a.1.1,0,0,1-.15,0,.12.12,0,0,1,0-.1l.61-1.85a.11.11,0,0,0,0-.12l-1.58-1.15a.12.12,0,0,1,0-.15.13.13,0,0,1,.09,0h1.94a.12.12,0,0,0,.11-.07l.6-1.86a.1.1,0,0,1,.14-.05.09.09,0,0,1,.06.06Zm17.53-7.24.6,1.85a.11.11,0,0,0,.1.08h1.95a.1.1,0,0,1,.11.1.13.13,0,0,1,0,.09L257,236.71a.12.12,0,0,0,0,.13l.6,1.85a.1.1,0,0,1-.06.13.11.11,0,0,1-.1,0l-1.58-1.15a.13.13,0,0,0-.12,0l-1.58,1.15a.12.12,0,0,1-.15,0,.09.09,0,0,1,0-.1l.6-1.85a.12.12,0,0,0,0-.13L253,235.57a.12.12,0,0,1,0-.15.1.1,0,0,1,.09,0H255a.11.11,0,0,0,.1-.08l.6-1.85a.1.1,0,0,1,.14,0,.1.1,0,0,1,.06,0ZM269.44,272l.6,1.85a.11.11,0,0,0,.1.08h1.95a.11.11,0,0,1,.11.1.11.11,0,0,1-.05.09l-1.57,1.15a.09.09,0,0,0,0,.12l.6,1.85a.11.11,0,0,1-.07.14.1.1,0,0,1-.09,0l-1.58-1.14a.11.11,0,0,0-.13,0l-1.57,1.14a.12.12,0,0,1-.15,0,.12.12,0,0,1,0-.1l.61-1.85a.13.13,0,0,0,0-.12l-1.58-1.15a.1.1,0,0,1,0-.15.12.12,0,0,1,.08,0h1.95a.1.1,0,0,0,.1-.08l.61-1.85a.1.1,0,0,1,.14-.05.09.09,0,0,1,.06.06Zm14.29,23.25.6,1.85a.11.11,0,0,0,.1.08h1.95a.1.1,0,0,1,.11.1.11.11,0,0,1-.05.09l-1.57,1.15a.09.09,0,0,0,0,.12l.6,1.85a.1.1,0,0,1-.06.13.09.09,0,0,1-.1,0l-1.58-1.15a.15.15,0,0,0-.13,0L282,300.62a.12.12,0,0,1-.15,0,.12.12,0,0,1,0-.1l.61-1.85a.1.1,0,0,0,0-.12l-1.58-1.15a.1.1,0,0,1,0-.15.1.1,0,0,1,.09,0h1.94a.12.12,0,0,0,.11-.08l.6-1.85a.11.11,0,0,1,.2,0Zm13.52,16.89.61,1.86a.1.1,0,0,0,.1.07h2a.12.12,0,0,1,.11.11.1.1,0,0,1,0,.08l-1.58,1.15a.11.11,0,0,0,0,.12l.6,1.85a.11.11,0,0,1-.07.14.12.12,0,0,1-.1,0l-1.57-1.14a.11.11,0,0,0-.13,0l-1.57,1.14a.1.1,0,0,1-.15,0,.12.12,0,0,1,0-.1l.6-1.85a.11.11,0,0,0,0-.12l-1.58-1.15a.11.11,0,0,1,0-.15.15.15,0,0,1,.09,0h2a.1.1,0,0,0,.1-.07l.61-1.86a.1.1,0,0,1,.14,0,.1.1,0,0,1,.05.06Zm-122.9,3.31.6,1.85a.12.12,0,0,0,.1.07H177a.11.11,0,0,1,.11.11.13.13,0,0,1,0,.09l-1.58,1.14a.11.11,0,0,0,0,.12l.6,1.86a.1.1,0,0,1-.06.13.11.11,0,0,1-.1,0l-1.58-1.15a.09.09,0,0,0-.12,0l-1.58,1.15a.11.11,0,0,1-.15,0,.09.09,0,0,1,0-.09l.6-1.86a.11.11,0,0,0,0-.12l-1.57-1.14a.11.11,0,0,1,0-.15.16.16,0,0,1,.09-.05h1.95a.12.12,0,0,0,.1-.07l.6-1.85a.11.11,0,0,1,.14-.06l.06.06Zm97.07-87.33L272,230a.11.11,0,0,0,.1.07h1.95a.11.11,0,0,1,.11.11.12.12,0,0,1-.05.09l-1.57,1.14a.1.1,0,0,0,0,.12l.6,1.85a.11.11,0,0,1-.06.14.09.09,0,0,1-.1,0l-1.58-1.14a.09.09,0,0,0-.12,0l-1.58,1.14a.1.1,0,0,1-.15,0,.12.12,0,0,1,0-.1l.61-1.85a.11.11,0,0,0,0-.12l-1.58-1.14a.1.1,0,0,1,0-.15.11.11,0,0,1,.09,0h1.94a.12.12,0,0,0,.11-.07l.6-1.86a.11.11,0,0,1,.14-.05l.06.06Zm-128.7,84.09.6,1.85a.1.1,0,0,0,.1.07h2a.11.11,0,0,1,.11.11.11.11,0,0,1,0,.09l-1.57,1.14a.11.11,0,0,0,0,.12l.6,1.86a.1.1,0,0,1-.07.13.1.1,0,0,1-.09,0l-1.58-1.15a.09.09,0,0,0-.12,0L141,317.58a.11.11,0,0,1-.15,0,.1.1,0,0,1,0-.09l.61-1.86a.11.11,0,0,0,0-.12l-1.58-1.14a.12.12,0,0,1,0-.15.11.11,0,0,1,.09-.05h1.95a.1.1,0,0,0,.1-.07l.6-1.85a.11.11,0,0,1,.14-.05.1.1,0,0,1,.06.05Zm-13-13.53.6,1.85a.1.1,0,0,0,.11.07h1.94a.11.11,0,0,1,.11.11.1.1,0,0,1,0,.09L130.9,302a.11.11,0,0,0,0,.12l.61,1.86a.11.11,0,0,1-.07.13.12.12,0,0,1-.1,0l-1.57-1.15a.11.11,0,0,0-.13,0L128,304.05a.11.11,0,0,1-.15,0,.09.09,0,0,1,0-.09l.6-1.86a.1.1,0,0,0,0-.12l-1.57-1.14a.11.11,0,0,1,0-.15.16.16,0,0,1,.09-.05h2a.09.09,0,0,0,.1-.07l.6-1.85a.11.11,0,0,1,.15-.05l0,.05Zm18-36.82,1.09,3.36a.19.19,0,0,0,.18.14h3.54a.19.19,0,0,1,.19.19.21.21,0,0,1-.08.16l-2.85,2.08a.2.2,0,0,0-.08.21l1.1,3.37a.2.2,0,0,1-.13.24.2.2,0,0,1-.17,0l-2.86-2.08a.2.2,0,0,0-.23,0l-2.86,2.08a.19.19,0,0,1-.27-.05.17.17,0,0,1,0-.17l1.09-3.37a.18.18,0,0,0-.07-.21l-2.86-2.08a.18.18,0,0,1,0-.27.18.18,0,0,1,.15-.08h3.54a.21.21,0,0,0,.19-.14l1.09-3.36a.21.21,0,0,1,.25-.12.19.19,0,0,1,.11.12Zm-1.53,28,1.09,3.36a.2.2,0,0,0,.19.14h3.53a.2.2,0,0,1,.2.19.21.21,0,0,1-.08.16l-2.86,2.08a.18.18,0,0,0-.07.21l1.09,3.37a.18.18,0,0,1-.12.24.22.22,0,0,1-.18,0l-2.86-2.08a.2.2,0,0,0-.23,0l-2.86,2.08a.19.19,0,0,1-.27-.05.17.17,0,0,1,0-.17l1.1-3.37a.2.2,0,0,0-.08-.21L141,293.73a.19.19,0,0,1-.05-.27.21.21,0,0,1,.16-.08h3.54a.19.19,0,0,0,.18-.14l1.09-3.36a.2.2,0,0,1,.26-.11.2.2,0,0,1,.11.11Zm40,10.29,1.09,3.36a.2.2,0,0,0,.19.14h3.53a.19.19,0,0,1,.2.19.21.21,0,0,1-.08.16l-2.86,2.08a.18.18,0,0,0-.07.21l1.09,3.37a.2.2,0,0,1-.13.24.2.2,0,0,1-.17,0l-2.86-2.08a.2.2,0,0,0-.23,0l-2.86,2.08a.19.19,0,0,1-.27,0,.17.17,0,0,1,0-.17l1.09-3.37a.18.18,0,0,0-.07-.21L181,304a.19.19,0,0,1,.12-.35h3.53a.2.2,0,0,0,.19-.14l1.09-3.36a.19.19,0,0,1,.25-.11.18.18,0,0,1,.12.12Zm42.3.95,1.09,3.36a.2.2,0,0,0,.19.14h3.53a.2.2,0,0,1,.2.19.19.19,0,0,1-.08.16l-2.86,2.08a.19.19,0,0,0-.07.22l1.09,3.36a.21.21,0,0,1-.12.25.19.19,0,0,1-.18,0l-2.86-2.08a.2.2,0,0,0-.23,0l-2.86,2.08a.2.2,0,0,1-.27,0,.2.2,0,0,1,0-.18l1.09-3.36a.19.19,0,0,0-.07-.22L223.27,305a.2.2,0,0,1,0-.27.21.21,0,0,1,.16-.08h3.53a.2.2,0,0,0,.19-.14l1.09-3.36a.19.19,0,0,1,.25-.11.18.18,0,0,1,.12.12Zm51-49.38,1.09,3.36a.19.19,0,0,0,.18.14h3.54a.19.19,0,0,1,.19.19.19.19,0,0,1-.08.16l-2.86,2.08a.22.22,0,0,0-.07.22l1.1,3.36a.21.21,0,0,1-.13.25.25.25,0,0,1-.17,0l-2.86-2.08a.2.2,0,0,0-.23,0l-2.86,2.08a.19.19,0,0,1-.27-.05.17.17,0,0,1,0-.17l1.09-3.36a.19.19,0,0,0-.07-.22l-2.86-2.08a.18.18,0,0,1,0-.27.19.19,0,0,1,.15-.08h3.54a.2.2,0,0,0,.19-.14l1.09-3.36a.18.18,0,0,1,.25-.1.2.2,0,0,1,.11.11Zm-29.73-3.43,1.09,3.36a.2.2,0,0,0,.19.14h3.53a.2.2,0,0,1,.2.19.19.19,0,0,1-.08.16l-2.86,2.08a.19.19,0,0,0-.07.22l1.09,3.36a.2.2,0,0,1-.13.25.17.17,0,0,1-.17,0L249.77,256a.2.2,0,0,0-.23,0L246.68,258a.19.19,0,0,1-.27-.05.17.17,0,0,1,0-.17l1.09-3.36a.19.19,0,0,0-.07-.22l-2.86-2.08a.2.2,0,0,1,0-.27.21.21,0,0,1,.16-.08h3.53a.2.2,0,0,0,.19-.14l1.09-3.36a.19.19,0,0,1,.25-.11.18.18,0,0,1,.12.12Z"/><path id="Path_726" data-name="Path 726" class="cls-11" d="M287.75,298c-11.31-8.9-18.69-14.29-22.55-19.8-.81-16.69-2.28-33-5-39.44a.49.49,0,0,0-1,.18c-.16,11.53-1.43,71.34-10.35,84.73a.49.49,0,0,0,.13.68.5.5,0,0,0,.27.08l16.34.24a.5.5,0,0,0,.5-.48h0c0-2.77,0-16.9-.45-33.09,2,4.06,5.78,8.92,12.64,10.46,11.2,2.51,19.93,8.93,21.94,17a.28.28,0,0,0,.33.21.27.27,0,0,0,.21-.3C300.56,314.42,298.48,306.46,287.75,298Z"/><path id="Path_727" data-name="Path 727" class="cls-11" d="M163.83,292.19c-.89-8.29-4.58-43.72-4.69-59.74a.36.36,0,0,0-.71-.07c-1.64,7.84-5.39,27.62-5.66,45.31-4.51.76-20.39,3.92-24.2,11.31a26.37,26.37,0,0,0-3,14.61.41.41,0,0,0,.82,0c.72-4.59,3.36-13,13.06-14.9h0a71.73,71.73,0,0,1,13.57-.9,55.26,55.26,0,0,0,1.58,9.81,1.29,1.29,0,0,0,1.58.92,1.47,1.47,0,0,0,.34-.15l5.93-3.55A2.8,2.8,0,0,0,163.83,292.19Z"/><g id="Phone"><rect id="Rectangle_70" data-name="Rectangle 70" class="cls-12" x="195.53" y="241.42" width="28.77" height="62.43" rx="4.6" transform="translate(-80.42 457.29) rotate(-84.86)"/><rect id="Rectangle_71" data-name="Rectangle 71" class="cls-9" x="195.18" y="240.82" width="28.78" height="62.43" rx="4.6" transform="translate(-80.23 456.28) rotate(-84.84)"/><path id="Path_728" data-name="Path 728" class="cls-13" d="M237,267a2.05,2.05,0,0,1-.09-4.1,2.09,2.09,0,0,1,1.47.54,2.05,2.05,0,0,1,.67,1.42h0a2.07,2.07,0,0,1-2,2.14Zm0-3.64h-.07a1.59,1.59,0,1,0,1.65,1.52h0a1.58,1.58,0,0,0-1.58-1.52Z"/><path id="Path_729" data-name="Path 729" class="cls-13" d="M231.55,266.19a2.05,2.05,0,1,1,.08,0Zm0-3.64h-.07a1.59,1.59,0,0,0,.06,3.18h.07a1.59,1.59,0,0,0,1.52-1.66h0A1.58,1.58,0,0,0,231.55,262.55Z"/><path id="Path_730" data-name="Path 730" class="cls-13" d="M233.68,270.37a2,2,0,0,1-.08-4.09,2.07,2.07,0,0,1,2.13,2,2,2,0,0,1-2,2.13Zm0-3.64h-.06a1.59,1.59,0,1,0,.13,3.18,1.58,1.58,0,0,0,1.52-1.65h0a1.59,1.59,0,0,0-1.59-1.52Z"/><path id="Path_731" data-name="Path 731" class="cls-13" d="M236.53,271.63h-.29l-5.75-.56a3,3,0,0,1-2.71-3.3l.4-4.1a3,3,0,0,1,3.3-2.71l5.75.56a3,3,0,0,1,2.71,3.3l-.4,4.1A3,3,0,0,1,236.53,271.63Zm-5.35-10.24a2.54,2.54,0,0,0-2.54,2.31l-.41,4.11a2.57,2.57,0,0,0,2.3,2.79l5.75.56a2.56,2.56,0,0,0,2.8-2.29h0l.4-4.11a2.56,2.56,0,0,0-2.3-2.79h0l-5.75-.56-.25,0Z"/></g><path id="Skin-6" class="cls-6" d="M153.15,288.18a.21.21,0,0,1,0-.16c.68-.95,7.69-10.62,14.12-14.19a64.86,64.86,0,0,1,9.65-4.55,1,1,0,0,1,1.14.31,1.89,1.89,0,0,1,.32,2.28.36.36,0,0,0,.08.5.35.35,0,0,0,.23.06c2.66-.2,10.31-.82,11.4.59a1.75,1.75,0,0,1-.26,2.2.11.11,0,0,0,0,.16.11.11,0,0,0,.12,0c1.08-.46,3.73-1.4,4.34-.32s-.83,2.77-1.68,3.61a1.15,1.15,0,0,0-.3,1.13c.21.75.26,2.19-1.21,4.28a18.49,18.49,0,0,1-1.73,2.33.79.79,0,0,0-.22.72c.3,1.41.71,6-5.75,9.34-7.12,3.65-18.09,5.85-21.19,6.16a1.18,1.18,0,0,0-.9.59l-1.24,2.28a.21.21,0,0,1-.29.08.2.2,0,0,1-.09-.09C158.77,303.43,154.12,293.3,153.15,288.18Z"/><path id="Skin-7" class="cls-3" d="M163.29,293.36a14.49,14.49,0,0,1-7-9.33c-1.69,2-2.84,3.63-3.1,4a.21.21,0,0,0,0,.16c1,5.12,5.62,15.25,6.59,17.33a.21.21,0,0,0,.28.1.2.2,0,0,0,.09-.09l1.25-2.28a1.18,1.18,0,0,1,.9-.59,71.15,71.15,0,0,0,9.25-1.87C170.28,298.38,167.77,295.82,163.29,293.36Z"/><path id="Path_734" data-name="Path 734" class="cls-10" d="M154.14,288a1.88,1.88,0,0,0-.83-.26c-2.16-.2-11.52-.83-18,2.3-7.37,3.55-11.44,15.49-11.31,21s8.26,10.67,16,9.27,11.59-.9,20-14.13a2.08,2.08,0,0,0,.31-1.33C160,301.83,158.5,290.75,154.14,288Z"/><path id="Skin-8" class="cls-6" d="M266.94,293.8a.3.3,0,0,0,0-.34c-1.14-1.63-10.39-14.69-15.76-18.67-5.72-4.25-9.78-7.2-11.08-7.2s-1.79,3.52.4,5.29a.05.05,0,0,1,0,.08,0,0,0,0,1-.06,0c-1.91-.69-9.88-3.32-12-1.51-1,.87-.74,2.95-.74,2.95h0s-3.14-2.77-4.61-1.48-.34,2.91,1.61,4.18a.32.32,0,0,1,.08.45l-.06.07c-.69.57-1.77,2.09,1.32,4.91l1.78,1.63a.33.33,0,0,1,0,.46.32.32,0,0,1-.18.1c-.85.18-2,.81-.88,3,1.66,3.13,11.62,14.21,20.67,15.32h0c.16,0,8,1.93,11,5a.33.33,0,0,0,.46,0L259,308Z"/><path id="Skin-9" class="cls-3" d="M263.87,289.24c-2.1,2.39-6.36,6.78-9.41,6.87a8.09,8.09,0,0,0-7.6,6.84l.6.09h0c.16,0,7.95,1.93,11,5a.33.33,0,0,0,.46,0L259,308l8-14.2a.32.32,0,0,0,0-.34C266.57,293,265.43,291.34,263.87,289.24Z"/><path id="Path_737" data-name="Path 737" class="cls-10" d="M258.82,308.54s-.41,14.12,13.46,19.84a67.69,67.69,0,0,0,26,5.33c.76,0,5.09-3,4-16.19a.61.61,0,0,0-.14-.34c-1.05-1.24-8.77-10.13-16.54-13.32-8.19-3.36-12-1.84-18.22-9.82a.57.57,0,0,0-.81-.11l-.05,0C264.74,295.75,258.31,302.51,258.82,308.54Z"/><path id="Path_738" data-name="Path 738" class="cls-11" d="M229.06,215.44s-5.21,11.05-21.09,10.42c-14.47-.58-22.33-13.34-22.33-13.34s-.82-.09-2.27-.12c1.66,2.91,10.33,16.17,26.19,15.84,13.62-.28,18.32-7.67,21.79-12.66C229.9,215.48,229.06,215.44,229.06,215.44Z"/></g><g id="Legs"><path id="Path_739" data-name="Path 739" class="cls-6" d="M228.55,386.54a1.81,1.81,0,0,0,1.31,2.19l.28,0c7.06.62,29.74,2.66,34.87,3.62,6.1,1.14,20.2,8.76,33.54-6.1,0,0,9.8-9.58,7.9-10.11-.66-.18-38.52,2.74-66-10,0,0-5-2.29-6.73,1.91C232.37,371.41,229.67,382,228.55,386.54Z"/><path id="Path_740" data-name="Path 740" class="cls-3" d="M233.76,368.14c-1.39,3.27-4.09,13.89-5.21,18.4a1.81,1.81,0,0,0,1.33,2.19,1.26,1.26,0,0,0,.27,0c7,.63,29.73,2.67,34.86,3.63,3,.55,7.79,2.62,13.5,2.92,1.27-2.36.29-5.32-5.37-10.16A161.86,161.86,0,0,0,253.5,371a88.27,88.27,0,0,1-13-4.75S235.54,364,233.76,368.14Z"/><path id="Path_741" data-name="Path 741" class="cls-14" d="M163.31,322.28h-.11c-1.74.21-48.64,5.84-64,12.58-15.63,6.86-19.44,16.39-6.48,37.35s22.48,19.43,51.83,19.81c27.78.36,81.15-1,86.79-1.13a.87.87,0,0,0,.74-.43c1.39-2.35,7.9-13.95,5.85-22.37a.89.89,0,0,1,.67-1.07.87.87,0,0,1,.48,0c7.52,2.47,39.43,9.63,57,10.12,22.86.64,41.66-16.26,34.8-33.54s-18-21.33-28.43-20.58h-.05Z"/><g class="cls-15"><g id="Group_1387" data-name="Group 1387"><g id="Group_1386" data-name="Group 1386" class="cls-16"><path id="Path_742" data-name="Path 742" class="cls-7" d="M105.24,285.87l.73,2.23a.11.11,0,0,0,.12.09h2.35a.13.13,0,0,1,.13.13.12.12,0,0,1,0,.1l-1.9,1.38a.13.13,0,0,0-.05.15l.72,2.24a.12.12,0,0,1-.08.16.11.11,0,0,1-.11,0L105.19,291a.14.14,0,0,0-.15,0l-1.9,1.38a.14.14,0,0,1-.19,0,.11.11,0,0,1,0-.11l.72-2.24a.13.13,0,0,0,0-.15l-1.9-1.38a.13.13,0,0,1,0-.18.16.16,0,0,1,.11-.05h2.35a.11.11,0,0,0,.12-.09l.73-2.23a.13.13,0,0,1,.16-.09A.14.14,0,0,1,105.24,285.87Zm-19.4,7.39-1.11,3.41a.18.18,0,0,1-.18.13H81a.2.2,0,0,0-.2.2.19.19,0,0,0,.09.16l2.9,2.11a.22.22,0,0,1,.07.22l-1.11,3.41a.2.2,0,0,0,.12.25.19.19,0,0,0,.18,0l2.9-2.11a.21.21,0,0,1,.24,0l2.9,2.11a.2.2,0,0,0,.27,0,.2.2,0,0,0,0-.18l-1.11-3.41a.21.21,0,0,1,.08-.22l2.9-2.11a.21.21,0,0,0,0-.28.21.21,0,0,0-.16-.08H87.51a.18.18,0,0,1-.18-.13l-1.11-3.41a.2.2,0,0,0-.25-.13A.21.21,0,0,0,85.84,293.26ZM110,301.08l.79,2.42a.14.14,0,0,0,.13.1h2.55a.14.14,0,0,1,.14.14.14.14,0,0,1-.06.11l-2.06,1.5a.13.13,0,0,0,0,.15l.79,2.43a.14.14,0,0,1-.09.17.12.12,0,0,1-.13,0l-2.06-1.49a.12.12,0,0,0-.16,0l-2.06,1.49a.13.13,0,0,1-.2,0,.13.13,0,0,1,0-.12l.79-2.43a.14.14,0,0,0,0-.15l-2.06-1.5a.13.13,0,0,1,0-.2.14.14,0,0,1,.11,0h2.55a.14.14,0,0,0,.13-.1l.79-2.42a.13.13,0,0,1,.26,0ZM131.4,317.4l.78,2.43a.14.14,0,0,0,.14.09h2.54a.15.15,0,0,1,.15.14.14.14,0,0,1-.06.12l-2.06,1.49a.14.14,0,0,0,0,.16l.79,2.42a.14.14,0,0,1-.1.18.13.13,0,0,1-.12,0l-2.06-1.5a.17.17,0,0,0-.17,0l-2.06,1.5a.13.13,0,0,1-.19,0,.12.12,0,0,1,0-.13l.78-2.42a.14.14,0,0,0-.05-.16l-2.06-1.49a.15.15,0,0,1,0-.2.14.14,0,0,1,.12-.06h2.54a.14.14,0,0,0,.13-.09l.79-2.43a.14.14,0,0,1,.17-.09A.18.18,0,0,1,131.4,317.4Zm28.8-22.74.78,2.43a.16.16,0,0,0,.14.09h2.55a.14.14,0,0,1,.08.26l-2.06,1.49a.14.14,0,0,0-.05.16l.79,2.42a.15.15,0,0,1-.09.18.19.19,0,0,1-.13,0l-2.06-1.5a.17.17,0,0,0-.17,0l-2,1.5a.15.15,0,0,1-.2,0,.15.15,0,0,1,0-.13l.79-2.42a.17.17,0,0,0-.06-.16l-2.06-1.49a.15.15,0,0,1,0-.2.14.14,0,0,1,.12-.06H159a.16.16,0,0,0,.14-.09l.78-2.43a.14.14,0,0,1,.18-.08.14.14,0,0,1,.09.08Zm-58.67,19.5,1.12,3.43a.2.2,0,0,0,.19.14h3.6a.19.19,0,0,1,.2.2.21.21,0,0,1-.08.16l-2.92,2.12a.19.19,0,0,0-.07.22l1.11,3.43a.19.19,0,0,1-.3.22L101.46,322a.2.2,0,0,0-.23,0l-2.92,2.12a.22.22,0,0,1-.28,0,.2.2,0,0,1,0-.18l1.12-3.44a.21.21,0,0,0-.08-.22l-2.91-2.12a.2.2,0,0,1,0-.28.21.21,0,0,1,.16-.08h3.61a.19.19,0,0,0,.19-.14l1.11-3.43a.2.2,0,0,1,.25-.12.17.17,0,0,1,.13.13Zm31.38-13.85,1.11,3.43a.2.2,0,0,0,.19.14h3.61a.2.2,0,0,1,.2.2.19.19,0,0,1-.09.16L135,306.36a.22.22,0,0,0-.07.22l1.12,3.43a.2.2,0,0,1-.13.25.19.19,0,0,1-.18,0l-2.92-2.12a.2.2,0,0,0-.23,0l-2.92,2.12a.2.2,0,0,1-.28,0,.23.23,0,0,1,0-.18l1.12-3.43a.19.19,0,0,0-.07-.22l-2.92-2.12a.21.21,0,0,1,0-.28.21.21,0,0,1,.16-.08h3.61a.2.2,0,0,0,.19-.14l1.12-3.43a.18.18,0,0,1,.24-.13.17.17,0,0,1,.14.13ZM78.36,314.5l.79,2.41a.14.14,0,0,0,.13.09h2.53a.15.15,0,0,1,.15.14.16.16,0,0,1-.06.12l-2.05,1.48a.14.14,0,0,0,0,.16l.78,2.41a.14.14,0,0,1-.09.18.16.16,0,0,1-.12,0L78.32,320a.14.14,0,0,0-.17,0l-2.05,1.49a.14.14,0,0,1-.19,0,.13.13,0,0,1,0-.13l.78-2.41a.14.14,0,0,0,0-.16l-2.05-1.48a.14.14,0,0,1,0-.2.14.14,0,0,1,.11-.06h2.54a.14.14,0,0,0,.13-.09l.78-2.41a.15.15,0,0,1,.18-.09A.14.14,0,0,1,78.36,314.5Zm50.06,33.83.79,2.41a.13.13,0,0,0,.13.1h2.53a.14.14,0,0,1,.15.13.14.14,0,0,1-.06.12l-2.05,1.49a.13.13,0,0,0,0,.15l.78,2.41a.15.15,0,0,1-.09.18.15.15,0,0,1-.13,0l-2-1.49a.14.14,0,0,0-.17,0l-2.05,1.49a.14.14,0,0,1-.19,0,.12.12,0,0,1,0-.13l.78-2.41a.13.13,0,0,0,0-.15l-2.05-1.49a.14.14,0,0,1,0-.2.12.12,0,0,1,.11-.05h2.54a.14.14,0,0,0,.13-.1l.78-2.41a.14.14,0,0,1,.18-.08.14.14,0,0,1,.09.08Zm8.21-18.95.78,2.41a.14.14,0,0,0,.13.09h2.53a.14.14,0,0,1,.14.14.13.13,0,0,1-.05.11l-2,1.49a.14.14,0,0,0-.05.16l.78,2.41a.16.16,0,0,1-.09.18.16.16,0,0,1-.13,0l-2.05-1.48a.12.12,0,0,0-.16,0l-2,1.48a.14.14,0,0,1-.2,0,.16.16,0,0,1,0-.12l.79-2.41a.14.14,0,0,0-.05-.16l-2-1.49a.12.12,0,0,1,0-.19.11.11,0,0,1,.11-.06h2.53a.16.16,0,0,0,.14-.09l.78-2.41a.14.14,0,0,1,.17-.1.14.14,0,0,1,.1.1Zm17.39-11,.78,2.41a.15.15,0,0,0,.14.1h2.53a.14.14,0,0,1,.14.14.13.13,0,0,1-.06.11l-2.05,1.49a.14.14,0,0,0-.05.16l.78,2.41a.12.12,0,0,1-.09.17.11.11,0,0,1-.12,0L154,323.85a.15.15,0,0,0-.16,0l-2.05,1.49a.14.14,0,0,1-.2,0,.13.13,0,0,1,0-.12l.78-2.41a.14.14,0,0,0,0-.16l-2.05-1.49a.14.14,0,0,1,0-.19.14.14,0,0,1,.12-.06h2.53a.15.15,0,0,0,.14-.1l.78-2.41a.13.13,0,0,1,.18-.08.11.11,0,0,1,.08.08Zm36.38,21.8.79,2.41a.13.13,0,0,0,.13.1h2.53a.14.14,0,0,1,.14.14.14.14,0,0,1-.06.11l-2.05,1.49a.17.17,0,0,0,0,.15l.79,2.41a.15.15,0,0,1-.09.18.12.12,0,0,1-.13,0l-2.05-1.49a.15.15,0,0,0-.16,0l-2.05,1.49a.14.14,0,0,1-.2,0,.19.19,0,0,1,0-.13l.79-2.41a.15.15,0,0,0-.06-.15l-2-1.49a.15.15,0,0,1,0-.2.17.17,0,0,1,.12-.05h2.53a.13.13,0,0,0,.13-.1l.79-2.41a.14.14,0,0,1,.17-.1.17.17,0,0,1,.1.1ZM65,335.51l.6,1.85a.14.14,0,0,0,.1.08h2a.1.1,0,0,1,.11.1.11.11,0,0,1,0,.09l-1.57,1.14a.1.1,0,0,0,0,.12l.6,1.86a.1.1,0,0,1-.06.13.11.11,0,0,1-.1,0L65,339.72a.13.13,0,0,0-.12,0l-1.58,1.15a.11.11,0,0,1-.15,0,.1.1,0,0,1,0-.09l.61-1.86a.11.11,0,0,0,0-.12l-1.58-1.14a.1.1,0,0,1,0-.15.08.08,0,0,1,.09,0h1.94a.12.12,0,0,0,.1-.08l.61-1.85a.11.11,0,0,1,.14-.07.13.13,0,0,1,.06.07Zm116.07-44.83.6,1.85a.11.11,0,0,0,.1.08h1.95a.11.11,0,0,1,.11.1.13.13,0,0,1,0,.09L182.25,294a.1.1,0,0,0,0,.12l.6,1.85a.11.11,0,0,1-.06.14.12.12,0,0,1-.1,0l-1.58-1.14a.09.09,0,0,0-.12,0L179.37,296a.11.11,0,0,1-.15,0,.12.12,0,0,1,0-.1l.6-1.85a.1.1,0,0,0,0-.12l-1.58-1.15a.12.12,0,0,1,0-.15.1.1,0,0,1,.09,0h2a.11.11,0,0,0,.1-.08l.6-1.85a.12.12,0,0,1,.14-.06.09.09,0,0,1,.06.06Zm37.4,56,.6,1.86a.12.12,0,0,0,.1.07h1.95a.11.11,0,0,1,.11.11.12.12,0,0,1,0,.08l-1.58,1.15a.11.11,0,0,0,0,.12l.6,1.85a.11.11,0,0,1-.06.14.12.12,0,0,1-.1,0l-1.58-1.14a.09.09,0,0,0-.12,0L216.77,352a.1.1,0,0,1-.15,0,.12.12,0,0,1,0-.1l.6-1.85a.11.11,0,0,0,0-.12l-1.58-1.15a.12.12,0,0,1,0-.15.13.13,0,0,1,.09,0h2a.12.12,0,0,0,.1-.07l.6-1.86a.11.11,0,0,1,.14-.06.12.12,0,0,1,.06.06Zm-59.29,7.69.6,1.85a.12.12,0,0,0,.11.07h1.94a.11.11,0,0,1,.11.11.15.15,0,0,1,0,.09l-1.58,1.14a.11.11,0,0,0,0,.12l.61,1.86a.12.12,0,0,1-.07.13.11.11,0,0,1-.1,0l-1.58-1.15a.09.09,0,0,0-.12,0l-1.58,1.15a.11.11,0,0,1-.15,0,.1.1,0,0,1,0-.09l.6-1.86a.11.11,0,0,0,0-.12l-1.58-1.14a.12.12,0,0,1,0-.15.11.11,0,0,1,.09-.05h1.95a.12.12,0,0,0,.1-.07l.6-1.85a.11.11,0,0,1,.14-.07.11.11,0,0,1,.06.07Zm11.21-25.48.61,1.85a.1.1,0,0,0,.1.08h2a.1.1,0,0,1,.1.1.1.1,0,0,1,0,.09l-1.58,1.14a.12.12,0,0,0,0,.13l.61,1.85a.1.1,0,0,1-.07.13.12.12,0,0,1-.1,0l-1.57-1.15a.15.15,0,0,0-.13,0l-1.58,1.15a.11.11,0,0,1-.15,0,.09.09,0,0,1,0-.09l.6-1.85a.11.11,0,0,0,0-.13L167.52,331a.11.11,0,0,1,0-.15.11.11,0,0,1,.09,0h1.95a.1.1,0,0,0,.1-.08l.6-1.85a.12.12,0,0,1,.15-.06A.1.1,0,0,1,170.43,328.86Zm-48.56.89.61,1.85a.1.1,0,0,0,.1.08h2a.12.12,0,0,1,.11.11.1.1,0,0,1,0,.08L123,333a.1.1,0,0,0,0,.12l.6,1.85a.11.11,0,0,1-.07.14.12.12,0,0,1-.1,0L121.84,334a.11.11,0,0,0-.13,0l-1.57,1.14a.1.1,0,0,1-.15,0,.12.12,0,0,1,0-.1l.61-1.85a.13.13,0,0,0,0-.12L119,331.87a.1.1,0,0,1,0-.15.12.12,0,0,1,.08,0h2a.1.1,0,0,0,.1-.08l.61-1.85a.1.1,0,0,1,.14-.05.1.1,0,0,1,.05.06Zm49.84-19.95.61,1.85a.1.1,0,0,0,.1.07h2a.11.11,0,0,1,.1.11.1.1,0,0,1,0,.09l-1.58,1.14a.11.11,0,0,0,0,.12l.61,1.86a.1.1,0,0,1-.07.13.12.12,0,0,1-.1,0L171.68,314a.15.15,0,0,0-.13,0L170,315.16a.12.12,0,0,1-.15,0,.1.1,0,0,1,0-.1l.6-1.86a.1.1,0,0,0,0-.12l-1.57-1.14a.11.11,0,0,1,0-.15.12.12,0,0,1,.09,0h1.95a.1.1,0,0,0,.1-.07l.61-1.85a.1.1,0,0,1,.14-.06l.05.06Zm17.53-7.24.61,1.85a.1.1,0,0,0,.1.07h2a.1.1,0,0,1,.1.11.09.09,0,0,1,0,.09l-1.58,1.14a.11.11,0,0,0,0,.12l.6,1.85a.11.11,0,0,1-.07.14.12.12,0,0,1-.1,0l-1.57-1.15a.11.11,0,0,0-.13,0l-1.57,1.15a.11.11,0,0,1-.15,0s0-.06,0-.1l.6-1.85a.11.11,0,0,0,0-.12l-1.58-1.14a.11.11,0,0,1,.06-.2h2a.1.1,0,0,0,.1-.07l.61-1.85a.1.1,0,0,1,.19,0Zm13.57,38.56.6,1.85a.12.12,0,0,0,.11.08h1.94a.1.1,0,0,1,.11.1.1.1,0,0,1,0,.09L204,344.39a.1.1,0,0,0,0,.12l.61,1.85a.1.1,0,0,1-.07.13.09.09,0,0,1-.1,0l-1.57-1.15a.15.15,0,0,0-.13,0l-1.58,1.15a.11.11,0,0,1-.15,0,.09.09,0,0,1,0-.09l.6-1.85a.09.09,0,0,0,0-.12l-1.57-1.15a.11.11,0,0,1,0-.15.1.1,0,0,1,.09,0h1.95a.11.11,0,0,0,.1-.08l.6-1.85a.12.12,0,0,1,.14-.06.17.17,0,0,1,.06.06ZM96,350.14l.6,1.85a.12.12,0,0,0,.11.08h1.94a.11.11,0,0,1,.11.1.1.1,0,0,1,0,.09l-1.58,1.15a.11.11,0,0,0,0,.12l.61,1.85a.11.11,0,0,1-.07.14.12.12,0,0,1-.1,0L96,354.36a.11.11,0,0,0-.13,0l-1.58,1.14a.1.1,0,0,1-.15,0,.12.12,0,0,1,0-.1l.6-1.85a.1.1,0,0,0,0-.12l-1.58-1.14a.12.12,0,0,1,0-.15.11.11,0,0,1,.09-.05h1.94a.12.12,0,0,0,.11-.07l.6-1.85a.11.11,0,0,1,.14-.07.12.12,0,0,1,.06.06Zm108.76-52.91.6,1.86a.12.12,0,0,0,.11.07h1.94a.11.11,0,0,1,.11.11.09.09,0,0,1,0,.08l-1.58,1.15a.11.11,0,0,0,0,.12l.61,1.85a.11.11,0,0,1-.07.14.12.12,0,0,1-.1,0l-1.57-1.14a.11.11,0,0,0-.13,0l-1.58,1.14a.1.1,0,0,1-.15,0,.12.12,0,0,1,0-.1l.6-1.85a.1.1,0,0,0,0-.12l-1.57-1.15a.1.1,0,0,1,0-.14.12.12,0,0,1,.09,0h1.95a.1.1,0,0,0,.1-.07l.61-1.86a.11.11,0,0,1,.14-.05.1.1,0,0,1,0,.06ZM81.15,331l1.09,3.36a.2.2,0,0,0,.18.14H86a.19.19,0,0,1,.2.19.25.25,0,0,1-.08.16l-2.86,2.07a.19.19,0,0,0-.07.22l1.09,3.37a.19.19,0,0,1-.13.24.2.2,0,0,1-.17,0l-2.86-2.08a.2.2,0,0,0-.23,0L78,340.71a.19.19,0,0,1-.27,0,.17.17,0,0,1,0-.17l1.09-3.37a.19.19,0,0,0-.07-.22l-2.86-2.07a.22.22,0,0,1,0-.28.24.24,0,0,1,.16-.07H79.5a.2.2,0,0,0,.19-.14L80.78,331a.19.19,0,0,1,.25-.12.18.18,0,0,1,.12.12Zm26.8,3.88,1.09,3.36a.2.2,0,0,0,.19.14h3.53a.2.2,0,0,1,.2.19.21.21,0,0,1-.08.16L110,340.79a.18.18,0,0,0-.07.21l1.09,3.37a.19.19,0,0,1-.13.24.2.2,0,0,1-.17,0l-2.86-2.08a.2.2,0,0,0-.23,0l-2.86,2.08a.19.19,0,0,1-.27,0,.17.17,0,0,1,0-.17l1.09-3.37a.18.18,0,0,0-.07-.21l-2.86-2.08a.2.2,0,0,1,0-.27.19.19,0,0,1,.16-.08h3.53a.2.2,0,0,0,.19-.14l1.09-3.36a.2.2,0,0,1,.25-.13.22.22,0,0,1,.12.13Zm42.3.95,1.09,3.36a.2.2,0,0,0,.19.14h3.53a.19.19,0,0,1,.2.19.21.21,0,0,1-.08.16l-2.86,2.08a.18.18,0,0,0-.07.21l1.09,3.37a.19.19,0,0,1-.12.24.22.22,0,0,1-.18,0l-2.86-2.08a.2.2,0,0,0-.23,0l-2.86,2.08a.19.19,0,0,1-.27-.05.17.17,0,0,1,0-.17l1.1-3.37a.2.2,0,0,0-.08-.21L145,339.66a.2.2,0,0,1-.05-.27.21.21,0,0,1,.16-.08h3.54a.19.19,0,0,0,.18-.14l1.09-3.36a.2.2,0,0,1,.25-.12.18.18,0,0,1,.12.12Zm62.69-15,1.09,3.37a.19.19,0,0,0,.18.13h3.54a.19.19,0,0,1,.19.2.2.2,0,0,1-.07.15L215,326.78a.21.21,0,0,0-.08.22l1.1,3.36a.19.19,0,0,1-.13.25.17.17,0,0,1-.17,0l-2.86-2.07a.2.2,0,0,0-.23,0l-2.86,2.07a.18.18,0,0,1-.27,0,.19.19,0,0,1,0-.18l1.09-3.36a.19.19,0,0,0-.07-.22l-2.86-2.08a.19.19,0,0,1,0-.27.19.19,0,0,1,.16-.08h3.53a.2.2,0,0,0,.19-.13l1.09-3.37a.2.2,0,0,1,.25-.12.22.22,0,0,1,.12.13Zm-29.73-3.43,1.09,3.37a.2.2,0,0,0,.19.13H188a.2.2,0,0,1,.2.2.18.18,0,0,1-.08.15l-2.86,2.08a.19.19,0,0,0-.07.22l1.09,3.36a.2.2,0,0,1-.12.25.19.19,0,0,1-.18,0l-2.86-2.07a.2.2,0,0,0-.23,0l-2.86,2.07a.18.18,0,0,1-.27,0,.19.19,0,0,1,0-.18l1.09-3.36a.19.19,0,0,0-.07-.22l-2.86-2.08a.2.2,0,0,1,0-.27.21.21,0,0,1,.16-.08h3.53a.2.2,0,0,0,.19-.13l1.09-3.37a.2.2,0,0,1,.25-.12.2.2,0,0,1,.12.12Zm-78,42,.73,2.25a.13.13,0,0,0,.12.08h2.35a.13.13,0,0,1,.13.13.13.13,0,0,1,0,.11l-1.9,1.38a.11.11,0,0,0-.05.14l.73,2.24a.13.13,0,0,1-.09.16.11.11,0,0,1-.11,0l-1.91-1.38a.11.11,0,0,0-.15,0l-1.9,1.38a.13.13,0,0,1-.18,0,.11.11,0,0,1,0-.12l.72-2.24a.12.12,0,0,0,0-.14L101.71,362a.13.13,0,0,1,0-.18.14.14,0,0,1,.11-.06h2.35a.13.13,0,0,0,.13-.08l.72-2.24a.14.14,0,0,1,.17-.09Zm-19.4,7.39-1.11,3.41a.18.18,0,0,1-.18.14H81a.2.2,0,0,0-.2.2.19.19,0,0,0,.09.16l2.9,2.11a.22.22,0,0,1,.07.22l-1.11,3.41a.2.2,0,0,0,.13.25.17.17,0,0,0,.17,0l2.9-2.11a.21.21,0,0,1,.24,0l2.9,2.11a.2.2,0,0,0,.27,0,.19.19,0,0,0,0-.18L88.24,373a.21.21,0,0,1,.08-.22l2.9-2.11a.21.21,0,0,0,0-.28.21.21,0,0,0-.16-.08H87.51a.18.18,0,0,1-.18-.14l-1.11-3.41a.21.21,0,0,0-.25-.12.21.21,0,0,0-.13.13ZM110,374.61l.79,2.42a.14.14,0,0,0,.13.1h2.55a.14.14,0,0,1,.14.14.14.14,0,0,1-.06.11l-2.06,1.5a.13.13,0,0,0,0,.15l.79,2.43a.14.14,0,0,1-.09.17.13.13,0,0,1-.13,0l-2.06-1.49a.12.12,0,0,0-.16,0l-2.06,1.49a.13.13,0,0,1-.2,0,.13.13,0,0,1,0-.12l.79-2.43a.14.14,0,0,0,0-.15l-2.06-1.5a.13.13,0,0,1,0-.2.14.14,0,0,1,.11-.05h2.55a.14.14,0,0,0,.13-.1l.79-2.42a.15.15,0,0,1,.18-.09.14.14,0,0,1,.08.09Zm21.42,16.32.78,2.42a.15.15,0,0,0,.14.1h2.54a.15.15,0,0,1,.15.14.14.14,0,0,1-.06.12l-2.06,1.49a.14.14,0,0,0,0,.16l.79,2.42a.15.15,0,0,1-.1.18.17.17,0,0,1-.12,0l-2.06-1.5a.17.17,0,0,0-.17,0l-2.06,1.5a.14.14,0,0,1-.19,0,.13.13,0,0,1,0-.13l.78-2.42a.14.14,0,0,0-.05-.16l-2.06-1.49a.15.15,0,0,1,0-.2.14.14,0,0,1,.12-.06h2.54a.14.14,0,0,0,.13-.1l.79-2.42a.14.14,0,0,1,.17-.09.14.14,0,0,1,.1.1Zm28.8-22.74.78,2.42a.15.15,0,0,0,.14.1h2.55a.14.14,0,0,1,.14.14.13.13,0,0,1-.06.11l-2.06,1.5a.14.14,0,0,0-.05.16l.79,2.42a.16.16,0,0,1-.09.18.19.19,0,0,1-.13,0l-2.06-1.5a.14.14,0,0,0-.17,0l-2,1.5a.14.14,0,0,1-.2,0,.13.13,0,0,1,0-.12l.79-2.42a.17.17,0,0,0-.06-.16l-2.06-1.5a.14.14,0,0,1,0-.19.14.14,0,0,1,.12-.06H159a.15.15,0,0,0,.14-.1l.78-2.42a.14.14,0,0,1,.18-.08.14.14,0,0,1,.09.08Zm-58.67,19.5,1.12,3.43a.19.19,0,0,0,.19.13h3.6a.2.2,0,0,1,.2.2.18.18,0,0,1-.08.16l-2.92,2.12a.2.2,0,0,0-.07.23l1.11,3.43a.19.19,0,0,1-.13.25.17.17,0,0,1-.17,0l-2.92-2.12a.2.2,0,0,0-.23,0l-2.92,2.12a.2.2,0,0,1-.28-.05.17.17,0,0,1,0-.17L99.12,394a.22.22,0,0,0-.08-.23l-2.91-2.12a.2.2,0,0,1,.11-.36h3.61a.21.21,0,0,0,.19-.13l1.11-3.43a.19.19,0,0,1,.25-.13.19.19,0,0,1,.13.13Zm31.38-13.85,1.11,3.43a.2.2,0,0,0,.19.14h3.61a.19.19,0,0,1,.2.19.2.2,0,0,1-.09.17L135,379.89a.22.22,0,0,0-.07.22l1.12,3.43a.21.21,0,0,1-.13.25.19.19,0,0,1-.18,0l-2.92-2.12a.2.2,0,0,0-.23,0l-2.92,2.12a.22.22,0,0,1-.28,0,.23.23,0,0,1,0-.18l1.12-3.43a.19.19,0,0,0-.07-.22l-2.92-2.12a.21.21,0,0,1,0-.28.21.21,0,0,1,.16-.08h3.61a.2.2,0,0,0,.19-.14l1.12-3.43a.19.19,0,0,1,.24-.13.2.2,0,0,1,.14.13ZM78.36,388l.79,2.41a.14.14,0,0,0,.13.1h2.53a.14.14,0,0,1,.15.13.14.14,0,0,1-.06.12l-2.05,1.49a.14.14,0,0,0,0,.16l.78,2.41a.12.12,0,0,1-.09.17.11.11,0,0,1-.12,0l-2.05-1.49a.17.17,0,0,0-.17,0L76.1,395a.13.13,0,0,1-.19,0,.11.11,0,0,1,0-.12l.78-2.41a.14.14,0,0,0,0-.16l-2.05-1.49a.13.13,0,0,1,0-.19.14.14,0,0,1,.11-.06h2.54a.14.14,0,0,0,.13-.1L78.1,388a.14.14,0,0,1,.18-.08A.11.11,0,0,1,78.36,388Zm50.06,33.84.79,2.4a.13.13,0,0,0,.13.1h2.53a.15.15,0,0,1,.15.14.13.13,0,0,1-.06.11l-2.05,1.49a.14.14,0,0,0,0,.16l.78,2.41a.14.14,0,0,1-.09.17.13.13,0,0,1-.13,0l-2-1.48a.14.14,0,0,0-.17,0l-2.05,1.48a.12.12,0,0,1-.19,0,.11.11,0,0,1,0-.12l.78-2.41a.14.14,0,0,0,0-.16l-2.05-1.49a.13.13,0,0,1,0-.19.13.13,0,0,1,.11-.06h2.54a.14.14,0,0,0,.13-.1l.78-2.4a.14.14,0,0,1,.18-.09.14.14,0,0,1,.09.08Zm8.21-19,.78,2.41a.14.14,0,0,0,.13.1h2.53a.14.14,0,0,1,.14.14.16.16,0,0,1-.05.11l-2,1.49a.14.14,0,0,0-.05.16l.78,2.4a.15.15,0,0,1-.09.18.15.15,0,0,1-.13,0l-2.05-1.49a.15.15,0,0,0-.16,0l-2,1.49a.14.14,0,0,1-.2,0,.19.19,0,0,1,0-.13l.79-2.4a.14.14,0,0,0-.05-.16l-2-1.49a.13.13,0,0,1,0-.2.13.13,0,0,1,.11-.05h2.53a.15.15,0,0,0,.14-.1l.78-2.41a.15.15,0,0,1,.17-.1.17.17,0,0,1,.1.1Zm17.39-11,.78,2.41a.14.14,0,0,0,.14.09h2.53a.14.14,0,0,1,.08.26l-2.05,1.49a.13.13,0,0,0-.05.15l.78,2.41a.13.13,0,0,1-.09.18.17.17,0,0,1-.12,0L154,397.39a.12.12,0,0,0-.16,0l-2.05,1.49a.14.14,0,0,1-.22-.16l.78-2.41a.12.12,0,0,0,0-.15l-2.05-1.49a.15.15,0,0,1,0-.2.14.14,0,0,1,.12-.06h2.53a.14.14,0,0,0,.14-.09l.78-2.41a.15.15,0,0,1,.18-.09.11.11,0,0,1,.08.08Zm36.38,21.8.79,2.41a.13.13,0,0,0,.13.09h2.53a.14.14,0,0,1,.14.14.11.11,0,0,1-.06.11L191.88,418a.18.18,0,0,0,0,.16l.79,2.41a.16.16,0,0,1-.09.18.19.19,0,0,1-.13,0l-2.05-1.49a.12.12,0,0,0-.16,0l-2.05,1.49a.15.15,0,0,1-.2,0,.2.2,0,0,1,0-.13l.79-2.41a.17.17,0,0,0-.06-.16l-2-1.49a.13.13,0,0,1,0-.19.14.14,0,0,1,.12-.06h2.53a.13.13,0,0,0,.13-.09l.79-2.41a.13.13,0,0,1,.17-.1.15.15,0,0,1,.1.09ZM65,409.05l.6,1.85a.11.11,0,0,0,.1.07h2a.11.11,0,0,1,.11.11.12.12,0,0,1,0,.09l-1.57,1.14a.1.1,0,0,0,0,.12l.6,1.86a.1.1,0,0,1-.07.13.1.1,0,0,1-.09,0L65,413.26a.09.09,0,0,0-.12,0l-1.58,1.15a.11.11,0,0,1-.15,0,.1.1,0,0,1,0-.09l.61-1.86a.11.11,0,0,0,0-.12l-1.58-1.14a.1.1,0,0,1,0-.15.11.11,0,0,1,.09,0h1.94a.1.1,0,0,0,.1-.07l.61-1.85A.09.09,0,0,1,65,409,.11.11,0,0,1,65,409Zm116.07-44.83.6,1.85a.11.11,0,0,0,.1.08h1.95a.11.11,0,0,1,.11.11.12.12,0,0,1,0,.08l-1.58,1.15a.1.1,0,0,0,0,.12l.6,1.85a.1.1,0,0,1-.06.13.09.09,0,0,1-.1,0l-1.58-1.15a.13.13,0,0,0-.12,0l-1.58,1.14a.1.1,0,0,1-.15,0,.11.11,0,0,1,0-.1l.6-1.85a.1.1,0,0,0,0-.12l-1.57-1.14a.12.12,0,0,1,0-.16.15.15,0,0,1,.09,0h2a.11.11,0,0,0,.1-.07l.6-1.86a.12.12,0,0,1,.14-.06l.06.06Zm37.4,56,.6,1.86a.12.12,0,0,0,.1.07h1.95a.11.11,0,0,1,.11.11.12.12,0,0,1,0,.08l-1.58,1.15a.11.11,0,0,0,0,.12l.6,1.85a.11.11,0,0,1-.06.14.12.12,0,0,1-.1,0l-1.58-1.14a.09.09,0,0,0-.12,0l-1.58,1.14a.1.1,0,0,1-.15,0,.12.12,0,0,1,0-.1l.6-1.85a.11.11,0,0,0,0-.12l-1.58-1.15a.12.12,0,0,1,0-.15.13.13,0,0,1,.09,0h2a.12.12,0,0,0,.1-.07l.6-1.86a.11.11,0,0,1,.14-.06s.05,0,.06.05Zm-59.29,7.69.6,1.85a.12.12,0,0,0,.11.07h1.94a.11.11,0,0,1,.11.11.13.13,0,0,1,0,.09l-1.58,1.14a.11.11,0,0,0,0,.12l.61,1.85a.13.13,0,0,1-.07.14.11.11,0,0,1-.1,0l-1.58-1.15a.09.09,0,0,0-.12,0l-1.58,1.15a.11.11,0,0,1-.15,0,.11.11,0,0,1,0-.1l.6-1.85a.11.11,0,0,0,0-.12L156.3,430a.12.12,0,0,1,0-.15.11.11,0,0,1,.09-.05h1.95a.12.12,0,0,0,.1-.07l.6-1.85a.11.11,0,0,1,.14-.07.09.09,0,0,1,.06.06Zm11.21-25.48.6,1.85a.11.11,0,0,0,.1.08h2a.1.1,0,0,1,.11.1.11.11,0,0,1-.05.09l-1.57,1.15a.09.09,0,0,0,0,.12l.6,1.85a.1.1,0,0,1-.06.13.09.09,0,0,1-.1,0l-1.58-1.15a.13.13,0,0,0-.12,0l-1.58,1.15a.11.11,0,0,1-.15,0,.09.09,0,0,1,0-.1l.6-1.85a.1.1,0,0,0,0-.12l-1.58-1.15a.11.11,0,0,1,0-.15.1.1,0,0,1,.09,0h1.95a.11.11,0,0,0,.1-.08l.6-1.85a.11.11,0,0,1,.14-.07.09.09,0,0,1,.06.06Zm-48.56.89.6,1.86a.12.12,0,0,0,.11.07h1.94a.11.11,0,0,1,.11.11.15.15,0,0,1,0,.09L123,406.56a.11.11,0,0,0,0,.12l.61,1.85a.11.11,0,0,1-.07.14.12.12,0,0,1-.1,0l-1.57-1.14a.11.11,0,0,0-.13,0l-1.58,1.14a.1.1,0,0,1-.15,0,.11.11,0,0,1,0-.1l.6-1.85a.1.1,0,0,0,0-.12L119,405.42a.12.12,0,0,1,0-.16.15.15,0,0,1,.09,0h2a.11.11,0,0,0,.1-.07l.6-1.86a.12.12,0,0,1,.14-.06.09.09,0,0,1,.06.06Zm49.84-20,.6,1.85a.11.11,0,0,0,.1.08h2a.11.11,0,0,1,.11.11.12.12,0,0,1,0,.08l-1.58,1.15a.1.1,0,0,0,0,.12l.6,1.85a.1.1,0,0,1-.06.13.11.11,0,0,1-.1,0l-1.58-1.15a.13.13,0,0,0-.12,0L170,388.7a.11.11,0,0,1-.15,0,.09.09,0,0,1,0-.09l.6-1.85a.1.1,0,0,0,0-.12l-1.58-1.15a.12.12,0,0,1,0-.15.1.1,0,0,1,.09,0h1.95a.11.11,0,0,0,.1-.08l.6-1.85a.11.11,0,0,1,.14-.07.09.09,0,0,1,.06.06Zm17.53-7.25.6,1.86a.12.12,0,0,0,.11.07h1.94a.11.11,0,0,1,.11.11.15.15,0,0,1,0,.09l-1.58,1.14a.11.11,0,0,0,0,.12l.61,1.85a.13.13,0,0,1-.07.14.12.12,0,0,1-.1,0l-1.58-1.14a.09.09,0,0,0-.12,0l-1.58,1.14a.1.1,0,0,1-.15,0,.11.11,0,0,1,0-.1l.6-1.85a.1.1,0,0,0,0-.12l-1.57-1.14a.12.12,0,0,1,0-.16.13.13,0,0,1,.09,0h2a.12.12,0,0,0,.1-.07l.6-1.86a.11.11,0,0,1,.14-.06.09.09,0,0,1,.06.06Zm13.57,38.57.6,1.85a.12.12,0,0,0,.1.07h2a.11.11,0,0,1,.11.11.11.11,0,0,1,0,.09L204,417.92a.1.1,0,0,0,0,.12l.6,1.85a.11.11,0,0,1-.07.14.08.08,0,0,1-.09,0l-1.58-1.14a.09.09,0,0,0-.12,0L201.07,420a.1.1,0,0,1-.15,0,.11.11,0,0,1,0-.1l.61-1.85a.11.11,0,0,0,0-.12l-1.58-1.14a.1.1,0,0,1,0-.15.11.11,0,0,1,.09-.05h1.94a.12.12,0,0,0,.11-.07l.6-1.85a.11.11,0,0,1,.14-.07l.06.06ZM96,423.68l.6,1.85a.11.11,0,0,0,.1.08h2a.1.1,0,0,1,.11.1.11.11,0,0,1-.05.09L97.17,427a.09.09,0,0,0,0,.12l.6,1.85a.09.09,0,0,1-.07.13.1.1,0,0,1-.09,0L96,427.89a.13.13,0,0,0-.12,0L94.29,429a.11.11,0,0,1-.15,0,.1.1,0,0,1,0-.09l.61-1.85a.1.1,0,0,0,0-.12l-1.58-1.15a.12.12,0,0,1,0-.15.11.11,0,0,1,.09,0h1.94a.12.12,0,0,0,.11-.07l.6-1.85a.1.1,0,0,1,.14-.06.09.09,0,0,1,.06.06Zm108.76-52.91.6,1.85a.11.11,0,0,0,.1.08h1.95a.11.11,0,0,1,.11.11.1.1,0,0,1-.05.08L205.93,374a.09.09,0,0,0,0,.12l.6,1.85a.11.11,0,0,1-.06.14.12.12,0,0,1-.1,0L204.75,375a.09.09,0,0,0-.12,0l-1.58,1.14a.1.1,0,0,1-.15,0,.09.09,0,0,1,0-.1l.6-1.85a.1.1,0,0,0,0-.12l-1.58-1.15a.12.12,0,0,1,0-.15.1.1,0,0,1,.09,0h1.95a.11.11,0,0,0,.1-.08l.6-1.85a.11.11,0,0,1,.14-.06.09.09,0,0,1,.06.06ZM81.15,404.51l1.09,3.36a.2.2,0,0,0,.19.14H86a.19.19,0,0,1,.2.19.21.21,0,0,1-.08.16l-2.86,2.08a.18.18,0,0,0-.07.21L84.24,414a.19.19,0,0,1-.13.24.2.2,0,0,1-.17,0l-2.86-2.08a.2.2,0,0,0-.23,0L78,414.24a.19.19,0,0,1-.27-.05.17.17,0,0,1,0-.17l1.09-3.37a.18.18,0,0,0-.07-.21l-2.86-2.08a.2.2,0,0,1,0-.27A.21.21,0,0,1,76,408H79.5a.2.2,0,0,0,.19-.14l1.09-3.36a.2.2,0,0,1,.25-.12A.18.18,0,0,1,81.15,404.51Zm26.8,3.88,1.09,3.36a.2.2,0,0,0,.19.14h3.53a.19.19,0,0,1,.2.19.21.21,0,0,1-.08.16L110,414.32a.19.19,0,0,0-.07.22L111,417.9a.2.2,0,0,1-.13.25.18.18,0,0,1-.17,0L107.88,416a.2.2,0,0,0-.23,0l-2.86,2.08a.2.2,0,0,1-.27,0,.19.19,0,0,1,0-.18l1.09-3.36a.19.19,0,0,0-.07-.22l-2.86-2.08a.2.2,0,0,1,0-.27.19.19,0,0,1,.16-.08h3.53a.2.2,0,0,0,.19-.14l1.09-3.36a.19.19,0,0,1,.25-.12.16.16,0,0,1,.12.12Zm42.3.95,1.09,3.36a.2.2,0,0,0,.19.14h3.54a.2.2,0,0,1,.19.19.19.19,0,0,1-.08.16l-2.86,2.08a.18.18,0,0,0-.07.21l1.09,3.37a.18.18,0,0,1-.12.24.22.22,0,0,1-.18,0L150.18,417a.2.2,0,0,0-.23,0l-2.86,2.08a.19.19,0,0,1-.27-.05.25.25,0,0,1,0-.17l1.1-3.37a.21.21,0,0,0-.07-.21L145,413.19a.19.19,0,0,1-.05-.27.21.21,0,0,1,.16-.08h3.54a.19.19,0,0,0,.18-.14l1.09-3.36a.2.2,0,0,1,.25-.12.18.18,0,0,1,.12.12Zm62.69-15,1.09,3.37a.2.2,0,0,0,.19.13h3.53a.2.2,0,0,1,.2.2.21.21,0,0,1-.08.16L215,400.31a.19.19,0,0,0-.07.22l1.09,3.36a.19.19,0,0,1-.13.25.17.17,0,0,1-.17,0L212.87,402a.2.2,0,0,0-.23,0l-2.86,2.07a.18.18,0,0,1-.27,0,.19.19,0,0,1,0-.18l1.09-3.36a.19.19,0,0,0-.07-.22l-2.86-2.07a.22.22,0,0,1,0-.28.21.21,0,0,1,.16-.08h3.53a.2.2,0,0,0,.19-.13l1.09-3.37a.19.19,0,0,1,.25-.11.18.18,0,0,1,.12.12ZM183.21,391l1.09,3.37a.2.2,0,0,0,.19.13H188a.2.2,0,0,1,.19.2.21.21,0,0,1-.08.16l-2.86,2.07a.19.19,0,0,0-.07.22l1.09,3.37a.19.19,0,0,1-.12.24.19.19,0,0,1-.18,0l-2.86-2.07a.2.2,0,0,0-.23,0l-2.86,2.07a.18.18,0,0,1-.27,0,.18.18,0,0,1,0-.17l1.09-3.37a.19.19,0,0,0-.07-.22l-2.86-2.07a.22.22,0,0,1,0-.28.21.21,0,0,1,.16-.08h3.53a.2.2,0,0,0,.19-.13l1.09-3.37a.21.21,0,0,1,.25-.12.2.2,0,0,1,.12.13Zm63.1-105.09.72,2.24a.14.14,0,0,0,.13.09h2.35a.13.13,0,0,1,.13.13.12.12,0,0,1,0,.1l-1.91,1.38a.14.14,0,0,0,0,.15l.72,2.23a.13.13,0,0,1-.08.17.17.17,0,0,1-.12,0l-1.9-1.38a.14.14,0,0,0-.15,0l-1.91,1.38a.13.13,0,0,1-.18,0,.16.16,0,0,1,0-.12l.73-2.23a.13.13,0,0,0,0-.15l-1.9-1.38a.13.13,0,0,1,.08-.23h2.35a.14.14,0,0,0,.12-.09l.73-2.24a.13.13,0,0,1,.16-.09.15.15,0,0,1,.09.1Zm-19.4,7.39-1.11,3.41a.19.19,0,0,1-.18.14H222a.2.2,0,0,0-.2.2.21.21,0,0,0,.08.16l2.9,2.11a.21.21,0,0,1,.08.22l-1.11,3.41a.2.2,0,0,0,.12.25.19.19,0,0,0,.18,0L227,301a.19.19,0,0,1,.23,0l2.9,2.11a.21.21,0,0,0,.28,0,.2.2,0,0,0,0-.18l-1.11-3.41a.19.19,0,0,1,.07-.22l2.9-2.11a.21.21,0,0,0,.05-.28.21.21,0,0,0-.16-.08h-3.59a.2.2,0,0,1-.19-.14l-1.1-3.41a.2.2,0,0,0-.25-.12.21.21,0,0,0-.13.13Zm24.14,7.83.79,2.42a.14.14,0,0,0,.13.1h2.55a.13.13,0,0,1,.14.13.14.14,0,0,1-.06.12l-2.06,1.5a.12.12,0,0,0,0,.15l.79,2.43a.14.14,0,0,1-.09.17.12.12,0,0,1-.13,0L251,306.59a.14.14,0,0,0-.17,0l-2.06,1.49a.13.13,0,0,1-.19,0,.11.11,0,0,1,0-.12l.79-2.43a.14.14,0,0,0-.06-.15l-2.06-1.5a.15.15,0,0,1,0-.2.13.13,0,0,1,.12,0h2.55a.14.14,0,0,0,.13-.1l.79-2.42A.13.13,0,0,1,251,301a.12.12,0,0,1,.08.09Zm21.41,16.32.79,2.43a.14.14,0,0,0,.13.09h2.55a.14.14,0,0,1,.14.14.17.17,0,0,1-.05.12L274,321.67a.14.14,0,0,0,0,.16l.78,2.42a.13.13,0,0,1-.09.18.16.16,0,0,1-.12,0l-2.06-1.5a.17.17,0,0,0-.17,0l-2.06,1.5a.14.14,0,0,1-.19,0,.13.13,0,0,1,0-.13l.78-2.42a.14.14,0,0,0-.05-.16l-2.06-1.49a.14.14,0,0,1,0-.2.14.14,0,0,1,.12-.06h2.54a.16.16,0,0,0,.14-.09l.78-2.43a.15.15,0,0,1,.19-.07.12.12,0,0,1,.07.07Zm28.81-22.74.78,2.42a.15.15,0,0,0,.14.1h2.54a.15.15,0,0,1,.15.14.13.13,0,0,1-.06.11l-2.06,1.5a.14.14,0,0,0-.05.16l.79,2.42a.15.15,0,0,1-.1.18.17.17,0,0,1-.12,0l-2.06-1.5a.17.17,0,0,0-.17,0l-2.06,1.5a.13.13,0,0,1-.19,0,.13.13,0,0,1,0-.12l.78-2.42a.14.14,0,0,0-.05-.16l-2.06-1.5a.14.14,0,0,1,0-.19.14.14,0,0,1,.12-.06h2.54a.15.15,0,0,0,.14-.1l.78-2.42a.14.14,0,0,1,.18-.08.14.14,0,0,1,.09.08Zm-58.67,19.5,1.12,3.43a.18.18,0,0,0,.18.13h3.61a.2.2,0,0,1,.2.2.18.18,0,0,1-.08.16l-2.92,2.12a.2.2,0,0,0-.07.23l1.11,3.43a.19.19,0,0,1-.13.25.2.2,0,0,1-.18,0L242.53,322a.21.21,0,0,0-.24,0l-2.92,2.12a.2.2,0,0,1-.3-.22l1.11-3.43a.2.2,0,0,0-.07-.23l-2.92-2.12a.18.18,0,0,1,0-.27.19.19,0,0,1,.16-.09h3.61a.18.18,0,0,0,.18-.13l1.12-3.43a.2.2,0,0,1,.25-.14.2.2,0,0,1,.13.14ZM274,300.31l1.12,3.43a.2.2,0,0,0,.19.14h3.61a.19.19,0,0,1,.19.2.21.21,0,0,1-.08.16l-2.92,2.12a.21.21,0,0,0-.07.22l1.12,3.43a.21.21,0,0,1-.13.25.19.19,0,0,1-.18,0l-2.92-2.12a.2.2,0,0,0-.23,0l-2.92,2.12a.2.2,0,0,1-.31-.22l1.12-3.43a.19.19,0,0,0-.07-.22l-2.92-2.12a.21.21,0,0,1-.05-.28.21.21,0,0,1,.16-.08h3.61a.2.2,0,0,0,.19-.14l1.12-3.43a.19.19,0,0,1,.37,0ZM219.43,314.5l.79,2.41a.14.14,0,0,0,.13.09h2.53a.15.15,0,0,1,.15.14.13.13,0,0,1-.06.11l-2.05,1.49a.14.14,0,0,0,0,.16l.78,2.41a.14.14,0,0,1-.09.18.16.16,0,0,1-.12,0L219.39,320a.14.14,0,0,0-.17,0l-2.05,1.49a.13.13,0,0,1-.19,0,.11.11,0,0,1,0-.12l.78-2.41a.14.14,0,0,0-.05-.16l-2.05-1.49a.13.13,0,0,1,0-.19.14.14,0,0,1,.12-.06h2.53a.14.14,0,0,0,.13-.09l.79-2.41a.13.13,0,0,1,.18-.08.14.14,0,0,1,.07.08Zm50.06,33.83.78,2.41a.14.14,0,0,0,.14.09h2.53a.15.15,0,0,1,.15.14.14.14,0,0,1-.06.12l-2,1.49a.13.13,0,0,0-.05.15l.78,2.41a.15.15,0,0,1-.09.18.16.16,0,0,1-.12,0l-2.05-1.49a.14.14,0,0,0-.17,0l-2,1.49a.14.14,0,0,1-.19,0,.12.12,0,0,1,0-.13l.78-2.41a.13.13,0,0,0-.05-.15l-2.05-1.49a.14.14,0,0,1,0-.2.13.13,0,0,1,.11-.06h2.54a.13.13,0,0,0,.13-.09l.78-2.41a.15.15,0,0,1,.19-.08.14.14,0,0,1,.07.08Zm8.2-19,.79,2.41a.14.14,0,0,0,.13.1h2.53a.14.14,0,0,1,.14.14.13.13,0,0,1,0,.11l-2.05,1.49a.14.14,0,0,0-.05.16l.78,2.41a.14.14,0,0,1-.09.17.13.13,0,0,1-.13,0l-2.05-1.48a.12.12,0,0,0-.16,0l-2.05,1.48a.14.14,0,0,1-.2,0,.16.16,0,0,1,0-.12l.79-2.41a.16.16,0,0,0-.05-.16l-2.05-1.49a.12.12,0,0,1,0-.19.11.11,0,0,1,.11-.06h2.53a.15.15,0,0,0,.14-.1l.78-2.41a.14.14,0,0,1,.17-.09.13.13,0,0,1,.09.1Zm17.4-11,.78,2.41a.15.15,0,0,0,.14.1h2.53a.14.14,0,0,1,.14.14.13.13,0,0,1-.06.11l-2.05,1.49a.14.14,0,0,0-.05.16l.78,2.41a.13.13,0,0,1-.08.17.12.12,0,0,1-.13,0l-2-1.49a.15.15,0,0,0-.16,0l-2.05,1.49a.14.14,0,0,1-.2,0,.13.13,0,0,1,0-.12l.78-2.41a.14.14,0,0,0-.05-.16l-2-1.49a.14.14,0,0,1,0-.19.14.14,0,0,1,.12-.06h2.53a.15.15,0,0,0,.14-.1l.78-2.41a.14.14,0,0,1,.18-.08.11.11,0,0,1,.08.08Zm36.38,21.8.79,2.41a.14.14,0,0,0,.13.1h2.53a.14.14,0,0,1,.14.14.16.16,0,0,1-.05.11L333,344.42a.13.13,0,0,0,0,.15l.78,2.41a.15.15,0,0,1-.09.18.15.15,0,0,1-.13,0l-2.05-1.49a.15.15,0,0,0-.16,0l-2.05,1.49a.14.14,0,0,1-.2,0,.19.19,0,0,1,0-.13l.79-2.41a.13.13,0,0,0,0-.15l-2.05-1.49a.14.14,0,0,1,0-.2.13.13,0,0,1,.11-.05h2.53a.15.15,0,0,0,.14-.1l.78-2.41a.15.15,0,0,1,.18-.09.14.14,0,0,1,.08.09Zm-125.36-4.66.6,1.85a.11.11,0,0,0,.1.07h1.95a.11.11,0,0,1,.11.11.11.11,0,0,1-.05.09l-1.57,1.14a.1.1,0,0,0,0,.12l.6,1.86a.1.1,0,0,1-.06.13.11.11,0,0,1-.1,0l-1.58-1.15a.11.11,0,0,0-.13,0l-1.57,1.15a.11.11,0,0,1-.15,0,.1.1,0,0,1,0-.09l.61-1.86a.11.11,0,0,0,0-.12l-1.58-1.14a.1.1,0,0,1,0-.15.11.11,0,0,1,.09-.05h1.94a.12.12,0,0,0,.11-.07l.6-1.85a.11.11,0,0,1,.14-.06.09.09,0,0,1,.06.06Zm116.07-44.83.6,1.85a.11.11,0,0,0,.1.08h1.95a.11.11,0,0,1,.11.11.12.12,0,0,1,0,.08L323.32,294a.1.1,0,0,0,0,.12l.6,1.85a.1.1,0,0,1-.06.13.09.09,0,0,1-.1,0l-1.58-1.15a.13.13,0,0,0-.12,0L320.44,296a.12.12,0,0,1-.15,0,.12.12,0,0,1,0-.1l.6-1.85a.1.1,0,0,0,0-.12l-1.57-1.15a.11.11,0,0,1,0-.15.1.1,0,0,1,.09,0h1.95a.11.11,0,0,0,.1-.08l.6-1.85a.11.11,0,0,1,.14-.05.1.1,0,0,1,.06.05Zm37.4,56,.6,1.86a.12.12,0,0,0,.1.07h2a.11.11,0,0,1,.11.11.12.12,0,0,1,0,.08l-1.58,1.15a.11.11,0,0,0,0,.12l.6,1.85a.11.11,0,0,1-.06.14.12.12,0,0,1-.1,0l-1.58-1.14a.09.09,0,0,0-.12,0L357.84,352a.1.1,0,0,1-.15,0,.12.12,0,0,1,0-.1l.6-1.85a.1.1,0,0,0,0-.12l-1.57-1.15a.11.11,0,0,1,0-.15.13.13,0,0,1,.09,0h1.95a.12.12,0,0,0,.1-.07l.6-1.86a.11.11,0,0,1,.14,0,.1.1,0,0,1,.06,0Zm-59.29,7.69.6,1.85a.12.12,0,0,0,.11.07h1.94a.11.11,0,0,1,.11.11.11.11,0,0,1,0,.09l-1.58,1.14a.11.11,0,0,0,0,.12l.61,1.85a.13.13,0,0,1-.07.14.11.11,0,0,1-.1,0l-1.58-1.15a.09.09,0,0,0-.12,0l-1.58,1.15a.11.11,0,0,1-.15,0,.11.11,0,0,1,0-.1l.6-1.85a.11.11,0,0,0,0-.12l-1.57-1.14a.11.11,0,0,1,0-.15.1.1,0,0,1,.09,0h1.95a.11.11,0,0,0,.1-.08l.6-1.85a.11.11,0,0,1,.14-.06.09.09,0,0,1,.06.06Zm11.21-25.48.6,1.85a.11.11,0,0,0,.1.08h1.95a.1.1,0,0,1,.11.1.13.13,0,0,1,0,.09l-1.58,1.14a.12.12,0,0,0,0,.13l.61,1.85a.12.12,0,0,1-.07.13.12.12,0,0,1-.1,0l-1.58-1.15a.13.13,0,0,0-.12,0l-1.58,1.15a.11.11,0,0,1-.15,0,.09.09,0,0,1,0-.09l.6-1.85a.12.12,0,0,0,0-.13L308.59,331a.11.11,0,0,1,0-.15.1.1,0,0,1,.09,0h2a.11.11,0,0,0,.1-.08l.6-1.85a.11.11,0,0,1,.15-.05A.12.12,0,0,1,311.5,328.86Zm-48.56.89.61,1.85a.1.1,0,0,0,.1.08h1.94a.11.11,0,0,1,.11.11.09.09,0,0,1,0,.08L264.08,333a.11.11,0,0,0,0,.12l.61,1.85a.11.11,0,0,1-.17.12L262.91,334a.11.11,0,0,0-.13,0l-1.58,1.14a.1.1,0,0,1-.15,0,.12.12,0,0,1,0-.1l.6-1.85a.1.1,0,0,0,0-.12L260,331.87a.1.1,0,0,1,0-.15.12.12,0,0,1,.08,0h2a.11.11,0,0,0,.1-.08l.6-1.85a.11.11,0,0,1,.14-.05.09.09,0,0,1,.06.06Zm49.84-19.95.6,1.85a.12.12,0,0,0,.1.07h1.95a.11.11,0,0,1,.11.11.13.13,0,0,1,0,.09l-1.58,1.14a.11.11,0,0,0,0,.12l.61,1.86a.12.12,0,0,1-.07.13.11.11,0,0,1-.1,0L312.74,314a.13.13,0,0,0-.12,0L311,315.16a.12.12,0,0,1-.15,0,.12.12,0,0,1,0-.1l.6-1.86a.11.11,0,0,0,0-.12l-1.58-1.14a.12.12,0,0,1,0-.15.11.11,0,0,1,.09,0h1.95a.12.12,0,0,0,.1-.07l.6-1.85a.11.11,0,0,1,.14-.06.09.09,0,0,1,.06.06Zm17.53-7.24.6,1.85a.12.12,0,0,0,.11.07H333a.11.11,0,0,1,.11.11.13.13,0,0,1,0,.09l-1.58,1.14a.11.11,0,0,0,0,.12l.6,1.85a.11.11,0,0,1-.06.14.11.11,0,0,1-.1,0l-1.58-1.15a.09.09,0,0,0-.12,0l-1.58,1.15a.11.11,0,0,1-.15,0,.11.11,0,0,1,0-.1l.6-1.85a.1.1,0,0,0,0-.12l-1.57-1.14a.11.11,0,0,1,0-.15.12.12,0,0,1,.09,0h2a.12.12,0,0,0,.1-.07l.6-1.85a.11.11,0,0,1,.14-.06.09.09,0,0,1,.06.06Zm13.57,38.56.6,1.85a.11.11,0,0,0,.1.08h1.95a.1.1,0,0,1,.11.1.11.11,0,0,1-.05.09L345,344.39a.1.1,0,0,0,0,.12l.6,1.85a.1.1,0,0,1-.06.13.09.09,0,0,1-.1,0l-1.58-1.15a.13.13,0,0,0-.12,0l-1.58,1.15a.11.11,0,0,1-.15,0,.07.07,0,0,1,0-.09l.6-1.85a.1.1,0,0,0,0-.12L341,343.24a.12.12,0,0,1,0-.15.1.1,0,0,1,.09,0h2a.11.11,0,0,0,.1-.08l.6-1.85a.12.12,0,0,1,.14-.06.17.17,0,0,1,.06.06Zm-106.78,9,.6,1.85a.11.11,0,0,0,.1.08h1.95a.11.11,0,0,1,.11.1.1.1,0,0,1,0,.09l-1.58,1.15a.11.11,0,0,0,0,.12l.61,1.85a.11.11,0,0,1-.07.14.12.12,0,0,1-.1,0l-1.57-1.14a.11.11,0,0,0-.13,0l-1.58,1.14a.1.1,0,0,1-.15,0,.12.12,0,0,1,0-.1l.6-1.85a.1.1,0,0,0,0-.12l-1.57-1.15a.11.11,0,0,1,0-.15.13.13,0,0,1,.09,0h1.95a.11.11,0,0,0,.1-.08l.6-1.85a.12.12,0,0,1,.15-.05l0,.05Zm108.76-52.91.6,1.86a.12.12,0,0,0,.11.07h1.94a.11.11,0,0,1,.11.11.09.09,0,0,1,0,.08L347,300.5a.11.11,0,0,0,0,.12l.61,1.85a.11.11,0,0,1-.07.14.12.12,0,0,1-.1,0l-1.57-1.14a.11.11,0,0,0-.13,0l-1.58,1.14a.1.1,0,0,1-.15,0,.12.12,0,0,1,0-.1l.6-1.85a.1.1,0,0,0,0-.12L343,299.35a.1.1,0,0,1,0-.14.11.11,0,0,1,.09,0H345a.12.12,0,0,0,.1-.07l.6-1.86a.12.12,0,0,1,.15-.05.1.1,0,0,1,.05.06ZM222.22,331l1.09,3.36a.19.19,0,0,0,.18.14H227a.18.18,0,0,1,.19.19.21.21,0,0,1-.08.16l-2.86,2.07a.22.22,0,0,0-.07.22l1.09,3.37a.18.18,0,0,1-.12.24.23.23,0,0,1-.18,0l-2.85-2.08a.19.19,0,0,0-.23,0l-2.86,2.08a.19.19,0,0,1-.27,0,.17.17,0,0,1,0-.17l1.09-3.37a.19.19,0,0,0-.07-.22l-2.86-2.07a.2.2,0,0,1,0-.28.21.21,0,0,1,.15-.07h3.54a.2.2,0,0,0,.19-.14l1.09-3.36a.19.19,0,0,1,.25-.12.2.2,0,0,1,.12.12Zm26.8,3.88,1.09,3.36a.19.19,0,0,0,.18.14h3.54a.19.19,0,0,1,.19.19.21.21,0,0,1-.08.16l-2.86,2.08a.21.21,0,0,0-.07.21l1.1,3.37a.2.2,0,0,1-.13.24.2.2,0,0,1-.17,0L249,342.51a.2.2,0,0,0-.23,0l-2.86,2.08a.19.19,0,0,1-.27,0,.17.17,0,0,1,0-.17l1.09-3.37a.18.18,0,0,0-.07-.21l-2.86-2.08a.18.18,0,0,1,0-.27.18.18,0,0,1,.15-.08h3.54a.21.21,0,0,0,.19-.14l1.09-3.36a.18.18,0,0,1,.24-.12.2.2,0,0,1,.13.12Zm42.3.95,1.09,3.36a.2.2,0,0,0,.19.14h3.53a.19.19,0,0,1,.2.19.21.21,0,0,1-.08.16l-2.86,2.08a.18.18,0,0,0-.07.21l1.09,3.37a.19.19,0,0,1-.13.24.2.2,0,0,1-.17,0l-2.86-2.08a.2.2,0,0,0-.23,0l-2.86,2.08a.19.19,0,0,1-.27-.05.17.17,0,0,1,0-.17L289,342a.18.18,0,0,0-.07-.21L286,339.66a.2.2,0,0,1,0-.27.21.21,0,0,1,.16-.08h3.53a.2.2,0,0,0,.19-.14l1.09-3.36a.19.19,0,0,1,.25-.12.18.18,0,0,1,.12.12Zm62.68-15,1.1,3.37a.18.18,0,0,0,.18.13h3.54a.19.19,0,0,1,.19.2.18.18,0,0,1-.08.15l-2.86,2.08a.22.22,0,0,0-.07.22l1.09,3.36a.19.19,0,0,1-.12.25.19.19,0,0,1-.18,0l-2.86-2.07a.18.18,0,0,0-.22,0l-2.86,2.07a.2.2,0,0,1-.28,0,.22.22,0,0,1,0-.18l1.09-3.36a.21.21,0,0,0-.07-.22l-2.86-2.08a.18.18,0,0,1,0-.27.18.18,0,0,1,.15-.08h3.54a.18.18,0,0,0,.18-.13l1.1-3.37a.2.2,0,0,1,.25-.12.22.22,0,0,1,.12.13Zm-29.72-3.43,1.09,3.37a.2.2,0,0,0,.19.13h3.53a.2.2,0,0,1,.2.2.18.18,0,0,1-.08.15l-2.86,2.08a.19.19,0,0,0-.07.22l1.09,3.36a.19.19,0,0,1-.13.25.17.17,0,0,1-.17,0l-2.86-2.07a.2.2,0,0,0-.23,0l-2.86,2.07a.18.18,0,0,1-.27,0,.19.19,0,0,1,0-.18l1.09-3.36a.19.19,0,0,0-.07-.22L319,321.27a.2.2,0,0,1,0-.27.21.21,0,0,1,.16-.08h3.53a.2.2,0,0,0,.19-.13l1.09-3.37a.21.21,0,0,1,.25-.12.2.2,0,0,1,.12.12Zm-78,42,.73,2.24a.14.14,0,0,0,.12.09h2.35a.13.13,0,0,1,.13.13.12.12,0,0,1,0,.1l-1.9,1.38a.13.13,0,0,0-.05.15l.73,2.24a.13.13,0,0,1-.09.16.11.11,0,0,1-.11,0l-1.91-1.38a.14.14,0,0,0-.15,0l-1.9,1.38a.13.13,0,0,1-.18,0,.09.09,0,0,1,0-.11l.72-2.24a.14.14,0,0,0,0-.15L242.78,362a.13.13,0,0,1,0-.18.16.16,0,0,1,.11,0h2.35a.14.14,0,0,0,.13-.09l.72-2.24a.14.14,0,0,1,.17-.08A.11.11,0,0,1,246.31,359.39Zm-19.4,7.39-1.1,3.41a.2.2,0,0,1-.19.14H222a.2.2,0,0,0-.2.2.19.19,0,0,0,.09.16l2.9,2.11a.19.19,0,0,1,.07.22l-1.11,3.41a.2.2,0,0,0,.13.25.2.2,0,0,0,.18,0l2.9-2.11a.19.19,0,0,1,.23,0l2.9,2.11a.2.2,0,0,0,.27,0,.2.2,0,0,0,0-.18L229.31,373a.21.21,0,0,1,.08-.22l2.9-2.11a.19.19,0,0,0,0-.28.18.18,0,0,0-.16-.08h-3.58a.18.18,0,0,1-.19-.14l-1.11-3.41a.2.2,0,0,0-.38,0Zm24.14,7.83.79,2.42a.15.15,0,0,0,.14.1h2.54a.14.14,0,0,1,.14.14.16.16,0,0,1,0,.11l-2.06,1.5a.15.15,0,0,0-.06.15l.79,2.43a.13.13,0,0,1-.09.17.13.13,0,0,1-.13,0L251,380.12a.12.12,0,0,0-.16,0l-2.06,1.49a.14.14,0,0,1-.2,0,.13.13,0,0,1,0-.12l.79-2.43a.13.13,0,0,0,0-.15l-2.06-1.5a.13.13,0,0,1,0-.2.14.14,0,0,1,.11-.05h2.55a.14.14,0,0,0,.13-.1l.79-2.42a.13.13,0,0,1,.18-.08.11.11,0,0,1,.08.08Zm21.42,16.32.78,2.42a.15.15,0,0,0,.14.1h2.54a.15.15,0,0,1,.15.14.14.14,0,0,1-.06.12L274,395.2a.14.14,0,0,0,0,.16l.79,2.42a.15.15,0,0,1-.1.18.17.17,0,0,1-.12,0l-2.06-1.5a.17.17,0,0,0-.17,0l-2.06,1.5a.14.14,0,0,1-.19,0,.15.15,0,0,1,0-.13l.79-2.42a.17.17,0,0,0-.06-.16l-2.06-1.49a.15.15,0,0,1,0-.2.14.14,0,0,1,.12-.06h2.55a.14.14,0,0,0,.13-.1l.79-2.42a.14.14,0,0,1,.18-.07.14.14,0,0,1,.07.08Zm28.8-22.74.79,2.42a.14.14,0,0,0,.13.1h2.55a.14.14,0,0,1,.14.14.13.13,0,0,1-.06.11l-2.06,1.5a.14.14,0,0,0-.05.16l.79,2.42a.16.16,0,0,1-.09.18.2.2,0,0,1-.13,0l-2.06-1.5a.12.12,0,0,0-.16,0L299,375.2a.15.15,0,0,1-.2,0,.16.16,0,0,1,0-.12l.79-2.42a.14.14,0,0,0-.05-.16l-2.06-1.5a.13.13,0,0,1,0-.19.14.14,0,0,1,.12-.06h2.55a.14.14,0,0,0,.13-.1l.79-2.42a.14.14,0,0,1,.18-.07.18.18,0,0,1,.08.07Zm-58.67,19.5,1.12,3.43a.2.2,0,0,0,.19.13h3.6a.2.2,0,0,1,.2.2.18.18,0,0,1-.08.16l-2.92,2.12a.2.2,0,0,0-.07.23l1.11,3.43a.2.2,0,0,1-.12.25.19.19,0,0,1-.18,0l-2.92-2.12a.2.2,0,0,0-.23,0l-2.92,2.12a.2.2,0,0,1-.28-.05.17.17,0,0,1,0-.17l1.12-3.43a.22.22,0,0,0-.08-.23l-2.91-2.12a.2.2,0,0,1,.11-.36h3.61a.21.21,0,0,0,.19-.13l1.11-3.43a.19.19,0,0,1,.25-.13.21.21,0,0,1,.13.13ZM274,373.84l1.11,3.43a.2.2,0,0,0,.19.14h3.61a.19.19,0,0,1,.2.19.21.21,0,0,1-.08.17l-2.92,2.12a.19.19,0,0,0-.07.22l1.11,3.43a.2.2,0,0,1-.13.25.2.2,0,0,1-.18,0l-2.91-2.12a.21.21,0,0,0-.24,0l-2.92,2.12a.2.2,0,0,1-.27,0,.2.2,0,0,1,0-.18l1.11-3.43a.19.19,0,0,0-.07-.22l-2.92-2.12a.2.2,0,0,1,0-.28.18.18,0,0,1,.16-.08h3.61a.21.21,0,0,0,.19-.14l1.11-3.43a.19.19,0,0,1,.25-.12.18.18,0,0,1,.12.12ZM219.44,388l.78,2.41a.14.14,0,0,0,.13.09h2.54a.14.14,0,0,1,.14.14.13.13,0,0,1-.06.11l-2.05,1.49a.14.14,0,0,0,0,.16l.79,2.41a.16.16,0,0,1-.09.18.19.19,0,0,1-.13,0l-2.05-1.49a.12.12,0,0,0-.16,0l-2,1.49a.15.15,0,0,1-.2,0,.13.13,0,0,1,0-.12l.78-2.41a.14.14,0,0,0-.05-.16l-2.05-1.49a.14.14,0,0,1,0-.19.14.14,0,0,1,.12-.06h2.53a.16.16,0,0,0,.14-.09l.78-2.41a.15.15,0,0,1,.19-.07.13.13,0,0,1,.06.07Zm50.06,33.83.78,2.41a.12.12,0,0,0,.13.09H273a.14.14,0,0,1,.08.26l-2,1.49a.13.13,0,0,0-.05.15l.78,2.41a.13.13,0,0,1-.09.18.17.17,0,0,1-.12,0l-2.05-1.49a.14.14,0,0,0-.17,0l-2,1.49a.15.15,0,0,1-.2,0,.15.15,0,0,1,0-.13l.78-2.41a.12.12,0,0,0-.05-.15l-2.05-1.49a.15.15,0,0,1,0-.2.17.17,0,0,1,.12-.06h2.53a.11.11,0,0,0,.13-.09l.79-2.41a.14.14,0,0,1,.18-.07.12.12,0,0,1,.07.07Zm8.2-19,.78,2.41a.14.14,0,0,0,.13.1h2.54a.14.14,0,0,1,.14.14.11.11,0,0,1-.06.11l-2.05,1.49a.14.14,0,0,0-.05.16l.78,2.41a.12.12,0,0,1-.09.17.11.11,0,0,1-.12,0l-2.05-1.49a.17.17,0,0,0-.17,0l-2.05,1.49a.12.12,0,0,1-.19,0,.11.11,0,0,1,0-.12l.78-2.41a.14.14,0,0,0-.05-.16l-2.05-1.49a.13.13,0,0,1,0-.19.14.14,0,0,1,.11-.06h2.54a.14.14,0,0,0,.13-.1l.78-2.41a.15.15,0,0,1,.18-.08.14.14,0,0,1,.08.09Zm17.39-11,.79,2.41a.14.14,0,0,0,.13.1h2.53a.14.14,0,0,1,.14.14.16.16,0,0,1-.05.11l-2.05,1.49a.14.14,0,0,0-.05.16l.78,2.41a.14.14,0,0,1-.09.17.13.13,0,0,1-.13,0l-2-1.49a.15.15,0,0,0-.16,0l-2.05,1.49a.14.14,0,0,1-.2,0,.17.17,0,0,1,0-.12l.79-2.41a.14.14,0,0,0,0-.16l-2.05-1.49a.12.12,0,0,1,0-.19.13.13,0,0,1,.11-.06h2.54a.14.14,0,0,0,.13-.1l.78-2.41a.14.14,0,0,1,.19-.07.12.12,0,0,1,.07.07Zm36.39,21.8.78,2.41a.14.14,0,0,0,.13.1h2.54a.14.14,0,0,1,.08.25L333,418a.13.13,0,0,0,0,.15l.78,2.41a.14.14,0,0,1-.09.18.13.13,0,0,1-.12,0l-2.05-1.49a.17.17,0,0,0-.17,0l-2.05,1.49a.13.13,0,0,1-.19,0,.12.12,0,0,1,0-.13l.78-2.41a.13.13,0,0,0,0-.15l-2.05-1.49a.14.14,0,0,1,0-.2.16.16,0,0,1,.11-.05h2.54a.14.14,0,0,0,.13-.1l.78-2.41a.14.14,0,0,1,.18-.08.11.11,0,0,1,.08.08ZM206.11,409l.6,1.85a.12.12,0,0,0,.11.08h1.94a.1.1,0,0,1,.11.1.13.13,0,0,1,0,.09l-1.58,1.15a.1.1,0,0,0,0,.12l.61,1.85a.13.13,0,0,1-.07.14.12.12,0,0,1-.1,0l-1.58-1.14a.09.09,0,0,0-.12,0l-1.58,1.14a.12.12,0,0,1-.15,0,.12.12,0,0,1,0-.1l.6-1.85a.1.1,0,0,0,0-.12l-1.57-1.15a.11.11,0,0,1,0-.15.1.1,0,0,1,.09,0h2a.11.11,0,0,0,.1-.08l.6-1.85a.11.11,0,0,1,.14-.05.1.1,0,0,1,.06.05Zm116.07-44.82.61,1.85a.1.1,0,0,0,.1.07h1.95a.1.1,0,0,1,.1.11.11.11,0,0,1,0,.09l-1.58,1.14a.14.14,0,0,0,0,.12l.61,1.85a.11.11,0,0,1-.07.14.12.12,0,0,1-.1,0l-1.57-1.14a.11.11,0,0,0-.13,0l-1.57,1.14a.1.1,0,0,1-.15,0,.09.09,0,0,1,0-.1l.6-1.85a.1.1,0,0,0,0-.12l-1.57-1.14a.11.11,0,0,1,.06-.2h1.95a.1.1,0,0,0,.1-.07l.61-1.85a.1.1,0,0,1,.14-.06l.05,0Zm37.4,56,.61,1.85a.1.1,0,0,0,.1.07h1.95a.1.1,0,0,1,.1.11.1.1,0,0,1,0,.09l-1.58,1.14a.14.14,0,0,0,0,.12l.61,1.85a.11.11,0,0,1-.07.14.12.12,0,0,1-.1,0l-1.57-1.15a.11.11,0,0,0-.13,0l-1.58,1.15a.11.11,0,0,1-.15,0,.11.11,0,0,1,0-.1l.6-1.85a.1.1,0,0,0,0-.12l-1.57-1.14a.11.11,0,0,1,0-.15.12.12,0,0,1,.09-.05h1.95a.1.1,0,0,0,.1-.07l.61-1.85a.1.1,0,0,1,.14-.05.1.1,0,0,1,.05,0Zm-59.29,7.68.61,1.85a.1.1,0,0,0,.1.08H303a.1.1,0,0,1,.1.1.1.1,0,0,1,0,.09l-1.58,1.15a.1.1,0,0,0,0,.12l.6,1.85a.09.09,0,0,1-.07.13.09.09,0,0,1-.1,0l-1.57-1.15a.15.15,0,0,0-.13,0l-1.57,1.15a.12.12,0,0,1-.15,0,.12.12,0,0,1,0-.1l.6-1.85a.09.09,0,0,0,0-.12L297.38,430a.1.1,0,0,1,0-.15.09.09,0,0,1,.08,0h1.95a.1.1,0,0,0,.1-.08l.61-1.85a.1.1,0,0,1,.14-.05l.05.05Zm11.21-25.48.61,1.86a.1.1,0,0,0,.1.07h2a.11.11,0,0,1,.1.11.09.09,0,0,1,0,.08l-1.58,1.15a.14.14,0,0,0,0,.12l.61,1.85a.11.11,0,0,1-.07.14.12.12,0,0,1-.1,0l-1.57-1.14a.11.11,0,0,0-.13,0l-1.57,1.14a.1.1,0,0,1-.15,0,.09.09,0,0,1,0-.1l.6-1.85a.1.1,0,0,0,0-.12l-1.57-1.15a.1.1,0,0,1,0-.14.12.12,0,0,1,.09-.05h2a.1.1,0,0,0,.1-.07l.61-1.86a.11.11,0,0,1,.14-.05l.05.05Zm-48.56.9.61,1.85a.09.09,0,0,0,.1.07h2a.11.11,0,0,1,.11.11.11.11,0,0,1,0,.09l-1.57,1.14a.1.1,0,0,0,0,.12l.6,1.86a.1.1,0,0,1-.07.13.12.12,0,0,1-.1,0l-1.57-1.15a.15.15,0,0,0-.13,0l-1.57,1.15a.12.12,0,0,1-.15,0,.12.12,0,0,1,0-.1l.61-1.86a.14.14,0,0,0,0-.12L260,405.41a.11.11,0,0,1,.06-.2h2a.09.09,0,0,0,.1-.07l.61-1.85a.1.1,0,0,1,.14-.05.08.08,0,0,1,.05.05Zm49.84-20,.61,1.86a.1.1,0,0,0,.1.07h1.95a.1.1,0,0,1,.1.11.09.09,0,0,1,0,.08l-1.58,1.15a.14.14,0,0,0,0,.12l.61,1.85a.11.11,0,0,1-.07.14.12.12,0,0,1-.1,0l-1.57-1.14a.11.11,0,0,0-.13,0l-1.57,1.14a.1.1,0,0,1-.15,0,.12.12,0,0,1,0-.1l.6-1.85a.1.1,0,0,0,0-.12l-1.57-1.15a.1.1,0,0,1,0-.15.12.12,0,0,1,.08,0h1.95a.1.1,0,0,0,.1-.07l.61-1.86a.11.11,0,0,1,.14-.05l0,.05Zm17.53-7.24.61,1.85a.09.09,0,0,0,.1.07h2a.11.11,0,0,1,.1.11.1.1,0,0,1,0,.09l-1.58,1.14a.14.14,0,0,0,0,.12l.61,1.86a.1.1,0,0,1-.07.13.12.12,0,0,1-.1,0l-1.57-1.15a.15.15,0,0,0-.13,0l-1.57,1.15a.12.12,0,0,1-.15,0,.1.1,0,0,1,0-.1l.6-1.86a.1.1,0,0,0,0-.12l-1.57-1.14a.11.11,0,0,1,.06-.2h2a.09.09,0,0,0,.1-.07l.61-1.85a.09.09,0,0,1,.14,0l.05,0Zm13.57,38.56.61,1.85a.1.1,0,0,0,.1.08h2a.11.11,0,0,1,.1.11.09.09,0,0,1,0,.08L345,417.92a.1.1,0,0,0,0,.12l.61,1.85a.1.1,0,0,1-.07.13.12.12,0,0,1-.1,0l-1.57-1.15a.15.15,0,0,0-.13,0L342.14,420a.12.12,0,0,1-.15,0,.12.12,0,0,1,0-.1l.6-1.85a.09.09,0,0,0,0-.12L341,416.77a.11.11,0,0,1,0-.15.11.11,0,0,1,.09,0h2a.1.1,0,0,0,.1-.08l.61-1.85a.11.11,0,0,1,.14,0,.12.12,0,0,1,.05,0Zm-106.78,9,.61,1.86a.1.1,0,0,0,.1.07h1.94a.11.11,0,0,1,.11.11.09.09,0,0,1,0,.08l-1.58,1.15a.11.11,0,0,0,0,.12l.61,1.85a.13.13,0,0,1-.07.14.12.12,0,0,1-.1,0l-1.57-1.14a.11.11,0,0,0-.13,0L235.36,429a.1.1,0,0,1-.15,0,.11.11,0,0,1,0-.1l.6-1.85a.1.1,0,0,0,0-.12l-1.57-1.15a.1.1,0,0,1,0-.14.11.11,0,0,1,.09,0h1.95a.11.11,0,0,0,.1-.07l.6-1.86a.11.11,0,0,1,.15,0,.08.08,0,0,1,0,.05Zm108.76-52.9.61,1.85a.1.1,0,0,0,.1.07h1.95a.1.1,0,0,1,.1.11.11.11,0,0,1,0,.09L347,374a.11.11,0,0,0,0,.12l.6,1.85a.11.11,0,0,1-.07.14.12.12,0,0,1-.1,0L345.83,375a.11.11,0,0,0-.13,0l-1.57,1.14a.1.1,0,0,1-.15,0,.12.12,0,0,1,0-.1l.6-1.85a.11.11,0,0,0,0-.12L343,372.89a.11.11,0,0,1,.06-.2H345a.1.1,0,0,0,.1-.07l.61-1.85a.1.1,0,0,1,.14,0l.05,0ZM222.22,404.51l1.09,3.36a.19.19,0,0,0,.18.14H227a.18.18,0,0,1,.19.19.21.21,0,0,1-.08.16l-2.86,2.08a.21.21,0,0,0-.07.21L225.3,414a.18.18,0,0,1-.12.24.23.23,0,0,1-.18,0l-2.85-2.08a.19.19,0,0,0-.23,0l-2.86,2.08a.19.19,0,0,1-.27-.05.17.17,0,0,1,0-.17l1.09-3.37a.18.18,0,0,0-.07-.21l-2.86-2.08a.18.18,0,0,1,0-.27A.18.18,0,0,1,217,408h3.54a.2.2,0,0,0,.19-.14l1.09-3.36a.19.19,0,0,1,.25-.12A.2.2,0,0,1,222.22,404.51Zm26.8,3.88,1.09,3.36a.19.19,0,0,0,.18.14h3.54a.18.18,0,0,1,.19.19.21.21,0,0,1-.08.16l-2.86,2.08a.22.22,0,0,0-.07.22l1.1,3.36a.21.21,0,0,1-.13.25.25.25,0,0,1-.17,0L249,416a.2.2,0,0,0-.23,0l-2.86,2.08a.2.2,0,0,1-.27,0,.19.19,0,0,1,0-.18l1.09-3.36a.19.19,0,0,0-.07-.22l-2.86-2.08a.18.18,0,0,1,0-.27.18.18,0,0,1,.15-.08h3.54a.21.21,0,0,0,.19-.14l1.09-3.36a.19.19,0,0,1,.25-.12.2.2,0,0,1,.12.12Zm42.3.95,1.09,3.36a.2.2,0,0,0,.19.14h3.53a.2.2,0,0,1,.2.19.23.23,0,0,1-.08.16l-2.86,2.08a.18.18,0,0,0-.07.21l1.09,3.37a.19.19,0,0,1-.13.24.2.2,0,0,1-.17,0L291.25,417a.2.2,0,0,0-.23,0l-2.86,2.08a.19.19,0,0,1-.27-.05.17.17,0,0,1,0-.17l1.09-3.37a.18.18,0,0,0-.07-.21L286,413.19a.2.2,0,0,1,0-.27.19.19,0,0,1,.16-.08h3.53a.2.2,0,0,0,.19-.14l1.09-3.36a.2.2,0,0,1,.25-.12.18.18,0,0,1,.12.12Zm62.68-15,1.1,3.37a.18.18,0,0,0,.18.13h3.54a.19.19,0,0,1,.19.2.21.21,0,0,1-.08.16l-2.86,2.07a.22.22,0,0,0-.07.22l1.09,3.36a.19.19,0,0,1-.12.25.19.19,0,0,1-.18,0L353.93,402a.18.18,0,0,0-.22,0l-2.86,2.07a.2.2,0,0,1-.28,0,.22.22,0,0,1,0-.18l1.09-3.36a.21.21,0,0,0-.07-.22l-2.86-2.07a.2.2,0,0,1,0-.28.18.18,0,0,1,.15-.08h3.54a.18.18,0,0,0,.18-.13l1.1-3.37a.18.18,0,0,1,.25-.11.2.2,0,0,1,.12.12ZM324.28,391l1.09,3.37a.2.2,0,0,0,.19.13h3.53a.2.2,0,0,1,.2.2.21.21,0,0,1-.08.16l-2.86,2.07a.19.19,0,0,0-.07.22l1.09,3.37a.19.19,0,0,1-.13.24.17.17,0,0,1-.17,0l-2.86-2.07a.2.2,0,0,0-.23,0l-2.86,2.07a.18.18,0,0,1-.27,0,.18.18,0,0,1,0-.17l1.09-3.37a.19.19,0,0,0-.07-.22L319,394.81a.22.22,0,0,1,0-.28.19.19,0,0,1,.16-.08h3.53a.2.2,0,0,0,.19-.13l1.09-3.37a.19.19,0,0,1,.25-.11.18.18,0,0,1,.12.12Z"/></g></g></g><path id="Path_744" data-name="Path 744" class="cls-17" d="M106.82,348.07a2.73,2.73,0,0,1-.86-5c8.9-5.17,30.4-12.65,70.77-.41L205.88,350a9.29,9.29,0,0,0,5.73-.39c7.88-3.19,30.74-12.31,45.8-17.06a.84.84,0,0,1,.61,1.56c-9.92,4.61-22.77,12.46-22.47,22.08v.07c.36,1.77,3.69,3.07,5,3.72,9.18,4.49,19.71,6.69,29.61,8.91,12.88,2.9,25.65,6.34,38.43,1.11a.86.86,0,0,1,1.1.46.87.87,0,0,1-.07.77l-3.18,5a.86.86,0,0,1-.61.38,138.42,138.42,0,0,1-58.09-5.05,82,82,0,0,1-10.85-3.89,32.83,32.83,0,0,1-5-3.53c-4.07-3-8.65-6.35-13.61-7.56-4.22-1-8.44-2.06-12.68-3-11.83-2.71-23.74-5.19-35.75-7A149,149,0,0,0,151,344.7c-3.8-.08-8.55-.27-12,1.69C130.05,351.52,115.07,349.66,106.82,348.07Z"/></g></g><g id="Cat"><path id="Path_745" data-name="Path 745" class="cls-18" d="M430,364.63c-13.23,16.48-67.2,17.41-74.28,5.07-3.45-6-2.5-13.7-.62-20,.2-.67.41-1.32.62-1.95a58.48,58.48,0,0,1,4.39-9.83s-.23,5.87,19.68,3.75a65,65,0,0,1,7.64-.3l1.57,0C410.46,342,441.43,350.39,430,364.63Z"/><path id="Path_746" data-name="Path 746" class="cls-3" d="M386.63,354.82c-3.11,3.47-8.52,4.79-15.64,3.79l-.48-.08c-9-1.38-13.35-5.64-15.41-8.85.2-.66.41-1.32.62-1.95,1.53,2.95,5.55,8,15.48,9.37,6.59.92,11.54-.22,14.3-3.3,2.49-2.78,3.15-7.07,1.93-12.45l1.57,0C390.22,347.09,389.41,351.72,386.63,354.82Z"/><path id="Path_747" data-name="Path 747" class="cls-18" d="M422.52,352.64s12.67-.93,14.17-7.33-27.56-.79-30.77-13.95,9.65-23.67,13.82-19.82c4.95,4.56-5.88,6.51-6.47,13.28-.48,5.63,3,10.82,13.83,11.59s15.66,2.45,15.61,7.48c0,5.48-8.81,11.12-14.14,11.48S422.52,352.64,422.52,352.64Z"/><path id="Path_748" data-name="Path 748" class="cls-18" d="M366.92,333.06a33.65,33.65,0,0,0-9.88-8.15,1.26,1.26,0,0,0-1.7.52,1.34,1.34,0,0,0-.15.73l1.16,11.21S365.14,338.11,366.92,333.06Z"/><path id="Path_749" data-name="Path 749" class="cls-19" d="M358.51,336c-.5-2.55-.62-5.22-1.21-8.21,0,0,6.6,3.93,7,6.1C364.3,333.9,360.66,336.66,358.51,336Z"/><path id="Path_750" data-name="Path 750" class="cls-18" d="M378.39,333.51a33.69,33.69,0,0,1,11.93-4,1.41,1.41,0,0,1,1.56,1.23,1.32,1.32,0,0,1-.14.8l-4.62,9.23S378.22,338.86,378.39,333.51Z"/><path id="Path_751" data-name="Path 751" class="cls-19" d="M385.16,339.32c1.39-2.19,2.48-4.64,4.11-7.21,0,0-7.58,1.26-8.74,3.14C380.53,335.25,382.92,339.15,385.16,339.32Z"/><path id="Path_752" data-name="Path 752" class="cls-18" d="M362,333.25s-7.82,1.2-7.23,10.36,9.51,10.15,9.51,10.15,1.59,2.95,7.1,4.14c3.53.76,8.79.51,10.12-2.07,0,0,7.66-2.81,7.58-9.64C389,338.62,379.87,329.33,362,333.25Z"/><path id="Path_753" data-name="Path 753" class="cls-18" d="M354.07,354.92s3.19,13,5.86,15.7a15,15,0,0,0,9.31,4.61c6,.73,4.9,4.75,3.11,6.13-2.08,1.59-5.77.69-11.3.69-4.78,0-9.28-1-10.9-4.1s-1.51-12.44.21-17.67C351.43,357.05,352.92,355.37,354.07,354.92Z"/><path id="Path_754" data-name="Path 754" class="cls-18" d="M394.49,355.78s-3.19,13-5.86,15.7a15.82,15.82,0,0,1-9.31,4.61c-4.53.72-4.11,5-3.11,6.12,1.75,2,5.77.69,11.3.69,4.78,0,10.43-1.91,12.05-5s.36-11.48-1.36-16.71C397.14,357.91,395.64,356.23,394.49,355.78Z"/><path id="Path_755" data-name="Path 755" class="cls-18" d="M421.22,353.19s8.42-2,11.13,4.33c4.27,10,.85,15.68-10.52,17.26s-24.3,3.74-14.53-4.35A54,54,0,0,0,421.22,353.19Z"/><g id="Face-2"><path id="Path_756" data-name="Path 756" class="cls-19" d="M375.9,348.06s-3.4-.36-4.3.06c-1.52.7.92,3.53,2.47,3.77s3.07-1.58,3.05-2.77a1.06,1.06,0,0,0-1.06-1.07Z"/><path id="Path_757" data-name="Path 757" class="cls-19" d="M377.65,345.45a.18.18,0,0,0-.24.07.17.17,0,0,0,0,.18,3.72,3.72,0,0,0,3.6,1.51,2.59,2.59,0,0,0,2.11-2.12.18.18,0,0,0-.15-.2.17.17,0,0,0-.16.07,2.79,2.79,0,0,1-2.42,1.36A4.93,4.93,0,0,1,377.65,345.45Z"/><path id="Path_758" data-name="Path 758" class="cls-19" d="M364.47,344.75a.18.18,0,0,0-.24,0,.2.2,0,0,0,0,.17,3.76,3.76,0,0,0,3.27,2.15,2.59,2.59,0,0,0,2.46-1.7.16.16,0,0,0-.1-.22.17.17,0,0,0-.18,0,2.78,2.78,0,0,1-2.62.89A5,5,0,0,1,364.47,344.75Z"/></g></g><g id="Light"><path id="Path_759" data-name="Path 759" class="cls-18" d="M14.59,62.83A2.63,2.63,0,0,1,13.17,58L101.91,1.34a2.63,2.63,0,0,1,2.89,4.39l-.06,0L16,62.41A2.61,2.61,0,0,1,14.59,62.83Z"/><path id="Path_760" data-name="Path 760" class="cls-20" d="M91.15,8.84,93.87,61A3,3,0,0,0,97,63.8a2.87,2.87,0,0,0,.87-.18l49-17.75a1.19,1.19,0,0,0,.71-1.52,1.1,1.1,0,0,0-.24-.4L109.79,2.63A8,8,0,0,0,101.47.36L95.84,2.11A6.67,6.67,0,0,0,91.15,8.84Z"/><path id="Path_761" data-name="Path 761" class="cls-21" d="M91.15,8.84,93.87,61A3,3,0,0,0,97,63.8a2.87,2.87,0,0,0,.87-.18l49-17.75a1.19,1.19,0,0,0,.71-1.52,1.1,1.1,0,0,0-.24-.4L109.79,2.63A8,8,0,0,0,101.47.36L95.84,2.11A6.67,6.67,0,0,0,91.15,8.84Z"/><ellipse id="Ellipse_22" data-name="Ellipse 22" class="cls-22" cx="121.21" cy="54.17" rx="28.34" ry="8.34" transform="translate(-10.98 41.87) rotate(-18.77)"/><path id="Path_762" data-name="Path 762" class="cls-23" d="M130.09,44.35a4.72,4.72,0,0,0-.39-1.11A92.4,92.4,0,0,0,107.12,51c1.92,3,7.13,4.43,12.73,3.24C126.38,52.86,131,48.42,130.09,44.35Z"/><path id="Path_763" data-name="Path 763" class="cls-18" d="M43.93,359c-1.45,0-2.63-1.64-2.63-3.66V34.29c0-2,1.18-3.66,2.63-3.66s2.62,1.64,2.62,3.66V355.38C46.55,357.4,45.38,359,43.93,359Z"/><path id="Path_764" data-name="Path 764" class="cls-18" d="M86.55,370.77H4.28c1.16-10.09,19.14-18.09,41.14-18.09S85.39,360.68,86.55,370.77Z"/></g><g id="Elements"><path id="love" class="cls-24" d="M108.8,270.93c2.29,8.95-13.34,18.29-13.34,18.29S80,279.52,82.12,270.93c1.91-7.81,9.72-3.62,13.91,1.14C96,272.07,105.92,259.66,108.8,270.93ZM145.3,92.69c-4.19-4.76-12-9-13.91-1.14-2.09,8.59,13.34,18.29,13.34,18.29s15.63-9.33,13.34-18.29C155.2,80.28,145.3,92.69,145.3,92.69ZM360.86,237.43c-4.19-4.77-12-9-13.91-1.15-2.09,8.59,13.34,18.3,13.34,18.3s15.63-9.34,13.34-18.3c-2.87-11.26-12.76,1.15-12.76,1.15ZM306.93,87.32c-4.19-4.76-12-8.95-13.91-1.14-2.09,8.59,13.34,18.29,13.34,18.29S322,95.14,319.7,86.18c-2.88-11.27-12.77,1.14-12.77,1.14Z"/></g><g id="Elements-2"><path id="Path_765" data-name="Path 765" class="cls-22" d="M99.5,239.24a1.34,1.34,0,0,1-1.19-.69A85.55,85.55,0,0,1,89.39,211c-2.25-14.87-1.46-37,15-57.76S140,124.83,153.07,122c14.23-3,24.44-1.16,24.87-1.08a1.38,1.38,0,0,1-.51,2.71C177,123.6,137,116.6,106.6,155s-6.15,81.79-5.9,82.22a1.39,1.39,0,0,1-.51,1.89,1.51,1.51,0,0,1-.69.18Zm226.9,16.89c14.4-23,7.9-63.29,7.63-64.94a69.56,69.56,0,0,0-29.23-48.46c-12.62-9-24.79-12.2-26.45-12.2a1.36,1.36,0,0,0-1.35,1.34,1.4,1.4,0,0,0,1.32,1.42c.46,0,46.64,10.49,53,58.3.07.41,6.6,40.92-7.24,63.07a1.37,1.37,0,1,0,2.33,1.46Z"/></g><g id="Elements-3"><path id="_1" data-name=" 1" class="cls-25" d="M321.74,126.46l1.83,3.35,3.36,1.84-3.36,1.83-1.83,3.35-1.84-3.35-3.35-1.83,3.35-1.84ZM358.26,213l-3.36,1.83,3.36,1.84,1.83,3.35,1.83-3.35,3.36-1.84L361.92,213l-1.83-3.35Zm-91.07-58.08-7.75,4.23,7.75,4.24,4.23,7.74,4.24-7.74,7.74-4.24-7.74-4.23-4.24-7.75ZM108,204.25l-3.37,1.84,3.37,1.85,1.85,3.38,1.85-3.38,3.37-1.85-3.37-1.84-1.85-3.38Zm32.2-48.65-7.78,4.25,7.78,4.26,4.26,7.78,4.25-7.78,7.78-4.26-7.78-4.25-4.25-7.78Z"/></g><g id="Plant"><g id="Plant-2"><g id="Plant-3"><path id="Path_442" data-name="Path 442" class="cls-9" d="M42.92,391.45a.45.45,0,0,1-.45-.44c-2.62-54.2-7.9-61.65-9.46-62.65-.31-.2-.48-.13-.48-.13a.44.44,0,0,1-.61-.15h0a.47.47,0,0,1,.16-.64,1.28,1.28,0,0,1,1.27.07C36,328.9,40.87,339,43.38,391a.46.46,0,0,1-.43.48Z"/><path class="cls-26" d="M32.58,327.1h0c-2.49-1.89-5.12-2.26-8.24-2.14a25.17,25.17,0,0,0-9,2.33c1.92-.84-11.42,8.27-12.39,9.75C0,341.5-1,347.4,1.18,352.26a2.16,2.16,0,0,0,1,1.2,2.37,2.37,0,0,0,1.64-.12c5.55-1.82,11.14-3.64,16.24-6.48s9.75-6.78,12.49-11.93a10.19,10.19,0,0,0,1.32-4A4.92,4.92,0,0,0,32.58,327.1Z"/><path id="Path_444" data-name="Path 444" class="cls-9" d="M2.47,353.18H2.38a.28.28,0,0,1-.17-.35h0c.06-.21,7-20.83,29.55-25.67a.28.28,0,0,1,.32.21.27.27,0,0,1-.2.33C9.59,332.45,2.79,352.78,2.72,353A.27.27,0,0,1,2.47,353.18Z"/><path id="Path_445" data-name="Path 445" class="cls-9" d="M2.47,340.49a.28.28,0,0,1-.28-.27.27.27,0,0,1,.18-.25l.24-.17a12.15,12.15,0,0,1,9.53-2.33.27.27,0,0,1-.09.54h0a11.59,11.59,0,0,0-9.11,2.24,2.06,2.06,0,0,1-.37.23Z"/><path id="Path_446" data-name="Path 446" class="cls-9" d="M9.51,350.2a.26.26,0,0,1-.27-.27.27.27,0,0,1,.19-.26c.05,0,5.4-1.78,3.67-12.69a.28.28,0,0,1,.23-.31.27.27,0,0,1,.31.23c1.8,11.41-3.82,13.22-4.06,13.29Z"/><path id="Path_447" data-name="Path 447" class="cls-9" d="M22.2,330.77a.26.26,0,0,1-.19-.07c-3.11-2.83-7.91-1.25-8-1.23a.27.27,0,0,1-.34-.17.28.28,0,0,1,.17-.35c.21-.07,5.15-1.7,8.5,1.35a.27.27,0,0,1,0,.38h0A.27.27,0,0,1,22.2,330.77Z"/><path id="Path_448" data-name="Path 448" class="cls-9" d="M21.31,345.05a.35.35,0,0,1-.14,0,.27.27,0,0,1-.1-.37h0c0-.08,4.08-7.52,2-14.16a.27.27,0,1,1,.52-.17c2.19,6.87-2,14.52-2,14.59A.24.24,0,0,1,21.31,345.05Z"/></g><g id="Plant-4"><path id="Path_449" data-name="Path 449" class="cls-9" d="M50.07,392.41a.47.47,0,0,1-.46-.43c-1.86-31.31,5.62-48.71,5.69-48.89a.47.47,0,0,1,.61-.23.45.45,0,0,1,.23.6c-.07.17-7.46,17.4-5.61,48.47a.46.46,0,0,1-.43.48h0Z"/><path class="cls-26" d="M93.31,334.19a.76.76,0,0,0-.29-.37,40.73,40.73,0,0,0-9.9-6,31.23,31.23,0,0,0-8.61-2.58,16.58,16.58,0,0,0-8.83,1.12c-4.63,2.08-7.73,6.69-9.27,11.53a27,27,0,0,0-.82,3.21c-.15.73-.72,2.44-.22,3.08h0c1.38.3,2.83-.54,4.1-1,1.43-.5,2.88-1,4.35-1.36a64.73,64.73,0,0,1,9-1.76c5.28-.63,8.75-.85,10.45-1.15a20.88,20.88,0,0,0,9.6-4C93.14,334.76,93.4,334.49,93.31,334.19Z"/><path id="Path_451" data-name="Path 451" class="cls-9" d="M55.5,344.05h-.06a.25.25,0,0,1-.2-.32c0-.13,3-12.78,12.95-15.57,12.21-3.41,24.64,6,24.77,6.11a.27.27,0,1,1-.33.43h0c-.13-.1-12.35-9.36-24.3-6-9.65,2.7-12.54,15-12.56,15.16A.28.28,0,0,1,55.5,344.05Z"/><path id="Path_452" data-name="Path 452" class="cls-9" d="M66.13,329.38a.27.27,0,0,1-.27-.27.17.17,0,0,1,0-.07,5.74,5.74,0,0,1,3.65-3.66.28.28,0,0,1,.32.22.27.27,0,0,1-.16.3,5.27,5.27,0,0,0-3.29,3.29A.25.25,0,0,1,66.13,329.38Z"/><path id="Path_453" data-name="Path 453" class="cls-9" d="M78.92,328.44a.27.27,0,0,1-.27-.27.25.25,0,0,1,.17-.25,5,5,0,0,1,3.68-.25.27.27,0,1,1-.22.5,4.59,4.59,0,0,0-3.26.25Z"/><path id="Path_454" data-name="Path 454" class="cls-9" d="M86.74,337.82c-4.28,0-14.62-9.27-15.07-9.67a.27.27,0,0,1,0-.38.28.28,0,0,1,.39,0h0c.11.1,10.62,9.53,14.69,9.53h.2a.27.27,0,0,1,.29.25.26.26,0,0,1-.24.29Z"/><path id="Path_455" data-name="Path 455" class="cls-9" d="M71.58,340c-3.91,0-11.11-5.38-11.42-5.61a.28.28,0,0,1-.08-.38.27.27,0,0,1,.37-.08l0,0c.07,0,7.57,5.64,11.23,5.5a.26.26,0,0,1,.28.26.27.27,0,0,1-.26.28h-.16Z"/></g><g id="Plant-5"><path id="Path_456" data-name="Path 456" class="cls-9" d="M53.6,392.18a.47.47,0,0,1-.45-.39c-3.88-23.36,4-36.35,4-36.47a.45.45,0,0,1,.64-.11.46.46,0,0,1,.13.59c-.07.12-7.72,12.84-3.9,35.84a.46.46,0,0,1-.38.53H53.6Z"/><path class="cls-26" d="M80.54,371.52a19.89,19.89,0,0,0-6.12-12.14,19.64,19.64,0,0,0-12.56-5.22c-.94,0-2.26.1-2.64,1.15v0c-1-.74-3.26.71-4,1.38a6,6,0,0,0-2.07,4,10.73,10.73,0,0,0,1,4.53,36.61,36.61,0,0,0,10.2,14.65,26.66,26.66,0,0,0,16.47,6.44C79.85,381.45,81.12,376.43,80.54,371.52Z"/><path id="Path_476" data-name="Path 476" class="cls-9" d="M80.49,386.43a.27.27,0,0,1-.19-.08,23.69,23.69,0,0,1-6.4-10.09,13.45,13.45,0,0,0-4.28-6.68C60.11,361.34,59,355.6,59,355.36a.27.27,0,0,1,.22-.32.28.28,0,0,1,.31.22c0,.06,1.16,5.81,10.49,13.91a13.82,13.82,0,0,1,4.44,6.91A23.13,23.13,0,0,0,80.68,386a.28.28,0,0,1-.19.47Z"/><path id="Path_477" data-name="Path 477" class="cls-9" d="M59.09,373.31h0a.26.26,0,0,1-.26-.28h0c.09-4.24,2.36-12.35,2.45-12.7a.29.29,0,0,1,.34-.19.28.28,0,0,1,.19.34h0c0,.09-2.34,8.39-2.44,12.57A.27.27,0,0,1,59.09,373.31Z"/><path id="Path_478" data-name="Path 478" class="cls-9" d="M74.36,360.67a.3.3,0,0,1-.16-.05c-2.34-1.6-13.72-2.13-13.84-2.13a.28.28,0,0,1-.26-.29.26.26,0,0,1,.24-.26h0c.47,0,11.65.54,14.12,2.22a.27.27,0,0,1,.07.38.25.25,0,0,1-.22.12Z"/><path id="Path_479" data-name="Path 479" class="cls-9" d="M79.76,370.49a.31.31,0,0,1-.18-.07c-2.62-2.29-11.44-2.66-11.53-2.66a.27.27,0,0,1,0-.54h0c.37,0,9.1.37,11.87,2.79a.27.27,0,0,1,0,.38.28.28,0,0,1-.21.1Z"/><path id="Path_480" data-name="Path 480" class="cls-9" d="M71.63,384.17a.29.29,0,0,1-.22-.11c-4.08-5.39.14-12.53.19-12.6a.27.27,0,0,1,.46.28c0,.07-4.07,6.9-.21,12a.27.27,0,0,1-.06.38.23.23,0,0,1-.16.06Z"/></g><g id="Plant-6"><path id="Path_457" data-name="Path 457" class="cls-9" d="M46.4,391.75h0a.46.46,0,0,1-.42-.5h0c.78-10.56-.49-66.23-.5-66.79a.47.47,0,0,1,.45-.47h0a.46.46,0,0,1,.46.45c0,.56,1.28,56.27.49,66.88A.46.46,0,0,1,46.4,391.75Z"/><path class="cls-26" d="M52.49,335.37c-1.16-1.75-3.88-3.61-5.86-2.91h0a4.85,4.85,0,0,0-4.79-4,7.55,7.55,0,0,0-5.79,3.15,18.12,18.12,0,0,0-2.8,6.2,42,42,0,0,0-1.71,16.48,24.88,24.88,0,0,0,6.86,14.86,2.77,2.77,0,0,0,2.36,1.08,2.8,2.8,0,0,0,1.25-.77,36.88,36.88,0,0,0,12-28A11.42,11.42,0,0,0,52.49,335.37Z"/><path class="cls-26" d="M48.1,314.32A16.07,16.07,0,0,0,46,308.13a17.78,17.78,0,0,0-14.07-8.35,19.66,19.66,0,0,0-15.24,6.28,1.14,1.14,0,0,0-.42.86c.05.34.38.56.67.73l.64.38,7.12,4.2c2.37,1.4,6.56,2.8,8.93,4.2s2.92,2.8,5.29,4.2l7,4.14h0a13.82,13.82,0,0,0,1.72-3.91A16.41,16.41,0,0,0,48.1,314.32Z"/><path id="Path_460" data-name="Path 460" class="cls-9" d="M45.9,324.72a.27.27,0,0,1-.27-.25l0-.48c-.14-4.54-.37-12.14-8.52-16.9s-20.05-.08-20.17,0a.28.28,0,0,1-.36-.13.27.27,0,0,1,.14-.36h0a34,34,0,0,1,7.08-1.86c3.73-.56,9.11-.68,13.57,1.92,8.41,4.91,8.65,12.7,8.8,17.35v.48a.27.27,0,0,1-.26.28Z"/><path id="Path_461" data-name="Path 461" class="cls-9" d="M34,305.49a.27.27,0,0,1-.27-.25c-.37-3.91-4.28-4.85-4.45-4.88a.27.27,0,0,1-.22-.32.27.27,0,0,1,.31-.22h0s4.46,1.05,4.87,5.36a.29.29,0,0,1-.24.3Z"/><path id="Path_462" data-name="Path 462" class="cls-9" d="M43.79,313.72a.27.27,0,0,1-.27-.27.32.32,0,0,1,.07-.19c3-3.26.26-7,.14-7.19a.28.28,0,0,1,.1-.37.25.25,0,0,1,.33.05S47.3,310,44,313.63A.29.29,0,0,1,43.79,313.72Z"/><path id="Path_463" data-name="Path 463" class="cls-9" d="M30.78,311.65a29.16,29.16,0,0,1-4.93-.45.26.26,0,0,1-.2-.33.27.27,0,0,1,.3-.21c.11,0,10.57,2,12.49-2.74a.27.27,0,1,1,.51.19v0C37.78,311,34,311.65,30.78,311.65Z"/><path id="Path_464" data-name="Path 464" class="cls-27" d="M40.26,319.18a15.62,15.62,0,0,1-3.41-.37.11.11,0,0,1-.07-.14.1.1,0,0,1,.12-.08c.06,0,5.56,1.28,8.23-1.07a.12.12,0,0,1,.16,0,.12.12,0,0,1,0,.17A7.59,7.59,0,0,1,40.26,319.18Z"/><path id="Path_465" data-name="Path 465" class="cls-9" d="M39.86,370.51a.27.27,0,0,1-.27-.25c-1.86-17.05,5.61-37.6,5.69-37.8a.27.27,0,0,1,.35-.17.27.27,0,0,1,.16.35h0c-.07.21-7.5,20.64-5.66,37.56a.26.26,0,0,1-.24.3Z"/><path id="Path_466" data-name="Path 466" class="cls-9" d="M32.41,359.63a.27.27,0,0,1-.27-.27.27.27,0,0,1,.08-.19l8.53-8.83a.27.27,0,0,1,.38,0,.28.28,0,0,1,0,.39h0l-8.53,8.83A.28.28,0,0,1,32.41,359.63Z"/><path id="Path_467" data-name="Path 467" class="cls-9" d="M47.88,359.23a.28.28,0,0,1-.23-.13l-6.54-10.61a.27.27,0,1,1,.46-.28h0l6.55,10.61a.27.27,0,0,1-.24.41Z"/><path id="Path_468" data-name="Path 468" class="cls-9" d="M31.92,344.65a.28.28,0,0,1-.28-.27.29.29,0,0,1,.12-.22l12.71-9.25a.27.27,0,0,1,.32.44h0L32.08,344.6A.25.25,0,0,1,31.92,344.65Z"/><path id="Path_469" data-name="Path 469" class="cls-9" d="M52.34,345.25a.27.27,0,0,1-.19-.08L44,336.84a.27.27,0,1,1,.39-.38l8.13,8.33a.28.28,0,0,1,0,.38.27.27,0,0,1-.19.08Z"/></g></g><g id="Object"><path id="Path_470" data-name="Path 470" class="cls-23" d="M23.79,389l7.86,40.44H64l8.45-40.77-48.19-.24a.47.47,0,0,0-.47.47Z"/><rect id="Rectangle_60" data-name="Rectangle 60" class="cls-25" x="17.28" y="380.72" width="60.73" height="8.35" rx="1.36"/><path id="Path_471" data-name="Path 471" class="cls-25" d="M23.87,426.67l3.45,4.73a.84.84,0,0,0,.68.35H66.51a.85.85,0,0,0,.63-.29l4.11-4.74a.84.84,0,0,0-.09-1.18.82.82,0,0,0-.54-.2H24.56a.85.85,0,0,0-.85.83A.9.9,0,0,0,23.87,426.67Z"/><path id="Path_472" data-name="Path 472" class="cls-9" d="M68.54,405.77H27.48a.46.46,0,1,1,0-.91H68.54a.46.46,0,1,1,0,.91Z"/><path id="Path_473" data-name="Path 473" class="cls-9" d="M68,408.41H27.81a.46.46,0,1,1,0-.91H68a.46.46,0,1,1,0,.91Z"/><path id="Path_474" data-name="Path 474" class="cls-9" d="M67.23,411.3H28.55a.46.46,0,1,1,0-.92H67.23a.46.46,0,0,1,0,.92Z"/></g></g></g></g></svg>