<?xml version="1.0" encoding="UTF-8"?>
<!-- Generated by Pixelmator Pro 3.3.11 -->
<svg width="598" height="583" viewBox="0 0 598 583" xmlns="http://www.w3.org/2000/svg" xmlns:xlink="http://www.w3.org/1999/xlink">
    <path id="Path" fill="#e6e7e8" stroke="none" d="M 16 119 L 336 119 C 344.836548 119 352 126.163452 352 135 L 352 567 C 352 575.836548 344.836548 583 336 583 L 16 583 C 7.163445 583 0 575.836548 0 567 L 0 135 C 0 126.163452 7.163445 119 16 119 Z"/>
    <path id="path1" fill="#ff5023" stroke="none" d="M 304 119 L 304 207 L 280 175 L 256 207 L 256 119 Z"/>
    <path id="Path-copy-3" fill="#000000" fill-opacity="0.209938" stroke="none" d="M 251.109314 509.968597 C 253.83783 510.688416 256.566345 511.408081 259.294922 512.127808 C 378.667114 543.786987 521.958496 472.401184 598.162354 348.813477 C 523.545044 402.606262 433.585449 425.399902 355.84375 403.176758 C 349.026733 401.035217 342.209839 398.893799 335.401733 396.067871 C 337.48999 393.357056 339.58728 389.961853 341.702271 385.197937 C 341.702271 385.197937 412.449341 268.390381 549 136 C 552.465942 132.622437 448.12915 200.398926 357.38269 284.099731 C 380.488037 244.014893 437.751221 152.341064 503 82 C 488.513794 90.710815 499.625854 81.967529 486.481689 92.749146 C 410.442505 150.630371 317.055786 226.767944 244.689148 318.235474 C 205.837097 252.709229 203.600525 160.962036 247.890869 70.50061 C 258.447998 48.049683 271.724976 27.002808 286.352661 7.342407 C 224.265808 44.870117 170.117126 103.71875 137.699402 175.852905 C 99.630127 261.603516 100.568665 347.858276 133.963623 411.945068 L 133.963623 411.945068 C 133.963623 411.945068 133.954834 412.629456 134.639221 412.638306 C 135.972595 415.393311 137.990173 418.157349 139.323608 420.912354 C 154.665588 451.91156 169.627441 512.337891 106.242554 544.373047 C 91.747314 553.768127 173.648315 571.938232 251.109314 509.968597 C 251.109314 509.968597 251.109314 509.968597 251.109314 509.968597 Z"/>
    <path id="path2" fill="#ff9811" stroke="none" d="M 249.109314 502.968597 C 251.83783 503.688416 254.566345 504.408081 257.294922 505.127808 C 376.667114 536.786987 519.958496 465.401184 596.162354 341.813477 C 521.545044 395.606262 431.585449 418.399902 353.84375 396.176758 C 347.026733 394.035217 340.209839 391.893799 333.401733 389.067871 C 335.48999 386.357056 337.58728 382.961853 339.702271 378.197937 C 339.702271 378.197937 410.449341 261.390381 547 129 C 550.465942 125.622437 497.625854 74.967529 484.481689 85.749146 C 408.442505 143.630371 315.055786 219.767944 242.689148 311.235474 C 203.837097 245.709229 201.600525 153.962036 245.890869 63.50061 C 256.447998 41.049683 269.724976 20.002808 284.352661 0.342407 C 222.265808 37.870117 168.117126 96.71875 135.699402 168.852905 C 97.630127 254.603516 98.568665 340.858276 131.963623 404.945068 L 131.963623 404.945068 C 131.963623 404.945068 131.954834 405.629456 132.639221 405.638306 C 133.972595 408.393311 135.990173 411.157349 137.323608 413.912354 C 152.665588 444.91156 167.627441 505.337921 104.242554 537.373047 C 89.747314 546.768127 171.648315 564.938232 249.109314 502.968597 C 249.109314 502.968597 249.109314 502.968597 249.109314 502.968597 Z"/>
    <mask id="mask1" maskUnits="userSpaceOnUse" maskContentUnits="userSpaceOnUse" mask-type="alpha">
        <path id="path3" fill="#ff9811" stroke="none" d="M 249.109314 502.968597 C 251.83783 503.688416 254.566345 504.408081 257.294922 505.127808 C 376.667114 536.786987 519.958496 465.401184 596.162354 341.813477 C 521.545044 395.606262 431.585449 418.399902 353.84375 396.176758 C 347.026733 394.035217 340.209839 391.893799 333.401733 389.067871 C 335.48999 386.357056 337.58728 382.961853 339.702271 378.197937 C 339.702271 378.197937 410.449341 261.390381 547 129 C 550.465942 125.622437 497.625854 74.967529 484.481689 85.749146 C 408.442505 143.630371 315.055786 219.767944 242.689148 311.235474 C 203.837097 245.709229 201.600525 153.962036 245.890869 63.50061 C 256.447998 41.049683 269.724976 20.002808 284.352661 0.342407 C 222.265808 37.870117 168.117126 96.71875 135.699402 168.852905 C 97.630127 254.603516 98.568665 340.858276 131.963623 404.945068 L 131.963623 404.945068 C 131.963623 404.945068 131.954834 405.629456 132.639221 405.638306 C 133.972595 408.393311 135.990173 411.157349 137.323608 413.912354 C 152.665588 444.91156 167.627441 505.337921 104.242554 537.373047 C 89.747314 546.768127 171.648315 564.938232 249.109314 502.968597 C 249.109314 502.968597 249.109314 502.968597 249.109314 502.968597 Z"/>
    </mask>
    <g id="Group" mask="url(#mask1)">
        <g id="g1">
            <path id="path4" fill="#ff9811" stroke="none" d="M 440.910583 210.70871 L 421.364349 189.046692 L 161.993134 423.084473 L 249.692673 520.277039 L 433.53894 354.283508 L 509.063904 286.239227 Z"/>
            <path id="path5" fill="#acabb1" stroke="none" d="M 122 375 L 279.395752 504.105347 L 269.096069 516.590454 L 193.481812 542.640198 L 135.060242 453.748657 C 135.060242 453.748657 122 375 122 375 Z"/>
            <path id="path6" fill="#787680" stroke="none" d="M 218.66124 535.443726 L 96.718826 556.781067 L 136.975708 465.185486 Z"/>
        </g>
    </g>
    <path id="Path-copy-2" fill="#d1d3d4" stroke="none" d="M 461.529663 98.24231 L 434.970093 123.643555 L 443.373535 129.953979 L 498.542236 180.824585 L 525.101807 155.42334 Z"/>
    <path id="Path-copy" fill="#e6e7e8" stroke="none" d="M 539 83 C 539 83 551.778198 95.781372 552.09082 109.951782 C 552.403564 124.122192 544.825073 134.784058 535 145 L 524 156 L 461.421875 98.96582 L 474.062866 89.213013 C 483.842896 78.959961 497.30188 73.021484 511.467896 72.708862 C 525.633911 72.396362 539 83 539 83 Z"/>
    <path id="wordpress" fill="#0071bc" stroke="none" d="M 391 29 C 281.299988 29 192 118.299988 192 228 C 192 337.700012 281.299988 427 391 427 C 500.700012 427 590 337.700012 590 228 C 590 118.299988 500.700012 29 391 29 Z M 391 57.5 C 435.200012 57.5 475.600006 74.399994 505.899994 102.200012 C 500.799988 101.200012 495.700012 101.399994 490.700012 103.100006 C 476.899994 107.899994 465.100006 127.899994 473.799988 144.700012 C 477.799988 152.399994 485.799988 163.399994 494.5 174.899994 C 500.100006 182.399994 512.299988 209.600006 501.799988 249.600006 C 494.399994 277.899994 478.899994 326.600006 478.899994 326.600006 L 417 146.5 L 436.5 146.5 C 440.5 146.5 443.700012 143.299988 443.700012 139.299988 C 443.700012 135.299988 440.5 132.100006 436.5 132.100006 L 341.899994 132.100006 C 337.899994 132.100006 334.700012 135.299988 334.700012 139.299988 C 334.700012 143.299988 337.899994 146.5 341.899994 146.5 L 358.200012 146.5 L 386.5 220.200012 L 349.799988 329.700012 L 288.200012 146.5 L 307.700012 146.5 C 311.700012 146.5 314.899994 143.299988 314.899994 139.299988 C 314.899994 135.299988 311.700012 132.100006 307.700012 132.100006 L 250.100006 132.100006 C 280.899994 87.100006 332.600006 57.5 391 57.5 Z M 220.5 228 C 220.5 203.700012 225.600006 180.600006 234.800003 159.700012 L 316.899994 381.5 C 259.899994 353.899994 220.5 295.5 220.5 228 Z M 341.5 391.100006 L 394.700012 243.799988 L 448 388.700012 C 430.200012 395 411 398.5 391.100006 398.5 C 373.799988 398.5 357.200012 395.899994 341.5 391.100006 Z M 481.100006 372.700012 C 491.799988 341.200012 528.799988 231.299988 535.799988 209.5 C 542.400024 189 547.700012 177 547.299988 160 C 556.400024 180.899994 561.5 203.899994 561.5 228 C 561.5 288.899994 529.299988 342.5 481.100006 372.700012 Z"/>
    <path id="wordpress-copy" fill="#0071bc" stroke="none" opacity="0.3" d="M 396 22 C 286.299988 22 197 111.299988 197 221 C 197 330.700012 286.299988 420 396 420 C 505.700012 420 595 330.700012 595 221 C 595 111.299988 505.700012 22 396 22 Z M 396 50.5 C 440.200012 50.5 480.600006 67.400024 510.899994 95.200012 C 505.799988 94.200012 500.700012 94.399994 495.700012 96.100006 C 481.899994 100.899994 470.100006 120.899994 478.799988 137.700012 C 482.799988 145.399994 490.799988 156.399994 499.5 167.899994 C 505.100006 175.399994 517.299988 202.600006 506.799988 242.600006 C 499.399994 270.899994 483.899994 319.600006 483.899994 319.600006 L 422 139.5 L 441.5 139.5 C 445.5 139.5 448.700012 136.299988 448.700012 132.299988 C 448.700012 128.299988 445.5 125.100006 441.5 125.100006 L 346.899994 125.100006 C 342.899994 125.100006 339.700012 128.299988 339.700012 132.299988 C 339.700012 136.299988 342.899994 139.5 346.899994 139.5 L 363.200012 139.5 L 391.5 213.200012 L 354.799988 322.700012 L 293.200012 139.5 L 312.700012 139.5 C 316.700012 139.5 319.899994 136.299988 319.899994 132.299988 C 319.899994 128.299988 316.700012 125.100006 312.700012 125.100006 L 255.100006 125.100006 C 285.899994 80.100006 337.600006 50.5 396 50.5 Z M 225.5 221 C 225.5 196.700012 230.600006 173.600006 239.800003 152.700012 L 321.899994 374.5 C 264.899994 346.899994 225.5 288.5 225.5 221 Z M 346.5 384.100006 L 399.700012 236.799988 L 453 381.700012 C 435.200012 388 416 391.5 396.100006 391.5 C 378.799988 391.5 362.200012 388.899994 346.5 384.100006 Z M 486.100006 365.700012 C 496.799988 334.200012 533.799988 224.299988 540.799988 202.5 C 547.400024 182 552.700012 170 552.299988 153 C 561.400024 173.899994 566.5 196.899994 566.5 221 C 566.5 281.899994 534.299988 335.5 486.100006 365.700012 Z"/>
</svg>
