<svg height="511pt" viewBox="0 -10 511.99979 511" width="511pt" xmlns="http://www.w3.org/2000/svg"><path d="m451.269531 136.265625c-2.796875-.503906-4.933593-2.777344-5.152343-5.609375-5.636719-72.820312-66.503907-130.15625-140.769532-130.15625-54.746094 0-102.207031 31.164062-125.636718 76.714844-1.363282 2.652344-4.410157 3.972656-7.265626 3.105468-6.78125-2.054687-13.976562-3.167968-21.429687-3.167968-33.734375 0-62.175781 22.605468-71.039063 53.488281-.765624 2.667969-3.238281 4.4375-6.011718 4.4375-.015625 0-.03125 0-.050782 0-41.148437 0-74.441406 33.625-73.9062495 74.898437.5273435 40.617188 34.3867185 72.933594 75.0078125 72.933594h361.96875c40.992187 0 75.347656-33.542968 75.011719-74.53125-.292969-36.050781-26.390625-65.929687-60.726563-72.113281zm0 0" fill="#54a0ff"/><path d="m187.007812 77.148438c7.457032 0 14.648438 1.117187 21.433594 3.171874 2.855469.867188 5.898438-.457031 7.265625-3.105468 20.824219-40.492188 60.648438-69.59375 107.695313-75.5625-5.910156-.757813-11.933594-1.152344-18.050782-1.152344-54.75 0-102.210937 31.164062-125.640624 76.714844-.058594.113281-.140626.214844-.207032.328125 2.46875-.25 4.96875-.394531 7.503906-.394531zm0 0" fill="#338def"/><path d="m36 209.972656c-.535156-41.273437 32.761719-74.898437 73.910156-74.898437h.050782c2.769531.003906 5.246093-1.769531 6.007812-4.433594 7.230469-25.191406 27.484375-44.867187 53.007812-51.269531-5.75-1.441406-11.761718-2.222656-17.960937-2.222656-33.734375 0-62.175781 22.605468-71.039063 53.492187-.765624 2.664063-3.238281 4.4375-6.011718 4.433594-.015625 0-.03125 0-.046875 0-41.148438 0-74.445313 33.625-73.9101565 74.898437.5273435 40.621094 34.3867185 72.933594 75.0117185 72.933594h35.992188c-40.625 0-74.484375-32.3125-75.011719-72.933594zm0 0" fill="#338def"/><g fill="#e4eaf8"><path d="m149.671875 390.714844h-66.46875c-4.269531 0-7.726563-3.460938-7.726563-7.726563 0-4.269531 3.457032-7.726562 7.726563-7.726562h58.742187v-63.703125c0-4.269532 3.460938-7.730469 7.726563-7.730469s7.726563 3.460937 7.726563 7.730469v71.429687c0 4.265625-3.460938 7.726563-7.726563 7.726563zm0 0"/><path d="m217.542969 461.769531c-4.265625 0-7.726563-3.460937-7.726563-7.730469v-142.480468c0-4.269532 3.457032-7.726563 7.726563-7.726563 4.265625 0 7.726562 3.457031 7.726562 7.726563v142.480468c0 4.269532-3.460937 7.730469-7.726562 7.730469zm0 0"/><path d="m418.609375 390.714844h-66.472656c-4.265625 0-7.726563-3.460938-7.726563-7.726563v-71.429687c0-4.269532 3.460938-7.730469 7.726563-7.730469 4.269531 0 7.730469 3.460937 7.730469 7.730469v63.703125h58.742187c4.265625 0 7.726563 3.457031 7.726563 7.726562 0 4.265625-3.460938 7.726563-7.726563 7.726563zm0 0"/><path d="m284.265625 461.769531c-4.265625 0-7.726563-3.460937-7.726563-7.730469v-142.480468c0-4.269532 3.460938-7.726563 7.726563-7.726563 4.269531 0 7.730469 3.457031 7.730469 7.726563v142.480468c0 4.269532-3.460938 7.730469-7.730469 7.730469zm0 0"/><path d="m149.671875 257.78125c-4.265625 0-7.726563-3.460938-7.726563-7.726562v-11.460938c0-4.265625 3.460938-7.726562 7.726563-7.726562s7.726563 3.457031 7.726563 7.726562v11.460938c0 4.265624-3.460938 7.726562-7.726563 7.726562zm0 0"/><path d="m217.542969 257.78125c-4.265625 0-7.726563-3.460938-7.726563-7.726562v-11.460938c0-4.265625 3.457032-7.726562 7.726563-7.726562 4.265625 0 7.726562 3.457031 7.726562 7.726562v11.460938c0 4.265624-3.460937 7.726562-7.726562 7.726562zm0 0"/><path d="m284.265625 257.78125c-4.265625 0-7.726563-3.460938-7.726563-7.726562v-11.460938c0-4.265625 3.460938-7.726562 7.726563-7.726562 4.269531 0 7.730469 3.457031 7.730469 7.726562v11.460938c0 4.265624-3.460938 7.726562-7.730469 7.726562zm0 0"/><path d="m352.136719 257.78125c-4.265625 0-7.726563-3.460938-7.726563-7.726562v-11.460938c0-4.265625 3.460938-7.726562 7.726563-7.726562 4.269531 0 7.730469 3.457031 7.730469 7.726562v11.460938c0 4.265624-3.460938 7.726562-7.730469 7.726562zm0 0"/></g><path d="m83.203125 382.988281c0 10.496094-8.511719 19.003907-19.007813 19.003907-10.496093 0-19.003906-8.507813-19.003906-19.003907 0-10.5 8.507813-19.007812 19.003906-19.007812 10.496094 0 19.007813 8.507812 19.007813 19.007812zm0 0" fill="#feca57"/><path d="m70.945312 382.988281c0-5.523437 2.371094-10.476562 6.128907-13.953125-3.386719-3.128906-7.902344-5.054687-12.878907-5.054687-10.496093 0-19.003906 8.507812-19.003906 19.003906 0 10.5 8.507813 19.007813 19.003906 19.007813 4.976563 0 9.492188-1.925782 12.878907-5.058594-3.761719-3.46875-6.128907-8.425782-6.128907-13.945313zm0 0" fill="#f4b537"/><path d="m236.550781 473.046875c0 10.496094-8.511719 19.007813-19.007812 19.007813-10.496094 0-19.003907-8.511719-19.003907-19.007813s8.507813-19.003906 19.003907-19.003906c10.496093 0 19.007812 8.507812 19.007812 19.003906zm0 0" fill="#feca57"/><path d="m224.292969 473.046875c0-5.519531 2.367187-10.476563 6.128906-13.949219-3.390625-3.128906-7.902344-5.058594-12.878906-5.058594-10.496094 0-19.007813 8.511719-19.007813 19.007813s8.511719 19.007813 19.007813 19.007813c4.976562 0 9.492187-1.929688 12.878906-5.058594-3.761719-3.472656-6.128906-8.425782-6.128906-13.949219zm0 0" fill="#f4b537"/><path d="m303.273438 473.046875c0 10.496094-8.507813 19.007813-19.007813 19.007813-10.496094 0-19.003906-8.511719-19.003906-19.007813s8.507812-19.003906 19.003906-19.003906c10.5 0 19.007813 8.507812 19.007813 19.003906zm0 0" fill="#feca57"/><path d="m291.015625 473.046875c0-5.519531 2.371094-10.476563 6.128906-13.949219-3.386719-3.128906-7.902343-5.058594-12.878906-5.058594-10.496094 0-19.003906 8.511719-19.003906 19.007813s8.507812 19.007813 19.003906 19.007813c4.976563 0 9.492187-1.929688 12.878906-5.058594-3.757812-3.472656-6.128906-8.425782-6.128906-13.949219zm0 0" fill="#f4b537"/><path d="m456.621094 382.988281c0 10.496094-8.511719 19.003907-19.007813 19.003907-10.496093 0-19.003906-8.507813-19.003906-19.003907 0-10.5 8.507813-19.007812 19.003906-19.007812 10.496094 0 19.007813 8.507812 19.007813 19.007812zm0 0" fill="#feca57"/><path d="m444.363281 382.988281c0-5.523437 2.371094-10.476562 6.128907-13.953125-3.386719-3.128906-7.902344-5.054687-12.878907-5.054687-10.496093 0-19.003906 8.507812-19.003906 19.003906 0 10.5 8.507813 19.007813 19.003906 19.007813 4.976563 0 9.492188-1.925782 12.878907-5.058594-3.757813-3.46875-6.128907-8.425782-6.128907-13.945313zm0 0" fill="#f4b537"/></svg>