<?xml version="1.0" encoding="UTF-8" standalone="no"?>
<!DOCTYPE svg PUBLIC "-//W3C//DTD SVG 1.1//EN" "http://www.w3.org/Graphics/SVG/1.1/DTD/svg11.dtd">
<svg width="334px" height="413px" version="1.1" xmlns="http://www.w3.org/2000/svg" xmlns:xlink="http://www.w3.org/1999/xlink" xml:space="preserve" xmlns:serif="http://www.serif.com/" style="fill-rule:evenodd;clip-rule:evenodd;stroke-linejoin:round;stroke-miterlimit:2;">
    <path d="M66.61,206.432C80.16,219.982 94.576,229.307 109.855,234.399C128.41,240.524 143.71,237.57 155.751,225.528C167.793,213.486 171.393,198.924 166.564,181.832C162.589,167.499 154.089,153.82 141.055,140.786C115.593,115.324 91.768,105.136 69.585,110.232C61.472,112.132 54.047,116.445 47.314,123.178C35.405,135.09 31.776,148.382 36.439,163.057C40.41,175.486 49.993,189.47 65.185,205.007L66.61,206.432ZM30.418,1.02C31.76,-0.318 33.072,-0.339 34.368,0.953C35.664,2.249 34.693,8.357 31.451,19.274C28.218,30.195 26.339,37.12 25.822,40.053C24.005,49.465 22.543,59.215 21.418,69.315C17.793,102.632 20.555,124.128 29.71,133.795C30.397,133.103 30.98,132.09 31.451,130.753C31.93,129.415 32.876,127.086 34.301,123.761C35.726,120.436 39.522,115.69 45.693,109.515C51.868,103.349 60.093,98.274 70.364,94.307C80.635,90.336 91.035,88.436 101.568,88.607C124.18,89.128 143.86,97.757 160.61,114.503C177.351,131.249 185.897,151.061 186.235,173.928C186.585,196.807 178.405,216.59 161.705,233.295C145.001,249.999 124.68,256.603 100.726,253.107C76.768,249.611 55.689,238.757 37.476,220.545C14.776,197.84 2.389,170.695 0.314,139.103C-1.499,111.74 4.543,74.282 18.439,26.72C19.993,21.365 22.047,16.078 24.589,10.857C27.139,5.636 29.08,2.357 30.418,1.02" style="fill-rule:nonzero;"/>
    <path d="M268.634,363.231C283.825,347.694 293.405,333.706 297.375,321.281C302.038,306.602 298.409,293.31 286.5,281.398C279.767,274.665 272.346,270.348 264.234,268.452C242.05,263.36 218.221,273.548 192.763,299.006C179.725,312.044 171.221,325.723 167.255,340.052C162.421,357.14 166.025,371.706 178.067,383.748C190.109,395.79 205.405,398.748 223.963,392.619C239.242,387.527 253.659,378.206 267.209,364.656L268.634,363.231ZM309.221,169.077C311.771,174.302 313.821,179.59 315.375,184.94C329.271,232.502 335.313,269.965 333.5,297.323C331.43,328.919 319.046,356.065 296.342,378.769C278.13,396.981 257.046,407.827 233.096,411.327C209.142,414.823 188.809,408.219 172.109,391.519C155.405,374.815 147.225,355.023 147.575,332.156C147.917,309.281 156.463,289.473 173.213,272.723C189.955,255.981 209.638,247.348 232.255,246.827C242.784,246.656 253.18,248.556 263.459,252.531C273.725,256.498 281.95,261.569 288.125,267.744C294.296,273.915 298.092,278.665 299.513,281.981C300.938,285.306 301.884,287.631 302.359,288.969C302.838,290.315 303.421,291.323 304.109,292.01C313.259,282.352 316.021,260.856 312.396,227.535C311.271,217.44 309.809,207.685 307.992,198.277C307.475,195.344 305.6,188.415 302.363,177.494C299.125,166.577 298.155,160.469 299.45,159.173C300.742,157.877 302.059,157.902 303.4,159.24C304.734,160.577 306.68,163.856 309.221,169.077" style="fill-rule:nonzero;"/>
    <path d="M66.447,206.273C80.001,219.823 94.413,229.148 109.692,234.24C128.251,240.369 143.551,237.411 155.592,225.369C167.63,213.327 171.234,198.765 166.401,181.673C162.43,167.344 153.93,153.661 140.897,140.632C115.434,115.165 91.609,104.982 69.426,110.073C61.313,111.973 53.888,116.29 47.155,123.023C35.247,134.932 31.617,148.223 36.28,162.898C40.251,175.332 49.834,189.315 65.022,204.848L66.447,206.273Z" style="fill:#f8ed2f;fill-rule:nonzero;"/>
    <path d="M268.471,363.068C283.663,347.531 293.246,333.547 297.217,321.122C301.88,306.443 298.25,293.152 286.342,281.239C279.609,274.506 272.188,270.193 264.067,268.289C241.888,263.202 218.063,273.389 192.6,298.847C179.567,311.885 171.063,325.564 167.096,339.893C162.259,356.985 165.867,371.547 177.909,383.589C189.95,395.631 205.246,398.589 223.805,392.46C239.084,387.368 253.496,378.043 267.046,364.493L268.471,363.068Z" style="fill:#f8ed2f;fill-rule:nonzero;"/>
</svg>
